<?xml version="1.0" encoding="UTF-8"?>
<svg xmlns="http://www.w3.org/2000/svg" xmlns:xlink="http://www.w3.org/1999/xlink" width="514pt" height="514pt" viewBox="0 0 514 514" version="1.1">
<g id="surface68846">
<path style="fill-rule:evenodd;fill:rgb(82.7%,82.7%,82.7%);fill-opacity:0.3;stroke-width:1.2;stroke-linecap:butt;stroke-linejoin:round;stroke:rgb(0%,0%,0%);stroke-opacity:1;stroke-miterlimit:10;" d="M 128 704 L 128 192 L 640 192 L 640 704 Z M 128 704 " transform="matrix(1,0,0,-1,-127,705)"/>
<path style="fill-rule:evenodd;fill:rgb(0%,0%,0%);fill-opacity:1;stroke-width:1.2;stroke-linecap:round;stroke-linejoin:round;stroke:rgb(0%,0%,0%);stroke-opacity:1;stroke-miterlimit:10;" d="M 352 320 C 352 373.019531 309.019531 416 256 416 C 202.980469 416 160 373.019531 160 320 C 160 266.980469 202.980469 224 256 224 C 309.019531 224 352 266.980469 352 320 Z M 352 320 " transform="matrix(1,0,0,-1,-127,705)"/>
<path style="fill-rule:evenodd;fill:rgb(0%,0%,0%);fill-opacity:1;stroke-width:1.2;stroke-linecap:round;stroke-linejoin:round;stroke:rgb(0%,0%,0%);stroke-opacity:1;stroke-miterlimit:10;" d="M 352 576 C 352 629.019531 309.019531 672 256 672 C 202.980469 672 160 629.019531 160 576 C 160 522.980469 202.980469 480 256 480 C 309.019531 480 352 522.980469 352 576 Z M 352 576 " transform="matrix(1,0,0,-1,-127,705)"/>
<path style="fill-rule:evenodd;fill:rgb(0%,0%,0%);fill-opacity:1;stroke-width:1.2;stroke-linecap:round;stroke-linejoin:round;stroke:rgb(0%,0%,0%);stroke-opacity:1;stroke-miterlimit:10;" d="M 608 576 C 608 629.019531 565.019531 672 512 672 C 458.980469 672 416 629.019531 416 576 C 416 522.980469 458.980469 480 512 480 C 565.019531 480 608 522.980469 608 576 Z M 608 576 " transform="matrix(1,0,0,-1,-127,705)"/>
<path style="fill-rule:evenodd;fill:rgb(0%,0%,0%);fill-opacity:1;stroke-width:1.2;stroke-linecap:round;stroke-linejoin:round;stroke:rgb(0%,0%,0%);stroke-opacity:1;stroke-miterlimit:10;" d="M 608 320 C 608 373.019531 565.019531 416 512 416 C 458.980469 416 416 373.019531 416 320 C 416 266.980469 458.980469 224 512 224 C 565.019531 224 608 266.980469 608 320 Z M 608 320 " transform="matrix(1,0,0,-1,-127,705)"/>
<path style="fill-rule:evenodd;fill:rgb(0%,0%,0%);fill-opacity:1;stroke-width:1.2;stroke-linecap:round;stroke-linejoin:round;stroke:rgb(0%,0%,0%);stroke-opacity:1;stroke-miterlimit:10;" d="M 224 544 C 240 448 232 400 238.667969 376 C 245.332031 352 266.667969 352 272 368 C 277.332031 384 266.667969 416 269.332031 456 C 272 496 288 544 224 544 " transform="matrix(1,0,0,-1,-127,705)"/>
<path style="fill-rule:evenodd;fill:rgb(0%,0%,0%);fill-opacity:1;stroke-width:1.2;stroke-linecap:round;stroke-linejoin:round;stroke:rgb(0%,0%,0%);stroke-opacity:1;stroke-miterlimit:10;" d="M 224 544 L 234 540.671875 L 234 547.328125 Z M 224 544 " transform="matrix(1,0,0,-1,-127,705)"/>
<path style="fill-rule:evenodd;fill:rgb(0%,0%,0%);fill-opacity:1;stroke-width:1.2;stroke-linecap:round;stroke-linejoin:round;stroke:rgb(0%,0%,0%);stroke-opacity:1;stroke-miterlimit:10;" d="M 480 512 C 496 416 488 368 494.667969 344 C 501.332031 320 522.667969 320 528 336 C 533.332031 352 522.667969 384 525.332031 424 C 528 464 544 512 480 512 " transform="matrix(1,0,0,-1,-127,705)"/>
<path style="fill-rule:evenodd;fill:rgb(0%,0%,0%);fill-opacity:1;stroke-width:1.2;stroke-linecap:round;stroke-linejoin:round;stroke:rgb(0%,0%,0%);stroke-opacity:1;stroke-miterlimit:10;" d="M 480 512 L 490 508.671875 L 490 515.328125 Z M 480 512 " transform="matrix(1,0,0,-1,-127,705)"/>
<path style="fill-rule:evenodd;fill:rgb(0%,0%,0%);fill-opacity:1;stroke-width:1.2;stroke-linecap:round;stroke-linejoin:round;stroke:rgb(0%,0%,0%);stroke-opacity:1;stroke-miterlimit:10;" d="M 298.675781 517.15625 C 377.886719 437.8125 403.613281 387.105469 425.726562 369.109375 C 447.84375 351.113281 466.347656 365.820312 460.085938 384.5625 C 453.824219 403.300781 422.792969 426.074219 397.886719 465.570312 C 372.976562 505.0625 354.191406 561.285156 298.675781 517.15625 " transform="matrix(1,0,0,-1,-127,705)"/>
<path style="fill-rule:evenodd;fill:rgb(0%,0%,0%);fill-opacity:1;stroke-width:1.2;stroke-linecap:round;stroke-linejoin:round;stroke:rgb(0%,0%,0%);stroke-opacity:1;stroke-miterlimit:10;" d="M 298.675781 517.15625 L 308.578125 520.773438 L 304.433594 525.984375 Z M 298.675781 517.15625 " transform="matrix(1,0,0,-1,-127,705)"/>
<path style="fill:none;stroke-width:1.2;stroke-linecap:round;stroke-linejoin:round;stroke:rgb(0%,0%,0%);stroke-opacity:1;stroke-miterlimit:10;" d="M 384 192 L 384 704 " transform="matrix(1,0,0,-1,-127,705)"/>
<path style="fill:none;stroke-width:1.2;stroke-linecap:round;stroke-linejoin:round;stroke:rgb(0%,0%,0%);stroke-opacity:1;stroke-miterlimit:10;" d="M 640 448 L 128 448 " transform="matrix(1,0,0,-1,-127,705)"/>
</g>
</svg>
