<?xml version="1.0" encoding="UTF-8"?>
<svg xmlns="http://www.w3.org/2000/svg" xmlns:xlink="http://www.w3.org/1999/xlink" width="264pt" height="226pt" viewBox="0 0 264 226" version="1.1">
<g id="surface187383">
<path style=" stroke:none;fill-rule:evenodd;fill:rgb(0%,0%,0%);fill-opacity:1;" d="M 44.492188 4.492188 C 44.492188 0.492188 38.492188 0.492188 38.492188 4.492188 C 38.492188 8.492188 44.492188 8.492188 44.492188 4.492188 Z M 44.492188 4.492188 "/>
<path style=" stroke:none;fill-rule:evenodd;fill:rgb(0%,0%,0%);fill-opacity:1;" d="M 225.507812 4.492188 C 225.507812 0.492188 219.507812 0.492188 219.507812 4.492188 C 219.507812 8.492188 225.507812 8.492188 225.507812 4.492188 Z M 225.507812 4.492188 "/>
<path style=" stroke:none;fill-rule:evenodd;fill:rgb(0%,0%,0%);fill-opacity:1;" d="M 263 95 C 263 91 257 91 257 95 C 257 99 263 99 263 95 Z M 263 95 "/>
<path style=" stroke:none;fill-rule:evenodd;fill:rgb(0%,0%,0%);fill-opacity:1;" d="M 225.507812 185.507812 C 225.507812 181.507812 219.507812 181.507812 219.507812 185.507812 C 219.507812 189.507812 225.507812 189.507812 225.507812 185.507812 Z M 225.507812 185.507812 "/>
<path style=" stroke:none;fill-rule:evenodd;fill:rgb(0%,0%,0%);fill-opacity:1;" d="M 135 223 C 135 219 129 219 129 223 C 129 227 135 227 135 223 Z M 135 223 "/>
<path style=" stroke:none;fill-rule:evenodd;fill:rgb(0%,0%,0%);fill-opacity:1;" d="M 44.492188 185.507812 C 44.492188 181.507812 38.492188 181.507812 38.492188 185.507812 C 38.492188 189.507812 44.492188 189.507812 44.492188 185.507812 Z M 44.492188 185.507812 "/>
<path style=" stroke:none;fill-rule:evenodd;fill:rgb(0%,0%,0%);fill-opacity:1;" d="M 7 95 C 7 91 1 91 1 95 C 1 99 7 99 7 95 Z M 7 95 "/>
<path style=" stroke:none;fill-rule:evenodd;fill:rgb(0%,0%,0%);fill-opacity:1;" d="M 135 148.019531 C 135 144.019531 129 144.019531 129 148.019531 C 129 152.019531 135 152.019531 135 148.019531 Z M 135 148.019531 "/>
<path style="fill:none;stroke-width:0.4;stroke-linecap:round;stroke-linejoin:round;stroke:rgb(0%,0%,0%);stroke-opacity:1;stroke-miterlimit:10;" d="M 101.492188 101.492188 L 192 138.980469 L 282.507812 101.492188 L 192 64 L 101.492188 101.492188 " transform="matrix(1,0,0,-1,-60,287)"/>
<path style="fill:none;stroke-width:0.4;stroke-linecap:round;stroke-linejoin:round;stroke:rgb(0%,0%,0%);stroke-opacity:1;stroke-miterlimit:10;" d="M 192 138.980469 L 192 64 " transform="matrix(1,0,0,-1,-60,287)"/>
<path style=" stroke:none;fill-rule:evenodd;fill:rgb(0%,0%,0%);fill-opacity:1;" d="M 81.980469 95 C 81.980469 91 75.980469 91 75.980469 95 C 75.980469 99 81.980469 99 81.980469 95 Z M 81.980469 95 "/>
<path style=" stroke:none;fill-rule:evenodd;fill:rgb(0%,0%,0%);fill-opacity:1;" d="M 188.019531 95 C 188.019531 91 182.019531 91 182.019531 95 C 182.019531 99 188.019531 99 188.019531 95 Z M 188.019531 95 "/>
<path style="fill:none;stroke-width:0.4;stroke-linecap:round;stroke-linejoin:round;stroke:rgb(0%,0%,0%);stroke-opacity:1;stroke-miterlimit:10;" d="M 64 192 L 138.980469 192 " transform="matrix(1,0,0,-1,-60,287)"/>
<path style="fill:none;stroke-width:0.4;stroke-linecap:round;stroke-linejoin:round;stroke:rgb(0%,0%,0%);stroke-opacity:1;stroke-miterlimit:10;" d="M 245.019531 192 L 320 192 " transform="matrix(1,0,0,-1,-60,287)"/>
<path style="fill:none;stroke-width:0.4;stroke-linecap:round;stroke-linejoin:round;stroke:rgb(0%,0%,0%);stroke-opacity:1;stroke-miterlimit:10;" d="M 282.507812 282.507812 L 245.019531 192 L 282.507812 101.492188 L 320 192 L 282.507812 282.507812 " transform="matrix(1,0,0,-1,-60,287)"/>
<path style="fill:none;stroke-width:0.4;stroke-linecap:round;stroke-linejoin:round;stroke:rgb(0%,0%,0%);stroke-opacity:1;stroke-miterlimit:10;" d="M 101.492188 282.507812 L 64 192 L 101.492188 101.492188 L 138.980469 192 L 101.492188 282.507812 " transform="matrix(1,0,0,-1,-60,287)"/>
<path style="fill:none;stroke-width:0.4;stroke-linecap:round;stroke-linejoin:round;stroke:rgb(0%,0%,0%);stroke-opacity:1;stroke-miterlimit:10;" d="M 101.492188 282.507812 L 282.507812 282.507812 " transform="matrix(1,0,0,-1,-60,287)"/>
</g>
</svg>
