<?xml version="1.0" encoding="UTF-8"?>
<svg xmlns="http://www.w3.org/2000/svg" xmlns:xlink="http://www.w3.org/1999/xlink" width="247pt" height="235pt" viewBox="0 0 247 235" version="1.1">
<g id="surface182123">
<path style="fill:none;stroke-width:0.4;stroke-linecap:butt;stroke-linejoin:round;stroke:rgb(0%,0%,0%);stroke-opacity:1;stroke-miterlimit:10;" d="M 99.242188 119.460938 L 53.554688 259.945312 L 173.179688 346.609375 L 292.804688 259.945312 L 247.117188 119.460938 L 99.242188 119.460938 " transform="matrix(1,0,0,-1,-49,351)"/>
<path style="fill:none;stroke-width:0.4;stroke-linecap:butt;stroke-linejoin:round;stroke:rgb(0%,0%,0%);stroke-opacity:1;stroke-miterlimit:10;" d="M 173.179688 292.691406 L 131.023438 163.1875 L 241.382812 243.28125 L 104.976562 243.28125 L 215.335938 163.1875 L 173.179688 292.691406 " transform="matrix(1,0,0,-1,-49,351)"/>
<path style="fill:none;stroke-width:0.4;stroke-linecap:butt;stroke-linejoin:round;stroke:rgb(0%,0%,0%);stroke-opacity:1;stroke-miterlimit:10;" d="M 173.179688 292.691406 L 173.179688 346.609375 " transform="matrix(1,0,0,-1,-49,351)"/>
<path style="fill:none;stroke-width:0.4;stroke-linecap:butt;stroke-linejoin:round;stroke:rgb(0%,0%,0%);stroke-opacity:1;stroke-miterlimit:10;" d="M 104.976562 243.28125 L 53.554688 259.945312 " transform="matrix(1,0,0,-1,-49,351)"/>
<path style="fill:none;stroke-width:0.4;stroke-linecap:butt;stroke-linejoin:round;stroke:rgb(0%,0%,0%);stroke-opacity:1;stroke-miterlimit:10;" d="M 99.242188 119.460938 L 131.023438 163.1875 " transform="matrix(1,0,0,-1,-49,351)"/>
<path style="fill:none;stroke-width:0.4;stroke-linecap:butt;stroke-linejoin:round;stroke:rgb(0%,0%,0%);stroke-opacity:1;stroke-miterlimit:10;" d="M 215.335938 163.1875 L 247.117188 119.460938 " transform="matrix(1,0,0,-1,-49,351)"/>
<path style="fill:none;stroke-width:0.4;stroke-linecap:butt;stroke-linejoin:round;stroke:rgb(0%,0%,0%);stroke-opacity:1;stroke-miterlimit:10;" d="M 241.382812 243.28125 L 292.804688 259.945312 " transform="matrix(1,0,0,-1,-49,351)"/>
<path style=" stroke:none;fill-rule:evenodd;fill:rgb(100%,0%,0%);fill-opacity:1;" d="M 7.554688 91.054688 C 7.554688 87.054688 1.554688 87.054688 1.554688 91.054688 C 1.554688 95.054688 7.554688 95.054688 7.554688 91.054688 Z M 7.554688 91.054688 "/>
<path style=" stroke:none;fill-rule:evenodd;fill:rgb(0%,0%,100%);fill-opacity:1;" d="M 127.179688 4.390625 C 127.179688 0.390625 121.179688 0.390625 121.179688 4.390625 C 121.179688 8.390625 127.179688 8.390625 127.179688 4.390625 Z M 127.179688 4.390625 "/>
<path style=" stroke:none;fill-rule:evenodd;fill:rgb(100%,0%,0%);fill-opacity:1;" d="M 127.179688 58.308594 C 127.179688 54.308594 121.179688 54.308594 121.179688 58.308594 C 121.179688 62.308594 127.179688 62.308594 127.179688 58.308594 Z M 127.179688 58.308594 "/>
<path style=" stroke:none;fill-rule:evenodd;fill:rgb(0%,0%,100%);fill-opacity:1;" d="M 58.976562 107.71875 C 58.976562 103.71875 52.976562 103.71875 52.976562 107.71875 C 52.976562 111.71875 58.976562 111.71875 58.976562 107.71875 Z M 58.976562 107.71875 "/>
<path style=" stroke:none;fill-rule:evenodd;fill:rgb(100%,0%,0%);fill-opacity:1;" d="M 195.382812 107.71875 C 195.382812 103.71875 189.382812 103.71875 189.382812 107.71875 C 189.382812 111.71875 195.382812 111.71875 195.382812 107.71875 Z M 195.382812 107.71875 "/>
<path style=" stroke:none;fill-rule:evenodd;fill:rgb(0%,100%,0%);fill-opacity:1;" d="M 246.804688 91.054688 C 246.804688 87.054688 240.804688 87.054688 240.804688 91.054688 C 240.804688 95.054688 246.804688 95.054688 246.804688 91.054688 Z M 246.804688 91.054688 "/>
<path style=" stroke:none;fill-rule:evenodd;fill:rgb(0%,0%,100%);fill-opacity:1;" d="M 85.023438 187.8125 C 85.023438 183.8125 79.023438 183.8125 79.023438 187.8125 C 79.023438 191.8125 85.023438 191.8125 85.023438 187.8125 Z M 85.023438 187.8125 "/>
<path style=" stroke:none;fill-rule:evenodd;fill:rgb(0%,100%,0%);fill-opacity:1;" d="M 169.332031 187.8125 C 169.332031 183.8125 163.332031 183.8125 163.332031 187.8125 C 163.332031 191.8125 169.332031 191.8125 169.332031 187.8125 Z M 169.332031 187.8125 "/>
<path style=" stroke:none;fill-rule:evenodd;fill:rgb(0%,100%,0%);fill-opacity:1;" d="M 53.242188 231.539062 C 53.242188 227.539062 47.242188 227.539062 47.242188 231.539062 C 47.242188 235.539062 53.242188 235.539062 53.242188 231.539062 Z M 53.242188 231.539062 "/>
<path style=" stroke:none;fill-rule:evenodd;fill:rgb(100%,0%,0%);fill-opacity:1;" d="M 201.117188 231.539062 C 201.117188 227.539062 195.117188 227.539062 195.117188 231.539062 C 195.117188 235.539062 201.117188 235.539062 201.117188 231.539062 Z M 201.117188 231.539062 "/>
</g>
</svg>
