<?xml version="1.0" encoding="UTF-8"?>
<svg viewBox="0 0 240 122" width="240" height="122" preserveAspectRatio="xMinYMin meet" version="1.1" xmlns="http://www.w3.org/2000/svg">
    <g transform="matrix(1.369 0 0 1.369 -1.4074 -.28912)" fill="#000" stroke-width=".99793"><path class="st1" d="m9.0271 61.415c-2.0956 0-2.894-1.0977-2.894-2.894v-6.2869c0-.19959.099793-.29938.29938-.29938h.49896c.19959 0 .29938.09979.29938.29938v6.0874c0 1.3971.39917 2.1954 1.7963 2.1954.99793 0 1.7963-.29938 1.7963-1.9959v-6.1872c0-.19959.09979-.29938.29938-.29938h.49896c.19959 0 .29938.09979.29938.29938v6.2869c0 1.6965-.99793 2.7942-2.894 2.7942z"/><path class="st1" d="m20.603 61.315h-.99793c-.09979 0-.29938-.09979-.29938-.19959l-2.9938-6.6861c-.29938-.59876-.49896-1.1975-.59876-1.7963 0 .59876.09979 1.4969.09979 1.8961v6.4865c0 .09979-.09979.29938-.29938.29938h-.49896c-.19959 0-.29938-.09979-.29938-.29938v-8.8816c0-.19959.09979-.29938.29938-.29938h1.0977c.19959 0 .29938.09979.29938.19958l2.894 6.6861c.29938.59876.39917 1.2973.59876 1.6965 0-.59876-.09979-1.2973-.09979-1.8961v-6.3867c0-.19959.09979-.29938.29938-.29938h.49896c.19959 0 .29938.09979.29938.29938v8.8816c0 .19959-.09979.29938-.29938.29938z"/><path class="st1" d="m25.692 61.315h-2.4948c-.19959 0-.29938-.09979-.29938-.29938v-.29938c0-.19959.09979-.29938.29938-.29938h.69855v-7.5843h-.69855c-.19959 0-.29938-.09979-.29938-.29938v-.29938c0-.19959.09979-.29938.29938-.29938h2.4948c.19959 0 .29938.09979.29938.29938v.29938c0 .19959-.09979.29938-.29938.29938h-.69855v7.5843h.69855c.19959 0 .29938.09979.29938.29938v.29938c0 .19959-.09979.29938-.29938.29938z"/><path class="st1" d="m31.281 61.016c0 .19959-.19959.29938-.39917.29938h-.79834c-.19959 0-.29938-.09979-.39917-.29938l-2.5946-8.8816c-.09979-.19959.09979-.29938.19958-.29938h.69855c.19959 0 .29938.09979.39917.29938l1.7963 6.7859c.09979.39917.19959 1.0977.29938 1.4969.09979-.49896.19959-1.1975.29938-1.4969l1.7963-6.7859c0-.19959.19959-.29938.29938-.29938h.59876c.19959 0 .29938.09979.19959.29938z"/><path class="st1" d="m40.562 61.315h-4.3909c-.19958 0-.29938-.09979-.29938-.29938v-8.8816c0-.19959.09979-.29938.29938-.29938h4.2911c.19959 0 .29938.09979.29938.29938v.49896c0 .19959-.09979.29938-.29938.29938h-3.393v2.894h3.0936c.19958 0 .29938.09979.29938.29938v.39917c0 .19958-.09979.29938-.29938.29938h-3.0936v3.393h3.4927c.19959 0 .29938.09979.29938.29938v.49896c0 .19959-.09979.29938-.29938.29938z"/><path class="st1" d="m49.044 61.315h-.79834c-.09979 0-.19959 0-.29938-.19959-.39917-1.1975-.69855-2.1954-1.0977-2.894-.29938-.59876-.79834-1.1975-1.7963-1.1975h-.69855v3.9917c0 .19959-.09979.29938-.29938.29938h-.49896c-.19959 0-.29938-.09979-.29938-.29938v-8.8816c0-.19959.09979-.29938.29938-.29938h2.395c2.2952 0 2.7942 1.3971 2.7942 2.2952 0 .99793-.59876 2.1954-2.0956 2.2952h-.09979c.79834.09979 1.3971.89814 1.6965 1.4969.09979.29938.49896 1.2973 1.0977 2.894 0 .39917-.09979.49896-.29938.49896zm-3.1934-8.3826h-1.4969v3.0936h1.3971c1.0977 0 1.7963-.59876 1.7963-1.5967-.09979-.89814-.59876-1.4969-1.6965-1.4969z"/><path class="st1" d="m52.936 61.415c-.79834 0-1.5967-.19959-2.1954-.39917-.19959-.09979-.19959-.19958-.19959-.39917l.09979-.49896c0-.19959.19959-.29938.39917-.19959.49896.19959 1.1975.39917 1.8961.39917 1.0977 0 1.7963-.59876 1.7963-1.5967 0-.89814-.59876-1.2973-1.3971-1.5967l-.69855-.29938c-.99793-.49896-2.0956-.89814-2.0956-2.4948 0-1.3971.99793-2.4948 2.7942-2.4948.59876 0 1.2973.19958 1.6965.29938.09979 0 .19958.19959.19958.39917l-.09979.49896c0 .19958-.19959.29938-.29938.19958-.49896-.09979-.89814-.29938-1.4969-.29938-1.1975 0-1.5967.49896-1.5967 1.3971 0 .79834.69855 1.1975 1.4969 1.4969l.79834.29938c.99793.39917 1.8961 1.0977 1.8961 2.5946.09979 1.3971-.89814 2.6944-2.9938 2.6944z"/><path class="st1" d="m60.021 61.315h-2.4948c-.19959 0-.29938-.09979-.29938-.29938v-.29938c0-.19959.09979-.29938.29938-.29938h.69855v-7.5843h-.69855c-.19959 0-.29938-.09979-.29938-.29938v-.29938c0-.19959.09979-.29938.29938-.29938h2.4948c.19959 0 .29938.09979.29938.29938v.29938c0 .19959-.09979.29938-.29938.29938h-.69855v7.5843h.69855c.19959 0 .29938.09979.29938.29938v.29938c0 .19959-.09979.29938-.29938.29938z"/><path class="st1" d="m66.907 52.933h-2.0956v8.0832c0 .19959-.09979.29938-.29938.29938h-.49896c-.19959 0-.29938-.09979-.29938-.29938v-8.0832h-2.0956c-.19959 0-.29938-.09979-.29938-.29938v-.49896c0-.19959.09979-.29938.29938-.29938h5.3888c.19958 0 .29938.09979.29938.29938v.49896c-.09979.19959-.29938.29938-.39917.29938z"/><path class="st1" d="m71.398 57.723v3.2932c0 .19959-.09979.29938-.29938.29938h-.49896c-.19959 0-.29938-.09979-.29938-.29938v-3.2932l-2.5946-5.5884c-.09979-.09979 0-.29938.19958-.29938h.89814c.09979 0 .19958.09979.29938.19958l1.3971 3.4927c.29938.59876.29938.99793.39917 1.4969.09979-.49896.19959-.79834.39917-1.4969l1.3971-3.393c.09979-.19959.09979-.19959.29938-.19959h.79834c.09979 0 .19959.09979.09979.29938z"/><path class="st1" d="m81.576 61.415c-2.0956 0-3.1934-1.4969-3.1934-4.7901s1.0977-4.7901 3.1934-4.7901c2.0956 0 3.1934 1.4969 3.1934 4.7901-.09979 3.2932-1.1975 4.7901-3.1934 4.7901zm-.09979-8.682c-1.7963 0-1.9959 1.9959-1.9959 3.8919 0 2.6944.59876 3.7921 1.9959 3.7921 1.4969 0 1.9959-1.4969 1.9959-3.7921 0-2.0956-.29938-3.8919-1.9959-3.8919z"/><path class="st1" d="m91.556 52.933h-3.2932v2.894h2.9938c.19959 0 .29938.09979.29938.29938v.39917c0 .19958-.09979.29938-.29938.29938h-2.9938v4.1913c0 .19959-.09979.29938-.29938.29938h-.49896c-.19959 0-.29938-.09979-.29938-.29938v-8.8816c0-.19959.09979-.29938.29938-.29938h4.1913c.19958 0 .29938.09979.29938.29938v.49896c-.09979.19959-.19959.29938-.39917.29938z"/><path class="st1" d="m101.34 52.933h-2.0957v8.0832c0 .19959-.09979.29938-.29938.29938h-.49896c-.19959 0-.29938-.09979-.29938-.29938v-8.0832h-2.0956c-.19959 0-.29938-.09979-.29938-.29938v-.49896c0-.19959.09979-.29938.29938-.29938h5.3888c.19959 0 .29938.09979.29938.29938v.49896c-.0998.19959-.19959.29938-.39917.29938z"/><path class="st1" d="m107.92 61.315h-4.3909c-.19959 0-.29938-.09979-.29938-.29938v-8.8816c0-.19959.0998-.29938.29938-.29938h4.2911c.19959 0 .29938.09979.29938.29938v.49896c0 .19959-.0998.29938-.29938.29938h-3.393v2.894h3.0936c.19959 0 .29938.09979.29938.29938v.39917c0 .19958-.0998.29938-.29938.29938h-3.0936v3.393h3.4928c.19958 0 .29937.09979.29937.29938v.49896c0 .19959-.19958.29938-.29937.29938z"/><path class="st1" d="m115.21 61.016c-.39917.19959-.89813.39917-1.6965.39917-2.2952 0-3.5925-1.7963-3.5925-4.8898 0-2.9938 1.4969-4.6903 3.5925-4.6903.49897 0 1.0977.09979 1.5967.39917.0998.09979.19958.29938.0998.39917l-.19958.39917c-.0998.09979-.19959.19958-.39917.09979-.29938-.19958-.59876-.29938-1.0977-.29938-1.5967 0-2.4948 1.0977-2.4948 3.6923s.99793 3.7921 2.395 3.7921c.39917 0 .89814-.19958 1.1975-.29938.19958-.09979.29937 0 .39917.09979l.29937.49896c.0998.19959 0 .29938-.0998.39917z"/><path class="st1" d="m122.99 61.315h-.49896c-.19959 0-.29938-.09979-.29938-.29938v-4.1913h-3.5925v4.1913c0 .19959-.0998.29938-.29938.29938h-.49896c-.19959 0-.29938-.09979-.29938-.29938v-8.8816c0-.19959.0998-.29938.29938-.29938h.49896c.19959 0 .29938.09979.29938.29938v3.5925h3.5925v-3.5925c0-.19959.0998-.29938.29938-.29938h.49896c.19959 0 .29938.09979.29938.29938v8.8816c0 .19959-.0998.29938-.29938.29938z"/><path class="st1" d="m132.07 61.315h-.99793c-.0998 0-.29938-.09979-.29938-.19959l-2.9938-6.6861c-.29938-.59876-.49897-1.1975-.59876-1.7963 0 .59876.0998 1.4969.0998 1.8961v6.4865c0 .09979-.0998.29938-.29937.29938h-.49897c-.19958 0-.29938-.09979-.29938-.29938v-8.8816c0-.19959.0998-.29938.29938-.29938h1.0977c.19959 0 .29938.09979.29938.19958l2.894 6.6861c.29938.59876.39918 1.2973.59876 1.6965 0-.59876-.0998-1.2973-.0998-1.8961v-6.3867c0-.19959.0998-.29938.29938-.29938h.49896c.19959 0 .29938.09979.29938.29938v8.8816c0 .19959-.19959.29938-.29938.29938z"/><path class="st1" d="m137.96 61.415c-2.0956 0-3.1934-1.4969-3.1934-4.7901s1.0977-4.7901 3.1934-4.7901 3.1934 1.4969 3.1934 4.7901c-.0998 3.2932-1.1975 4.7901-3.1934 4.7901zm-.0998-8.682c-1.7963 0-1.9959 1.9959-1.9959 3.8919 0 2.6944.59876 3.7921 1.9959 3.7921 1.4969 0 1.9958-1.4969 1.9958-3.7921 0-2.0956-.29938-3.8919-1.9958-3.8919z"/><path class="st1" d="m147.74 61.315h-3.8919c-.19959 0-.29938-.09979-.29938-.29938v-8.8816c0-.19959.0998-.29938.29938-.29938h.49896c.19959 0 .29938.09979.29938.29938v8.0832h3.0936c.19958 0 .29937.09979.29937.29938v.49896c-.0998.19959-.19958.29938-.29937.29938z"/><path class="st1" d="m152.33 61.415c-2.0956 0-3.1934-1.4969-3.1934-4.7901s1.0977-4.7901 3.1934-4.7901 3.1934 1.4969 3.1934 4.7901-1.0977 4.7901-3.1934 4.7901zm0-8.682c-1.7963 0-1.9959 1.9959-1.9959 3.8919 0 2.6944.59876 3.7921 1.9959 3.7921 1.4969 0 1.9958-1.4969 1.9958-3.7921-.0998-2.0956-.39917-3.8919-1.9958-3.8919z"/><path class="st1" d="m163.01 61.116c-.49897.19959-1.3971.29938-2.0956.29938-2.395 0-3.5925-1.5967-3.5925-4.7901 0-2.9938 1.3971-4.6903 3.7921-4.6903.69855 0 1.4969.19959 2.0956.49896.19959.09979.19959.19958.0998.39917l-.19959.49896c0 .09979-.19958.19959-.29938.09979-.49896-.29938-.99792-.39917-1.6965-.39917-1.7963 0-2.5946 1.1975-2.5946 3.6923 0 2.6944.99793 3.6923 2.6944 3.6923.39917 0 .79834-.09979 1.1975-.19958v-3.1934h-1.4969c-.19959 0-.29938-.09979-.29938-.29938v-.49896c0-.19958.0998-.29938.29938-.29938h2.2952c.19959 0 .29938.09979.29938.29938v4.3909c-.0998.19959-.19958.39917-.49896.49896z"/><path class="st1" d="m168.7 57.723v3.2932c0 .19959-.0998.29938-.29938.29938h-.49896c-.19959 0-.29938-.09979-.29938-.29938v-3.2932l-2.5946-5.5884c-.0998-.09979 0-.29938.19958-.29938h.89814c.0998 0 .19958.09979.29938.19958l1.3971 3.4927c.29937.59876.29937.99793.39917 1.4969.0998-.49896.19958-.79834.39917-1.4969l1.3971-3.393c.0998-.19959.0998-.19959.29938-.19959h.79834c.0998 0 .19958.09979.0998.29938z"/></g><g transform="matrix(1.3549 0 0 1.3549 .38797 1.0663)" fill="#000" stroke-width=".99793"><path class="st1" d="m64.412 88.858c-.39917.19958-.89814.39917-1.6965.39917-2.2952 0-3.5925-1.7963-3.5925-4.8898 0-2.9938 1.4969-4.6903 3.5925-4.6903.49896 0 1.0977.09979 1.5967.39917.09979.09979.19959.29938.09979.39917l-.19959.39917c-.09979.09979-.19958.19959-.39917.09979-.29938-.19959-.59876-.29938-1.0977-.29938-1.5967 0-2.4948 1.0977-2.4948 3.6923s.99793 3.7921 2.395 3.7921c.39917 0 .89814-.19959 1.1975-.29938.19959-.09979.29938 0 .39917.09979l.29938.49896c.09979.19959 0 .39917-.09979.39917z"/><path class="st1" d="m72.196 89.158h-.49896c-.19959 0-.29938-.09979-.29938-.29938v-4.1913h-3.5925v4.1913c0 .19958-.09979.29938-.29938.29938h-.49896c-.19959 0-.29938-.09979-.29938-.29938v-8.8816c0-.19958.09979-.29938.29938-.29938h.49896c.19959 0 .29938.09979.29938.29938v3.5925h3.5925v-3.5925c0-.19958.09979-.29938.29938-.29938h.49896c.19959 0 .29938.09979.29938.29938v8.8816c0 .19958-.09979.29938-.29938.29938z"/><path class="st1" d="m80.179 89.158h-4.3909c-.19959 0-.29938-.09979-.29938-.29938v-8.8816c0-.19958.09979-.29938.29938-.29938h4.2911c.19959 0 .29938.09979.29938.29938v.49896c0 .19958-.09979.29938-.29938.29938h-3.393v2.894h3.0936c.19959 0 .29938.09979.29938.29938v.39917c0 .19959-.09979.29938-.29938.29938h-3.0936v3.393h3.4927c.19958 0 .29938.09979.29938.29938v.49896c-.09979.19958-.19958.29938-.29938.29938z"/><path class="st1" d="m90.358 89.158h-.69855c-.19959 0-.29938-.09979-.29938-.19959l-.39917-6.5863v-1.8961c-.09979.39917-.09979 1.2973-.29938 1.8961l-1.5967 5.5884c-.09979.19959-.09979.29938-.29938.29938h-.79834c-.19959 0-.19959-.09979-.29938-.29938l-1.4969-5.5884c-.19959-.59876-.19959-1.3971-.29938-1.8961v1.8961l-.39917 6.5863c0 .19959-.09979.29938-.19958.29938h-.69855c-.09979 0-.19959-.09979-.19959-.29938l.69855-8.8816c0-.19958.19959-.29938.29938-.29938h1.0977c.09979 0 .29938.09979.29938.19958l1.4969 5.8878c.09979.39917.19958 1.0977.19958 1.5967 0-.49896.09979-1.0977.19959-1.5967l1.4969-5.8878c0-.09979.19959-.19958.29938-.19958h1.0977c.19959 0 .29938.09979.29938.29938l.69855 8.8816c0 .09979-.09979.19959-.19958.19959z"/><path class="st1" d="m98.841 89.158h-.99793c-.09979 0-.29938-.09979-.29938-.19959l-2.9938-6.6861c-.29938-.59876-.49896-1.1975-.59876-1.7963 0 .59876.09979 1.4969.09979 1.8961v6.4865c0 .09979-.09979.29938-.29938.29938h-.49896c-.19959 0-.29938-.09979-.29938-.29938v-8.8816c0-.19958.09979-.29938.29938-.29938h1.0977c.19959 0 .29938.09979.29938.19959l2.894 6.6861c.29938.59876.39917 1.2973.59876 1.6965 0-.59876-.09979-1.2973-.09979-1.8961v-6.3867c0-.19958.09979-.29938.29938-.29938h.49896c.19959 0 .29938.09979.29938.29938v8.8816c0 .19958-.19959.29938-.29938.29938z"/><path class="st1" d="m103.83 89.158h-2.4948c-.19959 0-.29938-.09979-.29938-.29938v-.29938c0-.19959.0998-.29938.29938-.29938h.69855v-7.5843h-.69855c-.19959 0-.29938-.09979-.29938-.29938v-.29938c0-.19958.0998-.29938.29938-.29938h2.4948c.19958 0 .29938.09979.29938.29938v.29938c0 .19958-.0998.29938-.29938.29938h-.69855v7.5843h.69855c.19958 0 .29938.09979.29938.29938v.29938c0 .19958-.0998.29938-.29938.29938z"/><path class="st1" d="m110.72 80.775h-2.0956v8.0832c0 .19958-.0998.29938-.29938.29938h-.49897c-.19958 0-.29938-.09979-.29938-.29938v-8.0832h-2.0956c-.19958 0-.29937-.09979-.29937-.29938v-.49896c0-.19958.0998-.29938.29937-.29938h5.3888c.19958 0 .29938.09979.29938.29938v.49896c-.0998.19958-.19959.29938-.39918.29938z"/><path class="st1" d="m117.2 89.158h-5.0894c-.19958 0-.29937-.09979-.29937-.29938v-.59876c0-.19959.0998-.29938.0998-.39917l3.7921-6.6861c.0998-.19958.39917-.49896.49896-.59876-.19959.09979-.49896.09979-.79834.09979h-3.1934c-.19959 0-.29938-.09979-.29938-.29938v-.49896c0-.19959.0998-.29938.29938-.29938h4.79c.19959 0 .29938.09979.29938.29938v.49896c0 .19958-.0998.29938-.19958.49896l-3.7921 6.5863c-.19959.29938-.39917.49896-.49897.59876.19959 0 .49897-.09979.69855-.09979h3.5926c.19958 0 .29937.09979.29937.29938v.49896c.0998.29938 0 .39917-.19958.39917z"/></g><g transform="matrix(1.3662 0 0 1.3662 6.2389 -.52274)" fill="#000"><path class="st1" d="m2.5 73.8h-1.8c-.1 0-.2-.1-.2-.2v-.2c0-.1.1-.2.2-.2h.5v-5.3h-.5c-.1 0-.2-.1-.2-.2v-.2c0-.1.1-.2.2-.2h1.8c.1 0 .2.1.2.2v.2c0 .1-.1.2-.2.2h-.5v5.3h.5c.1 0 .2.1.2.2v.2c0 .1-.1.2-.2.2z"/><path class="st1" d="m8.3 73.8h-.7c-.1 0-.2-.1-.2-.2l-2.1-4.6c-.2-.4-.3-.9-.4-1.3 0 .4.1 1 .1 1.3v4.5c0 .1-.1.2-.2.2h-.4c-.1 0-.2-.1-.2-.2v-6.2c0-.1.1-.2.2-.2h.7c.1 0 .2 0 .2.1l2 4.6c.2.4.3.9.4 1.2 0-.4-.1-.9-.1-1.3v-4.4c0-.1.1-.2.2-.2h.3c.1 0 .2.1.2.2v6.2c.2.3.1.3 0 .3z"/><path class="st1" d="m16.7 68h-1.5v5.6c0 .1-.1.2-.2.2h-.4c-.1 0-.2-.1-.2-.2v-5.6h-1.4c-.1 0-.2-.1-.2-.2v-.3c0-.1.1-.2.2-.2h3.8c.1 0 .2.1.2.2v.3c-.1.1-.2.2-.3.2z"/><path class="st1" d="m22 73.8h-.4c-.1 0-.2-.1-.2-.2v-2.9h-2.5v2.9c0 .1-.1.2-.2.2h-.4c-.1 0-.2-.1-.2-.2v-6.2c0-.1.1-.2.2-.2h.4c.1 0 .2.1.2.2v2.6h2.5v-2.5c0-.1.1-.2.2-.2h.4c.1 0 .2.1.2.2v6.2c0 .1-.1.1-.2.1z"/><path class="st1" d="m27.6 73.8h-3c-.1 0-.2-.1-.2-.2v-6.2c0-.1.1-.2.2-.2h3c.1 0 .2.1.2.2v.3c0 .1-.1.2-.2.2h-2.4v2h2.2c.1 0 .2.1.2.2v.3c0 .1-.1.2-.2.2h-2.2v2.4h2.5c.1 0 .2.1.2.2v.4c-.1.2-.2.2-.3.2z"/><path class="st1" d="m35.7 73.8h-3c-.1 0-.2-.1-.2-.2v-6.2c0-.1.1-.2.2-.2h3c.1 0 .2.1.2.2v.3c0 .1-.1.2-.2.2h-2.4v2h2.2c.1 0 .2.1.2.2v.3c0 .1-.1.2-.2.2h-2.2v2.4h2.5c.1 0 .2.1.2.2v.4c0 .2-.1.2-.3.2z"/><path class="st1" d="m39.7 73.9c-1.4 0-2-.8-2-2v-4.4c0-.1.1-.2.2-.2h.4c.1 0 .2.1.2.2v4.2c0 .9.3 1.5 1.2 1.5.7 0 1.3-.2 1.3-1.4v-4.3c0-.1.1-.2.2-.2h.4c.1 0 .2.1.2.2v4.4c-.1 1.3-.8 2-2.1 2z"/><path class="st1" d="m47.9 73.8h-.6c-.1 0-.1 0-.2-.1-.3-.9-.5-1.5-.7-2-.2-.4-.5-.8-1.3-.8h-.5v2.8c0 .1-.1.2-.2.2h-.4c-.1 0-.2-.1-.2-.2v-6.2c0-.1.1-.2.2-.2h1.7c1.6 0 1.9 1 1.9 1.6 0 .7-.4 1.5-1.5 1.6h-.1c.6.1 1 .6 1.2 1.1.1.2.4.9.8 2 .1.1.1.2-.1.2zm-2.2-5.8h-1.1v2.1h.9c.8 0 1.3-.4 1.3-1.1.1-.6-.3-1-1.1-1z"/><path class="st1" d="m51.5 73.9c-1.5 0-2.2-1-2.2-3.3s.8-3.3 2.2-3.3c1.5 0 2.2 1.1 2.2 3.3 0 2.3-.8 3.3-2.2 3.3zm0-6c-1.3 0-1.4 1.4-1.4 2.7 0 1.8.4 2.6 1.4 2.6s1.4-1 1.4-2.6c-.1-1.5-.3-2.7-1.4-2.7z"/><path class="st1" d="m57 71.1h-.8v2.5c0 .1-.1.2-.2.2h-.4c-.1 0-.2-.1-.2-.2v-6.2c0-.1.1-.2.2-.2h1.4c1.3 0 2.1.8 2.1 1.9 0 1.2-.8 2-2.1 2zm.1-3.1h-.8v2.4h.8c.8 0 1.2-.5 1.2-1.3-.1-.7-.4-1.1-1.2-1.1z"/><path class="st1" d="m63.9 73.8h-3c-.1 0-.2-.1-.2-.2v-6.2c0-.1.1-.2.2-.2h3c.1 0 .2.1.2.2v.3c0 .1-.1.2-.2.2h-2.4v2h2.2c.1 0 .2.1.2.2v.3c0 .1-.1.2-.2.2h-2.2v2.4h2.5c.1 0 .2.1.2.2v.4c-.1.2-.2.2-.3.2z"/><path class="st1" d="m69.9 73.8h-.5c-.1 0-.2-.1-.3-.2l-.5-1.6h-2.2l-.4 1.7c0 .1-.1.2-.2.2h-.5c-.1 0-.2-.1-.1-.2l1.8-6.1c0-.1.2-.2.3-.2h.6c.1 0 .2.1.3.2l1.9 6.1c-.1 0-.1.1-.2.1zm-2.2-5.3c-.1-.2-.1-.5-.1-.8 0 .3-.1.5-.1.8l-.8 2.8h1.8z"/><path class="st1" d="m75.5 73.8h-.7c-.1 0-.2-.1-.2-.2l-2.1-4.6c-.2-.4-.3-.9-.4-1.3 0 .4.1 1 .1 1.3v4.5c0 .1-.1.2-.2.2h-.3c-.1 0-.2-.1-.2-.2v-6.2c0-.1.1-.2.2-.2h.7c.1 0 .2 0 .2.1l2 4.6c.2.4.3.9.4 1.2 0-.4-.1-.9-.1-1.3v-4.4c0-.1.1-.2.2-.2h.3c.1 0 .2.1.2.2v6.2c.1.3 0 .3-.1.3z"/><path class="st1" d="m84 73.6c-.3.1-.6.3-1.2.3-1.6 0-2.5-1.2-2.5-3.4 0-2.1 1-3.3 2.5-3.3.4 0 .8 0 1.1.3.1.1.1.2.1.3l-.2.3c0 .1-.1.1-.3.1-.2-.1-.4-.2-.8-.2-1.1 0-1.7.8-1.7 2.6s.7 2.6 1.7 2.6c.3 0 .6-.1.8-.2.1-.1.2 0 .2.1l.2.4c.2 0 .2.1.1.1z"/><path class="st1" d="m89.7 73.8h-.5c-.1 0-.2-.1-.3-.2l-.4-1.6h-2.2l-.4 1.6c0 .1-.1.2-.2.2h-.5c-.1 0-.2-.1-.1-.2l1.8-6.1c0-.1.2-.2.3-.2h.6c.1 0 .2.1.3.2l1.9 6.1c-.1.1-.2.2-.3.2zm-2.2-5.3c-.1-.2-.1-.5-.1-.8 0 .3-.1.5-.1.8l-.8 2.8h1.8z"/><path class="st1" d="m92.8 71.1h-.8v2.5c0 .1-.1.2-.2.2h-.4c-.1 0-.2-.1-.2-.2v-6.2c0-.1.1-.2.2-.2h1.3c1.3 0 2.1.8 2.1 1.9.1 1.2-.7 2-2 2zm.1-3.1h-.9v2.4h.8c.8 0 1.2-.5 1.2-1.3 0-.7-.3-1.1-1.1-1.1z"/><path class="st1" d="m97.7 73.8h-1.7c-.1 0-.2-.1-.2-.2v-.2c0-.1.1-.2.2-.2h.5v-5.3h-.5c-.1 0-.2-.1-.2-.2v-.2c0-.1.1-.2.2-.2h1.8c.1 0 .2.1.2.2v.2c0 .1-.1.2-.2.2h-.5v5.3h.5c.1 0 .2.1.2.2v.2c-.1.1-.1.2-.3.2z"/><path class="st1" d="m102.7 68h-1.5v5.6c0 .1-.1.2-.2.2h-.4c-.1 0-.2-.1-.2-.2v-5.6h-1.5c-.1 0-.2-.1-.2-.2v-.3c0-.1.1-.2.2-.2h3.8c.1 0 .2.1.2.2v.3c0 .1-.1.2-.2.2z"/><path class="st1" d="m108.1 73.8h-.5c-.1 0-.2-.1-.3-.2l-.5-1.6h-2.2l-.4 1.6c0 .1-.1.2-.2.2h-.5c-.1 0-.2-.1-.1-.2l1.8-6.1c0-.1.2-.2.3-.2h.6c.1 0 .2.1.3.2l1.9 6.1c-.1.1-.1.2-.2.2zm-2.2-5.3c-.1-.2-.1-.5-.1-.8 0 .3-.1.5-.1.8l-.8 2.8h1.8z"/><path class="st1" d="m112.6 73.8h-2.7c-.1 0-.2-.1-.2-.2v-6.2c0-.1.1-.2.2-.2h.4c.1 0 .2.1.2.2v5.6h2.2c.1 0 .2.1.2.2v.3c-.1.3-.2.3-.3.3z"/><path class="st1" d="m118.8 73.9c-1.5 0-2.2-1-2.2-3.3s.8-3.3 2.2-3.3c1.5 0 2.2 1.1 2.2 3.3 0 2.3-.8 3.3-2.2 3.3zm0-6c-1.3 0-1.4 1.4-1.4 2.7 0 1.8.4 2.6 1.4 2.6s1.4-1 1.4-2.6c0-1.5-.3-2.7-1.4-2.7z"/><path class="st1" d="m125.9 68h-2.3v2h2.1c.1 0 .2.1.2.2v.3c0 .1-.1.2-.2.2h-2.1v2.9c0 .1-.1.2-.2.2h-.4c-.1 0-.2-.1-.2-.2v-6.2c0-.1.1-.2.2-.2h2.9c.1 0 .2.1.2.2v.3c0 .2-.1.3-.2.3z"/><path class="st1" d="m133.7 73.6c-.3.1-.6.3-1.2.3-1.6 0-2.5-1.2-2.5-3.4 0-2.1 1-3.3 2.5-3.3.4 0 .8 0 1.1.3.1.1.1.2.1.3l-.2.3c0 .1-.1.1-.3.1-.2-.1-.4-.2-.8-.2-1.1 0-1.7.8-1.7 2.6s.7 2.6 1.7 2.6c.3 0 .6-.1.8-.2.1-.1.2 0 .2.1l.2.4c.3 0 .2.1.1.1z"/><path class="st1" d="m137.4 73.9c-1.4 0-2-.8-2-2v-4.4c0-.1.1-.2.2-.2h.4c.1 0 .2.1.2.2v4.2c0 .9.3 1.5 1.2 1.5.7 0 1.3-.2 1.3-1.4v-4.3c0-.1.1-.2.2-.2h.4c.1 0 .2.1.2.2v4.4c0 1.3-.7 2-2.1 2z"/><path class="st1" d="m144.6 73.8h-2.7c-.1 0-.2-.1-.2-.2v-6.2c0-.1.1-.2.2-.2h.4c.1 0 .2.1.2.2v5.6h2.2c.1 0 .2.1.2.2v.3c-.1.3-.2.3-.3.3z"/><path class="st1" d="m149.3 68h-1.5v5.6c0 .1-.1.2-.2.2h-.4c-.1 0-.2-.1-.2-.2v-5.6h-1.5c-.1 0-.2-.1-.2-.2v-.3c0-.1.1-.2.2-.2h3.8c.1 0 .2.1.2.2v.3c0 .1-.1.2-.2.2z"/><path class="st1" d="m152.7 73.9c-1.4 0-2-.8-2-2v-4.4c0-.1.1-.2.2-.2h.4c.1 0 .2.1.2.2v4.2c0 .9.3 1.5 1.2 1.5.7 0 1.3-.2 1.3-1.4v-4.3c0-.1.1-.2.2-.2h.4c.1 0 .2.1.2.2v4.4c-.1 1.3-.8 2-2.1 2z"/><path class="st1" d="m160.9 73.8h-.6c-.1 0-.1 0-.2-.1-.3-.9-.5-1.5-.7-2-.2-.4-.5-.8-1.3-.8h-.5v2.8c0 .1-.1.2-.2.2h-.4c-.1 0-.2-.1-.2-.2v-6.2c0-.1.1-.2.2-.2h1.7c1.6 0 1.9 1 1.9 1.6 0 .7-.4 1.5-1.5 1.6h-.1c.6.1 1 .6 1.2 1.1.1.2.4.9.8 2 .1.1.1.2-.1.2zm-2.2-5.8h-1.1v2.1h.9c.8 0 1.3-.4 1.3-1.1 0-.6-.4-1-1.1-1z"/><path class="st1" d="m165.8 73.8h-3.1c-.1 0-.2-.1-.2-.2v-6.2c0-.1.1-.2.2-.2h3c.1 0 .2.1.2.2v.3c0 .1-.1.2-.2.2h-2.4v2h2.2c.1 0 .2.1.2.2v.3c0 .1-.1.2-.2.2h-2.2v2.4h2.5c.1 0 .2.1.2.2v.4c.1.2 0 .2-.2.2z"/></g><g transform="matrix(1.3646 0 0 1.3646 18.077 0)" fill="#000"><path class="st1" d="m93.3 4.1c.7 0 1.3-.6 1.3-1.3s-.6-1.3-1.3-1.3-1.3.6-1.3 1.3.6 1.3 1.3 1.3z"/><path class="st1" d="m98.2 36.5h-2.7c-.5 0-.8-.4-.8-.9v-2.7c0-.6.4-1 1-1h2.6v-3.1h-2.7c-.6 0-.9-.3-.9-.9v-2.7c0-.6.3-.9.9-.9h2.7v-3.1h-2.7c-.5 0-.9-.4-.9-.9v-2.8c0-.6.4-.9.9-.9h2.7v-3.1h-2.7c-.6 0-.9-.4-.9-1v-2.6c0-.6.3-1 .9-1h2.6v-2.7h-3.6v-1.2h-40v1.2h-3.6v2.9h2.7c.5 0 .9.4.9.9v2.7c0 .6-.3.9-.9.9h-2.7v3.1h2.7c.5 0 .9.4.9.9v2.8c0 .5-.3.9-.8.9h-2.8v3.1h2.7c.5 0 .8.4.8.9v2.8c0 .5-.3.9-.9.9h-2.7v3h2.6c.6 0 .9.4.9.9v2.6c0 .7-.3 1-1 1.1h-2.5v3h3.6v2.1h40.1v-2.1h3.6zm-13.7-26.4c0-.6.4-.9 1-1h5.5c.6 0 1 .4 1 1v2.5c0 .6-.4 1.1-1 1.1h-5.5c-.6 0-1-.4-1-1zm0 7.7c0-.7.4-1 1.1-1h5.4c.6 0 1 .4 1 1v2.5c0 .6-.4 1-1.1 1h-5.3c-.7 0-1.1-.4-1.1-1.1zm-17.3-7.6c0-.7.3-1 1-1.1h12.6c.7 0 1.1.3 1.1 1.1v2.4c0 .8-.4 1.1-1.1 1.1h-12.5c-.7 0-1.1-.3-1.1-1.1zm0 7.5c0-.7.3-1 1-1h12.6c.8 0 1.1.3 1.1 1.1v2.4c0 .7-.4 1.1-1.1 1.1h-12.5c-.7 0-1.1-.4-1.1-1.1zm13.6 11.2h-12.5c-.7 0-1-.3-1-1v-2.6c0-.6.3-.9.9-.9h12.6c.9 0 1.2.3 1.2 1.2v2.2c-.1.7-.4 1.1-1.2 1.1zm1.1 4.1v2.4c0 .7-.4 1.1-1.1 1.1h-12.5c-.7 0-1.1-.4-1.1-1.1v-2.5c0-.6.4-1 1-1h12.6c.8.1 1.1.4 1.1 1.1zm-24.8-22.8c0-.7.4-1.1 1.1-1.1h5.3c.7 0 1.1.4 1.1 1.1v2.4c0 .7-.4 1.1-1.1 1.1h-5.3c-.7 0-1.1-.4-1.1-1.2zm6.4 11.1h-5.3c-.7 0-1.1-.4-1.1-1.1v-2.4c0-.7.4-1.1 1.1-1.1h5.3c.7 0 1.1.4 1.1 1.1v2.3c0 .8-.4 1.2-1.1 1.2zm1.1 4.1v2.4c0 .7-.4 1.1-1.1 1.1h-5.4c-.6 0-1.1-.4-1.1-1.1v-2.4c0-.6.4-1.1 1-1.1h5.4c.8.1 1.2.5 1.2 1.1zm-7.5 7.6c0-.7.4-1.1 1.1-1.1h5.4c.6 0 1 .4 1.1 1v2.5c0 .7-.4 1.1-1.1 1.1h-5.3c-.7 0-1.1-.4-1.1-1.1-.1-.8-.1-1.6-.1-2.4zm34.4 7.1h-34c-.4-.1-.5-.2-.4-.6h34.9c0 .4-.1.6-.5.6zm-7-4.6v-2.5c0-.6.4-1 1-1h5.4c.6 0 1 .4 1 1.1v2.4c0 .6-.4 1.1-1 1.1h-5.4c-.6-.1-1-.5-1-1.1zm7.5-7.6c0 .6-.4.9-1 .9h-5.5c-.6 0-1-.4-1-1v-2.6c0-.5.4-1 1-1h5.6c.5 0 .9.4.9.9z"/><path class="st1" d="m83.2 4.1c.8 0 1.3-.5 1.3-1.3 0-.7-.5-1.3-1.3-1.3s-1.3.5-1.3 1.3c0 .7.6 1.3 1.3 1.3z"/><path class="st1" d="m55.9 4.1c.7 0 1.3-.6 1.3-1.3s-.6-1.3-1.3-1.3-1.3.6-1.3 1.3c-.1.7.5 1.3 1.3 1.3z"/><path class="st1" d="m65.9 4.1c.7 0 1.3-.6 1.3-1.3s-.6-1.3-1.3-1.3-1.3.6-1.3 1.3.6 1.3 1.3 1.3z"/><path class="st1" d="m79.5 3.6c-.7-1.5-1.8-2.6-3.4-3.2-.7-.3-1.4-.4-2.1-.4-1.5.2-2.7 1-3.7 2.2-.4.5-.8 1.1-1 1.8h10.3c0-.2 0-.3-.1-.4z"/><path class="st1" d="m125.8 26.7c-.4-1.1-1-2-1.7-2.8s-1.6-1.4-2.5-1.9c-.8-.4-1.7-.6-2.6-.7h-.2v3h.1c1.4.3 2.4 1 3.1 1.9.7 1 1.1 2.3 1.1 3.9v.3c0 1.7-.5 3.2-1.5 4.4s-2.5 1.7-4.5 1.7h-16v2.9h17.4c1.1 0 2.1-.2 3-.6 1-.4 1.8-1 2.5-1.8s1.3-1.7 1.7-2.8.6-2.3.6-3.7v-.4c.2-1.1 0-2.3-.5-3.4z"/><rect class="st1" x="110.1" y="13.7" width="15.4" height="3"/><path class="st1" d="m125.7 9.1v-2.9h-24.6v9.3c0 1.2.2 2.3.6 3.4s1 2 1.7 2.8c.6.6 1.2 1.2 2 1.6.2.1.3.2.5.3.8.4 1.7.6 2.6.7h.2v-3h-.1c-1.3-.3-2.2-.9-2.9-1.7v-.1c0-.1-.1-.1-.1-.2-.7-1-1.1-2.3-1.1-3.9v-6.3z"/><rect class="st1" x="101.2" y="28.9" width="16.3" height="3.1"/><path class="st1" d="m47.7 18.9c-.4 1.1-1 2-1.7 2.8s-1.6 1.4-2.5 1.9c-.8.4-1.7.6-2.6.7h-.2v-3h.1c1.4-.3 2.4-1 3.1-1.9.7-1 1.1-2.3 1.1-3.9v-.3c0-1.7-.5-3.2-1.5-4.4s-2.5-1.7-4.5-1.7h-15v-2.9h16.4c1.1 0 2.1.2 3 .6 1 .4 1.8 1 2.5 1.8s1.3 1.7 1.7 2.8.6 2.3.6 3.7v.4c.1 1.2-.1 2.3-.5 3.4z"/><rect class="st1" x="24" y="13.7" width="15.4" height="3.1"/><rect class="st1" x="32" y="28.9" width="16.1" height="3"/><path class="st1" d="m48 36.5v2.9h-25v-9.3c0-1.2.2-2.3.6-3.4s1-2 1.7-2.8c.6-.6 1.2-1.2 2-1.6.2-.1.3-.2.5-.3.8-.4 1.7-.6 2.6-.7h.2v3h-.1c-1.3.3-2.2.9-2.9 1.7v.1c0 .1-.1.1-.1.2-.7 1-1.1 2.3-1.1 3.9v6.4h21.6z"/></g></svg>