<?xml version="1.0" encoding="UTF-8"?>
<svg xmlns="http://www.w3.org/2000/svg" xmlns:xlink="http://www.w3.org/1999/xlink" width="206pt" height="196pt" viewBox="0 0 206 196" version="1.1">
<g id="surface142572">
<path style=" stroke:none;fill-rule:evenodd;fill:rgb(0%,0%,0%);fill-opacity:1;" d="M 106.757812 3.839844 C 106.757812 -0.160156 100.757812 -0.160156 100.757812 3.839844 C 100.757812 7.839844 106.757812 7.839844 106.757812 3.839844 Z M 106.757812 3.839844 "/>
<path style=" stroke:none;fill-rule:evenodd;fill:rgb(0%,0%,0%);fill-opacity:1;" d="M 45.515625 191.988281 C 45.515625 187.988281 39.515625 187.988281 39.515625 191.988281 C 39.515625 195.988281 45.515625 195.988281 45.515625 191.988281 Z M 45.515625 191.988281 "/>
<path style=" stroke:none;fill-rule:evenodd;fill:rgb(0%,0%,0%);fill-opacity:1;" d="M 168 191.988281 C 168 187.988281 162 187.988281 162 191.988281 C 162 195.988281 168 195.988281 168 191.988281 Z M 168 191.988281 "/>
<path style=" stroke:none;fill-rule:evenodd;fill:rgb(0%,0%,0%);fill-opacity:1;" d="M 7.671875 75.625 C 7.671875 71.625 1.671875 71.625 1.671875 75.625 C 1.671875 79.625 7.671875 79.625 7.671875 75.625 Z M 7.671875 75.625 "/>
<path style=" stroke:none;fill-rule:evenodd;fill:rgb(0%,0%,0%);fill-opacity:1;" d="M 205.847656 75.625 C 205.847656 71.625 199.847656 71.625 199.847656 75.625 C 199.847656 79.625 205.847656 79.625 205.847656 75.625 Z M 205.847656 75.625 "/>
<path style="fill:none;stroke-width:0.4;stroke-linecap:butt;stroke-linejoin:round;stroke:rgb(0%,0%,0%);stroke-opacity:1;stroke-miterlimit:10;" d="M 115.515625 127.011719 L 77.671875 243.375 L 176.757812 315.160156 L 275.847656 243.375 L 238 127.011719 L 115.515625 127.011719 " transform="matrix(1,0,0,-1,-73,319)"/>
<path style=" stroke:none;fill-rule:evenodd;fill:rgb(0%,0%,0%);fill-opacity:1;" d="M 106.757812 48.5 C 106.757812 44.5 100.757812 44.5 100.757812 48.5 C 100.757812 52.5 106.757812 52.5 106.757812 48.5 Z M 106.757812 48.5 "/>
<path style=" stroke:none;fill-rule:evenodd;fill:rgb(0%,0%,0%);fill-opacity:1;" d="M 71.84375 155.769531 C 71.84375 151.769531 65.84375 151.769531 65.84375 155.769531 C 65.84375 159.769531 71.84375 159.769531 71.84375 155.769531 Z M 71.84375 155.769531 "/>
<path style=" stroke:none;fill-rule:evenodd;fill:rgb(0%,0%,0%);fill-opacity:1;" d="M 141.675781 155.769531 C 141.675781 151.769531 135.675781 151.769531 135.675781 155.769531 C 135.675781 159.769531 141.675781 159.769531 141.675781 155.769531 Z M 141.675781 155.769531 "/>
<path style=" stroke:none;fill-rule:evenodd;fill:rgb(0%,0%,0%);fill-opacity:1;" d="M 50.265625 89.425781 C 50.265625 85.425781 44.265625 85.425781 44.265625 89.425781 C 44.265625 93.425781 50.265625 93.425781 50.265625 89.425781 Z M 50.265625 89.425781 "/>
<path style=" stroke:none;fill-rule:evenodd;fill:rgb(0%,0%,0%);fill-opacity:1;" d="M 163.253906 89.425781 C 163.253906 85.425781 157.253906 85.425781 157.253906 89.425781 C 157.253906 93.425781 163.253906 93.425781 163.253906 89.425781 Z M 163.253906 89.425781 "/>
<path style="fill:none;stroke-width:0.4;stroke-linecap:butt;stroke-linejoin:round;stroke:rgb(0%,0%,0%);stroke-opacity:1;stroke-miterlimit:10;" d="M 176.757812 270.5 L 141.84375 163.230469 L 233.253906 229.574219 L 120.265625 229.574219 L 211.675781 163.230469 L 176.757812 270.5 " transform="matrix(1,0,0,-1,-73,319)"/>
<path style="fill:none;stroke-width:0.4;stroke-linecap:butt;stroke-linejoin:round;stroke:rgb(0%,0%,0%);stroke-opacity:1;stroke-miterlimit:10;" d="M 176.757812 270.5 L 176.757812 315.160156 " transform="matrix(1,0,0,-1,-73,319)"/>
<path style="fill:none;stroke-width:0.4;stroke-linecap:butt;stroke-linejoin:round;stroke:rgb(0%,0%,0%);stroke-opacity:1;stroke-miterlimit:10;" d="M 120.265625 229.574219 L 77.671875 243.378906 " transform="matrix(1,0,0,-1,-73,319)"/>
<path style="fill:none;stroke-width:0.4;stroke-linecap:butt;stroke-linejoin:round;stroke:rgb(0%,0%,0%);stroke-opacity:1;stroke-miterlimit:10;" d="M 115.515625 127.011719 L 141.84375 163.230469 " transform="matrix(1,0,0,-1,-73,319)"/>
<path style="fill:none;stroke-width:0.4;stroke-linecap:butt;stroke-linejoin:round;stroke:rgb(0%,0%,0%);stroke-opacity:1;stroke-miterlimit:10;" d="M 211.675781 163.230469 L 238 127.011719 " transform="matrix(1,0,0,-1,-73,319)"/>
<path style="fill:none;stroke-width:0.4;stroke-linecap:butt;stroke-linejoin:round;stroke:rgb(0%,0%,0%);stroke-opacity:1;stroke-miterlimit:10;" d="M 233.253906 229.574219 L 275.847656 243.378906 " transform="matrix(1,0,0,-1,-73,319)"/>
<path style="fill:none;stroke-width:2;stroke-linecap:round;stroke-linejoin:round;stroke:rgb(100%,0%,0%);stroke-opacity:1;stroke-miterlimit:10;" d="M 77.671875 243.375 L 176.757812 315.160156 L 275.847656 243.375 L 238 127.011719 L 115.515625 127.011719 L 141.84375 163.230469 L 233.253906 229.574219 L 120.265625 229.574219 L 211.675781 163.230469 L 176.757812 270.5 " transform="matrix(1,0,0,-1,-73,319)"/>
</g>
</svg>
