<?xml version="1.0" encoding="UTF-8"?>
<svg xmlns="http://www.w3.org/2000/svg" xmlns:xlink="http://www.w3.org/1999/xlink" width="200pt" height="190pt" viewBox="0 0 200 190" version="1.1">
<g id="surface142567">
<path style="fill:none;stroke-width:0.4;stroke-linecap:butt;stroke-linejoin:round;stroke:rgb(0%,0%,0%);stroke-opacity:1;stroke-miterlimit:10;" d="M 115.59375 152.75 L 78.980469 265.328125 L 174.84375 334.78125 L 270.710938 265.328125 L 234.097656 152.75 L 115.59375 152.75 " transform="matrix(1,0,0,-1,-75,339)"/>
<path style=" stroke:none;fill-rule:evenodd;fill:rgb(0%,0%,0%);fill-opacity:1;" d="M 102.84375 154.949219 C 102.84375 150.949219 96.84375 150.949219 96.84375 154.949219 C 96.84375 158.949219 102.84375 158.949219 102.84375 154.949219 Z M 102.84375 154.949219 "/>
<path style=" stroke:none;fill-rule:evenodd;fill:rgb(0%,0%,0%);fill-opacity:1;" d="M 102.84375 154.949219 C 102.84375 150.949219 96.84375 150.949219 96.84375 154.949219 C 96.84375 158.949219 102.84375 158.949219 102.84375 154.949219 Z M 102.84375 154.949219 "/>
<path style=" stroke:none;fill-rule:evenodd;fill:rgb(0%,0%,0%);fill-opacity:1;" d="M 132.441406 64.019531 C 132.441406 60.019531 126.441406 60.019531 126.441406 64.019531 C 126.441406 68.019531 132.441406 68.019531 132.441406 64.019531 Z M 132.441406 64.019531 "/>
<path style=" stroke:none;fill-rule:evenodd;fill:rgb(0%,0%,0%);fill-opacity:1;" d="M 73.246094 64.019531 C 73.246094 60.019531 67.246094 60.019531 67.246094 64.019531 C 67.246094 68.019531 73.246094 68.019531 73.246094 64.019531 Z M 73.246094 64.019531 "/>
<path style=" stroke:none;fill-rule:evenodd;fill:rgb(0%,0%,0%);fill-opacity:1;" d="M 150.734375 120.257812 C 150.734375 116.257812 144.734375 116.257812 144.734375 120.257812 C 144.734375 124.257812 150.734375 124.257812 150.734375 120.257812 Z M 150.734375 120.257812 "/>
<path style=" stroke:none;fill-rule:evenodd;fill:rgb(0%,0%,0%);fill-opacity:1;" d="M 54.957031 120.257812 C 54.957031 116.257812 48.957031 116.257812 48.957031 120.257812 C 48.957031 124.257812 54.957031 124.257812 54.957031 120.257812 Z M 54.957031 120.257812 "/>
<path style=" stroke:none;fill-rule:evenodd;fill:rgb(0%,0%,0%);fill-opacity:1;" d="M 102.84375 24.992188 C 102.84375 20.992188 96.84375 20.992188 96.84375 24.992188 C 96.84375 28.992188 102.84375 28.992188 102.84375 24.992188 Z M 102.84375 24.992188 "/>
<path style=" stroke:none;fill-rule:evenodd;fill:rgb(0%,0%,0%);fill-opacity:1;" d="M 55.835938 169.410156 C 55.835938 165.410156 49.835938 165.410156 49.835938 169.410156 C 49.835938 173.410156 55.835938 173.410156 55.835938 169.410156 Z M 55.835938 169.410156 "/>
<path style=" stroke:none;fill-rule:evenodd;fill:rgb(0%,0%,0%);fill-opacity:1;" d="M 149.851562 169.410156 C 149.851562 165.410156 143.851562 165.410156 143.851562 169.410156 C 143.851562 173.410156 149.851562 173.410156 149.851562 169.410156 Z M 149.851562 169.410156 "/>
<path style=" stroke:none;fill-rule:evenodd;fill:rgb(0%,0%,0%);fill-opacity:1;" d="M 26.789062 80.089844 C 26.789062 76.089844 20.789062 76.089844 20.789062 80.089844 C 20.789062 84.089844 26.789062 84.089844 26.789062 80.089844 Z M 26.789062 80.089844 "/>
<path style=" stroke:none;fill-rule:evenodd;fill:rgb(0%,0%,0%);fill-opacity:1;" d="M 178.902344 80.089844 C 178.902344 76.089844 172.902344 76.089844 172.902344 80.089844 C 172.902344 84.089844 178.902344 84.089844 178.902344 80.089844 Z M 178.902344 80.089844 "/>
<path style="fill:none;stroke-width:0.4;stroke-linecap:round;stroke-linejoin:round;stroke:rgb(0%,0%,0%);stroke-opacity:1;stroke-miterlimit:10;" d="M 78.980469 265.328125 L 98.789062 258.910156 " transform="matrix(1,0,0,-1,-75,339)"/>
<path style="fill:none;stroke-width:0.4;stroke-linecap:round;stroke-linejoin:round;stroke:rgb(0%,0%,0%);stroke-opacity:1;stroke-miterlimit:10;" d="M 115.59375 152.75 L 127.835938 169.589844 " transform="matrix(1,0,0,-1,-75,339)"/>
<path style="fill:none;stroke-width:0.4;stroke-linecap:round;stroke-linejoin:round;stroke:rgb(0%,0%,0%);stroke-opacity:1;stroke-miterlimit:10;" d="M 174.84375 334.78125 L 174.84375 314.011719 " transform="matrix(1,0,0,-1,-75,339)"/>
<path style="fill:none;stroke-width:0.4;stroke-linecap:round;stroke-linejoin:round;stroke:rgb(0%,0%,0%);stroke-opacity:1;stroke-miterlimit:10;" d="M 250.902344 258.910156 L 270.710938 265.328125 " transform="matrix(1,0,0,-1,-75,339)"/>
<path style="fill:none;stroke-width:0.4;stroke-linecap:round;stroke-linejoin:round;stroke:rgb(0%,0%,0%);stroke-opacity:1;stroke-miterlimit:10;" d="M 221.851562 169.589844 L 234.097656 152.75 " transform="matrix(1,0,0,-1,-75,339)"/>
<path style="fill:none;stroke-width:0.4;stroke-linecap:round;stroke-linejoin:round;stroke:rgb(0%,0%,0%);stroke-opacity:1;stroke-miterlimit:10;" d="M 174.84375 197.316406 L 174.84375 184.050781 " transform="matrix(1,0,0,-1,-75,339)"/>
<path style="fill:none;stroke-width:0.4;stroke-linecap:round;stroke-linejoin:round;stroke:rgb(0%,0%,0%);stroke-opacity:1;stroke-miterlimit:10;" d="M 139.609375 222.84375 L 126.957031 218.742188 " transform="matrix(1,0,0,-1,-75,339)"/>
<path style="fill:none;stroke-width:0.4;stroke-linecap:round;stroke-linejoin:round;stroke:rgb(0%,0%,0%);stroke-opacity:1;stroke-miterlimit:10;" d="M 153.066406 264.222656 L 145.246094 274.980469 " transform="matrix(1,0,0,-1,-75,339)"/>
<path style="fill:none;stroke-width:0.4;stroke-linecap:round;stroke-linejoin:round;stroke:rgb(0%,0%,0%);stroke-opacity:1;stroke-miterlimit:10;" d="M 196.621094 264.222656 L 204.441406 274.980469 " transform="matrix(1,0,0,-1,-75,339)"/>
<path style="fill:none;stroke-width:0.4;stroke-linecap:round;stroke-linejoin:round;stroke:rgb(0%,0%,0%);stroke-opacity:1;stroke-miterlimit:10;" d="M 210.078125 222.84375 L 222.730469 218.742188 " transform="matrix(1,0,0,-1,-75,339)"/>
<path style=" stroke:none;fill-rule:evenodd;fill:rgb(0%,0%,0%);fill-opacity:1;" d="M 102.84375 4.21875 C 102.84375 0.21875 96.84375 0.21875 96.84375 4.21875 C 96.84375 8.21875 102.84375 8.21875 102.84375 4.21875 Z M 102.84375 4.21875 "/>
<path style=" stroke:none;fill-rule:evenodd;fill:rgb(0%,0%,0%);fill-opacity:1;" d="M 43.59375 186.25 C 43.59375 182.25 37.59375 182.25 37.59375 186.25 C 37.59375 190.25 43.59375 190.25 43.59375 186.25 Z M 43.59375 186.25 "/>
<path style=" stroke:none;fill-rule:evenodd;fill:rgb(0%,0%,0%);fill-opacity:1;" d="M 162.097656 186.25 C 162.097656 182.25 156.097656 182.25 156.097656 186.25 C 156.097656 190.25 162.097656 190.25 162.097656 186.25 Z M 162.097656 186.25 "/>
<path style=" stroke:none;fill-rule:evenodd;fill:rgb(0%,0%,0%);fill-opacity:1;" d="M 6.980469 73.671875 C 6.980469 69.671875 0.980469 69.671875 0.980469 73.671875 C 0.980469 77.671875 6.980469 77.671875 6.980469 73.671875 Z M 6.980469 73.671875 "/>
<path style=" stroke:none;fill-rule:evenodd;fill:rgb(0%,0%,0%);fill-opacity:1;" d="M 198.710938 73.671875 C 198.710938 69.671875 192.710938 69.671875 192.710938 73.671875 C 192.710938 77.671875 198.710938 77.671875 198.710938 73.671875 Z M 198.710938 73.671875 "/>
<path style=" stroke:none;fill-rule:evenodd;fill:rgb(0%,0%,0%);fill-opacity:1;" d="M 102.84375 141.683594 C 102.84375 137.683594 96.84375 137.683594 96.84375 141.683594 C 96.84375 145.683594 102.84375 145.683594 102.84375 141.683594 Z M 102.84375 141.683594 "/>
<path style=" stroke:none;fill-rule:evenodd;fill:rgb(0%,0%,0%);fill-opacity:1;" d="M 102.84375 141.683594 C 102.84375 137.683594 96.84375 137.683594 96.84375 141.683594 C 96.84375 145.683594 102.84375 145.683594 102.84375 141.683594 Z M 102.84375 141.683594 "/>
<path style=" stroke:none;fill-rule:evenodd;fill:rgb(0%,0%,0%);fill-opacity:1;" d="M 124.625 74.777344 C 124.625 70.777344 118.625 70.777344 118.625 74.777344 C 118.625 78.777344 124.625 78.777344 124.625 74.777344 Z M 124.625 74.777344 "/>
<path style=" stroke:none;fill-rule:evenodd;fill:rgb(0%,0%,0%);fill-opacity:1;" d="M 81.066406 74.777344 C 81.066406 70.777344 75.066406 70.777344 75.066406 74.777344 C 75.066406 78.777344 81.066406 78.777344 81.066406 74.777344 Z M 81.066406 74.777344 "/>
<path style=" stroke:none;fill-rule:evenodd;fill:rgb(0%,0%,0%);fill-opacity:1;" d="M 138.082031 116.15625 C 138.082031 112.15625 132.082031 112.15625 132.082031 116.15625 C 132.082031 120.15625 138.082031 120.15625 138.082031 116.15625 Z M 138.082031 116.15625 "/>
<path style=" stroke:none;fill-rule:evenodd;fill:rgb(0%,0%,0%);fill-opacity:1;" d="M 67.609375 116.15625 C 67.609375 112.15625 61.609375 112.15625 61.609375 116.15625 C 61.609375 120.15625 67.609375 120.15625 67.609375 116.15625 Z M 67.609375 116.15625 "/>
<path style="fill:none;stroke-width:0.4;stroke-linecap:butt;stroke-linejoin:round;stroke:rgb(0%,0%,0%);stroke-opacity:1;stroke-miterlimit:10;" d="M 196.625 264.222656 L 210.082031 222.84375 L 174.84375 197.316406 L 139.609375 222.84375 L 153.066406 264.222656 L 196.625 264.222656 " transform="matrix(1,0,0,-1,-75,339)"/>
<path style="fill:none;stroke-width:0.4;stroke-linecap:round;stroke-linejoin:round;stroke:rgb(0%,0%,0%);stroke-opacity:1;stroke-miterlimit:10;" d="M 174.84375 314.011719 L 145.246094 274.980469 " transform="matrix(1,0,0,-1,-75,339)"/>
<path style="fill:none;stroke-width:0.4;stroke-linecap:round;stroke-linejoin:round;stroke:rgb(0%,0%,0%);stroke-opacity:1;stroke-miterlimit:10;" d="M 145.246094 274.980469 L 98.789062 258.910156 " transform="matrix(1,0,0,-1,-75,339)"/>
<path style="fill:none;stroke-width:0.4;stroke-linecap:round;stroke-linejoin:round;stroke:rgb(0%,0%,0%);stroke-opacity:1;stroke-miterlimit:10;" d="M 98.789062 258.910156 L 126.957031 218.742188 " transform="matrix(1,0,0,-1,-75,339)"/>
<path style="fill:none;stroke-width:0.4;stroke-linecap:round;stroke-linejoin:round;stroke:rgb(0%,0%,0%);stroke-opacity:1;stroke-miterlimit:10;" d="M 126.957031 218.742188 L 127.835938 169.589844 " transform="matrix(1,0,0,-1,-75,339)"/>
<path style="fill:none;stroke-width:0.4;stroke-linecap:round;stroke-linejoin:round;stroke:rgb(0%,0%,0%);stroke-opacity:1;stroke-miterlimit:10;" d="M 127.835938 169.589844 L 174.84375 184.050781 " transform="matrix(1,0,0,-1,-75,339)"/>
<path style="fill:none;stroke-width:0.4;stroke-linecap:round;stroke-linejoin:round;stroke:rgb(0%,0%,0%);stroke-opacity:1;stroke-miterlimit:10;" d="M 174.84375 184.050781 L 221.851562 169.589844 " transform="matrix(1,0,0,-1,-75,339)"/>
<path style="fill:none;stroke-width:0.4;stroke-linecap:round;stroke-linejoin:round;stroke:rgb(0%,0%,0%);stroke-opacity:1;stroke-miterlimit:10;" d="M 221.851562 169.589844 L 222.730469 218.742188 " transform="matrix(1,0,0,-1,-75,339)"/>
<path style="fill:none;stroke-width:0.4;stroke-linecap:round;stroke-linejoin:round;stroke:rgb(0%,0%,0%);stroke-opacity:1;stroke-miterlimit:10;" d="M 222.730469 218.742188 L 250.902344 258.910156 " transform="matrix(1,0,0,-1,-75,339)"/>
<path style="fill:none;stroke-width:0.4;stroke-linecap:round;stroke-linejoin:round;stroke:rgb(0%,0%,0%);stroke-opacity:1;stroke-miterlimit:10;" d="M 250.902344 258.910156 L 204.441406 274.980469 " transform="matrix(1,0,0,-1,-75,339)"/>
<path style="fill:none;stroke-width:0.4;stroke-linecap:round;stroke-linejoin:round;stroke:rgb(0%,0%,0%);stroke-opacity:1;stroke-miterlimit:10;" d="M 204.441406 274.980469 L 174.84375 314.011719 " transform="matrix(1,0,0,-1,-75,339)"/>
<path style="fill:none;stroke-width:2;stroke-linecap:round;stroke-linejoin:round;stroke:rgb(93.3%,23.1%,23.1%);stroke-opacity:1;stroke-miterlimit:10;" d="M 174.84375 334.78125 L 174.84375 314.011719 L 145.25 274.980469 L 153.066406 264.222656 L 139.609375 222.84375 L 174.84375 197.316406 L 174.84375 184.050781 L 221.855469 169.589844 L 222.734375 218.742188 L 210.082031 222.84375 L 196.621094 264.222656 L 204.441406 274.980469 L 250.902344 258.910156 L 270.710938 265.328125 L 234.097656 152.746094 L 115.59375 152.746094 L 127.835938 169.589844 L 126.957031 218.742188 L 98.789062 258.910156 L 78.980469 265.328125 L 174.84375 334.78125 " transform="matrix(1,0,0,-1,-75,339)"/>
</g>
</svg>
