<?xml version="1.0" encoding="UTF-8"?>
<svg xmlns="http://www.w3.org/2000/svg" xmlns:xlink="http://www.w3.org/1999/xlink" width="514pt" height="514pt" viewBox="0 0 514 514" version="1.1">
<g id="surface69486">
<path style="fill-rule:evenodd;fill:rgb(82.7%,82.7%,82.7%);fill-opacity:0.3;stroke-width:1.2;stroke-linecap:butt;stroke-linejoin:round;stroke:rgb(0%,0%,0%);stroke-opacity:1;stroke-miterlimit:10;" d="M 128 704 L 128 192 L 640 192 L 640 704 Z M 128 704 " transform="matrix(1,0,0,-1,-127,705)"/>
<path style="fill-rule:evenodd;fill:rgb(0%,0%,0%);fill-opacity:1;stroke-width:1.2;stroke-linecap:round;stroke-linejoin:round;stroke:rgb(0%,0%,0%);stroke-opacity:1;stroke-miterlimit:10;" d="M 202.074219 248.296875 C 202.074219 258.113281 194.113281 266.074219 184.296875 266.074219 C 174.476562 266.074219 166.519531 258.113281 166.519531 248.296875 C 166.519531 238.476562 174.476562 230.519531 184.296875 230.519531 C 194.113281 230.519531 202.074219 238.476562 202.074219 248.296875 Z M 202.074219 248.296875 " transform="matrix(1,0,0,-1,-127,705)"/>
<path style="fill-rule:evenodd;fill:rgb(0%,0%,0%);fill-opacity:1;stroke-width:1.2;stroke-linecap:round;stroke-linejoin:round;stroke:rgb(0%,0%,0%);stroke-opacity:1;stroke-miterlimit:10;" d="M 202.074219 295.703125 C 202.074219 305.523438 194.113281 313.480469 184.296875 313.480469 C 174.476562 313.480469 166.519531 305.523438 166.519531 295.703125 C 166.519531 285.886719 174.476562 277.925781 184.296875 277.925781 C 194.113281 277.925781 202.074219 285.886719 202.074219 295.703125 Z M 202.074219 295.703125 " transform="matrix(1,0,0,-1,-127,705)"/>
<path style="fill-rule:evenodd;fill:rgb(0%,0%,0%);fill-opacity:1;stroke-width:1.2;stroke-linecap:round;stroke-linejoin:round;stroke:rgb(0%,0%,0%);stroke-opacity:1;stroke-miterlimit:10;" d="M 249.480469 295.703125 C 249.480469 305.523438 241.523438 313.480469 231.703125 313.480469 C 221.886719 313.480469 213.925781 305.523438 213.925781 295.703125 C 213.925781 285.886719 221.886719 277.925781 231.703125 277.925781 C 241.523438 277.925781 249.480469 285.886719 249.480469 295.703125 Z M 249.480469 295.703125 " transform="matrix(1,0,0,-1,-127,705)"/>
<path style="fill-rule:evenodd;fill:rgb(0%,0%,0%);fill-opacity:1;stroke-width:1.2;stroke-linecap:round;stroke-linejoin:round;stroke:rgb(0%,0%,0%);stroke-opacity:1;stroke-miterlimit:10;" d="M 249.480469 248.296875 C 249.480469 258.113281 241.523438 266.074219 231.703125 266.074219 C 221.886719 266.074219 213.925781 258.113281 213.925781 248.296875 C 213.925781 238.476562 221.886719 230.519531 231.703125 230.519531 C 241.523438 230.519531 249.480469 238.476562 249.480469 248.296875 Z M 249.480469 248.296875 " transform="matrix(1,0,0,-1,-127,705)"/>
<path style="fill-rule:evenodd;fill:rgb(0%,0%,0%);fill-opacity:1;stroke-width:1.2;stroke-linecap:round;stroke-linejoin:round;stroke:rgb(0%,0%,0%);stroke-opacity:1;stroke-miterlimit:10;" d="M 178.371094 289.777344 C 181.332031 272 179.851562 263.109375 181.085938 258.667969 C 182.320312 254.222656 186.273438 254.222656 187.257812 257.183594 C 188.246094 260.148438 186.273438 266.074219 186.765625 273.480469 C 187.257812 280.890625 190.222656 289.777344 178.371094 289.777344 " transform="matrix(1,0,0,-1,-127,705)"/>
<path style="fill-rule:evenodd;fill:rgb(0%,0%,0%);fill-opacity:1;stroke-width:1.2;stroke-linecap:round;stroke-linejoin:round;stroke:rgb(0%,0%,0%);stroke-opacity:1;stroke-miterlimit:10;" d="M 178.371094 289.777344 L 188.371094 286.449219 L 188.371094 293.109375 Z M 178.371094 289.777344 " transform="matrix(1,0,0,-1,-127,705)"/>
<path style="fill-rule:evenodd;fill:rgb(0%,0%,0%);fill-opacity:1;stroke-width:1.2;stroke-linecap:round;stroke-linejoin:round;stroke:rgb(0%,0%,0%);stroke-opacity:1;stroke-miterlimit:10;" d="M 225.777344 283.851562 C 228.742188 266.074219 227.257812 257.183594 228.492188 252.742188 C 229.726562 248.296875 233.679688 248.296875 234.667969 251.257812 C 235.652344 254.222656 233.679688 260.148438 234.171875 267.554688 C 234.667969 274.960938 237.628906 283.851562 225.777344 283.851562 " transform="matrix(1,0,0,-1,-127,705)"/>
<path style="fill-rule:evenodd;fill:rgb(0%,0%,0%);fill-opacity:1;stroke-width:1.2;stroke-linecap:round;stroke-linejoin:round;stroke:rgb(0%,0%,0%);stroke-opacity:1;stroke-miterlimit:10;" d="M 225.777344 283.851562 L 235.777344 280.523438 L 235.777344 287.179688 Z M 225.777344 283.851562 " transform="matrix(1,0,0,-1,-127,705)"/>
<path style="fill-rule:evenodd;fill:rgb(0%,0%,0%);fill-opacity:1;stroke-width:1.2;stroke-linecap:round;stroke-linejoin:round;stroke:rgb(0%,0%,0%);stroke-opacity:1;stroke-miterlimit:10;" d="M 192.199219 284.804688 C 206.867188 270.113281 211.632812 260.722656 215.726562 257.390625 C 219.824219 254.058594 223.25 256.78125 222.089844 260.253906 C 220.929688 263.722656 215.183594 267.9375 210.570312 275.253906 C 205.960938 282.566406 202.480469 292.980469 192.199219 284.804688 " transform="matrix(1,0,0,-1,-127,705)"/>
<path style="fill-rule:evenodd;fill:rgb(0%,0%,0%);fill-opacity:1;stroke-width:1.2;stroke-linecap:round;stroke-linejoin:round;stroke:rgb(0%,0%,0%);stroke-opacity:1;stroke-miterlimit:10;" d="M 192.199219 284.804688 L 202.101562 288.421875 L 197.957031 293.636719 Z M 192.199219 284.804688 " transform="matrix(1,0,0,-1,-127,705)"/>
<path style="fill-rule:evenodd;fill:rgb(0%,0%,0%);fill-opacity:1;stroke-width:1.2;stroke-linecap:round;stroke-linejoin:round;stroke:rgb(0%,0%,0%);stroke-opacity:1;stroke-miterlimit:10;" d="M 195.554688 352.59375 C 195.554688 362.410156 187.597656 370.371094 177.777344 370.371094 C 167.957031 370.371094 160 362.410156 160 352.59375 C 160 342.773438 167.957031 334.8125 177.777344 334.8125 C 187.597656 334.8125 195.554688 342.773438 195.554688 352.59375 Z M 195.554688 352.59375 " transform="matrix(1,0,0,-1,-127,705)"/>
<path style="fill-rule:evenodd;fill:rgb(0%,0%,0%);fill-opacity:1;stroke-width:1.2;stroke-linecap:round;stroke-linejoin:round;stroke:rgb(0%,0%,0%);stroke-opacity:1;stroke-miterlimit:10;" d="M 195.554688 400 C 195.554688 409.820312 187.597656 417.777344 177.777344 417.777344 C 167.957031 417.777344 160 409.820312 160 400 C 160 390.183594 167.957031 382.222656 177.777344 382.222656 C 187.597656 382.222656 195.554688 390.183594 195.554688 400 Z M 195.554688 400 " transform="matrix(1,0,0,-1,-127,705)"/>
<path style="fill-rule:evenodd;fill:rgb(0%,0%,0%);fill-opacity:1;stroke-width:1.2;stroke-linecap:round;stroke-linejoin:round;stroke:rgb(0%,0%,0%);stroke-opacity:1;stroke-miterlimit:10;" d="M 242.964844 400 C 242.964844 409.820312 235.003906 417.777344 225.183594 417.777344 C 215.367188 417.777344 207.40625 409.820312 207.40625 400 C 207.40625 390.183594 215.367188 382.222656 225.183594 382.222656 C 235.003906 382.222656 242.964844 390.183594 242.964844 400 Z M 242.964844 400 " transform="matrix(1,0,0,-1,-127,705)"/>
<path style="fill-rule:evenodd;fill:rgb(0%,0%,0%);fill-opacity:1;stroke-width:1.2;stroke-linecap:round;stroke-linejoin:round;stroke:rgb(0%,0%,0%);stroke-opacity:1;stroke-miterlimit:10;" d="M 242.964844 352.59375 C 242.964844 362.410156 235.003906 370.371094 225.183594 370.371094 C 215.367188 370.371094 207.40625 362.410156 207.40625 352.59375 C 207.40625 342.773438 215.367188 334.8125 225.183594 334.8125 C 235.003906 334.8125 242.964844 342.773438 242.964844 352.59375 Z M 242.964844 352.59375 " transform="matrix(1,0,0,-1,-127,705)"/>
<path style="fill-rule:evenodd;fill:rgb(0%,0%,0%);fill-opacity:1;stroke-width:1.2;stroke-linecap:round;stroke-linejoin:round;stroke:rgb(0%,0%,0%);stroke-opacity:1;stroke-miterlimit:10;" d="M 171.851562 394.074219 C 174.8125 376.296875 173.332031 367.40625 174.566406 362.960938 C 175.800781 358.519531 179.753906 358.519531 180.742188 361.480469 C 181.726562 364.445312 179.753906 370.371094 180.246094 377.777344 C 180.742188 385.183594 183.703125 394.074219 171.851562 394.074219 " transform="matrix(1,0,0,-1,-127,705)"/>
<path style="fill-rule:evenodd;fill:rgb(0%,0%,0%);fill-opacity:1;stroke-width:1.2;stroke-linecap:round;stroke-linejoin:round;stroke:rgb(0%,0%,0%);stroke-opacity:1;stroke-miterlimit:10;" d="M 171.851562 394.074219 L 181.851562 390.742188 L 181.851562 397.402344 Z M 171.851562 394.074219 " transform="matrix(1,0,0,-1,-127,705)"/>
<path style="fill-rule:evenodd;fill:rgb(0%,0%,0%);fill-opacity:1;stroke-width:1.2;stroke-linecap:round;stroke-linejoin:round;stroke:rgb(0%,0%,0%);stroke-opacity:1;stroke-miterlimit:10;" d="M 219.257812 388.148438 C 222.222656 370.371094 220.742188 361.480469 221.976562 357.035156 C 223.210938 352.59375 227.160156 352.59375 228.148438 355.554688 C 229.136719 358.519531 227.160156 364.445312 227.65625 371.851562 C 228.148438 379.257812 231.109375 388.148438 219.257812 388.148438 " transform="matrix(1,0,0,-1,-127,705)"/>
<path style="fill-rule:evenodd;fill:rgb(0%,0%,0%);fill-opacity:1;stroke-width:1.2;stroke-linecap:round;stroke-linejoin:round;stroke:rgb(0%,0%,0%);stroke-opacity:1;stroke-miterlimit:10;" d="M 219.257812 388.148438 L 229.257812 384.816406 L 229.257812 391.476562 Z M 219.257812 388.148438 " transform="matrix(1,0,0,-1,-127,705)"/>
<path style="fill-rule:evenodd;fill:rgb(0%,0%,0%);fill-opacity:1;stroke-width:1.2;stroke-linecap:round;stroke-linejoin:round;stroke:rgb(0%,0%,0%);stroke-opacity:1;stroke-miterlimit:10;" d="M 185.679688 389.101562 C 200.347656 374.410156 205.113281 365.019531 209.207031 361.6875 C 213.304688 358.355469 216.730469 361.078125 215.570312 364.546875 C 214.410156 368.019531 208.664062 372.234375 204.054688 379.550781 C 199.441406 386.863281 195.960938 397.273438 185.679688 389.101562 " transform="matrix(1,0,0,-1,-127,705)"/>
<path style="fill-rule:evenodd;fill:rgb(0%,0%,0%);fill-opacity:1;stroke-width:1.2;stroke-linecap:round;stroke-linejoin:round;stroke:rgb(0%,0%,0%);stroke-opacity:1;stroke-miterlimit:10;" d="M 185.679688 389.101562 L 195.582031 392.71875 L 191.4375 397.933594 Z M 185.679688 389.101562 " transform="matrix(1,0,0,-1,-127,705)"/>
<path style="fill-rule:evenodd;fill:rgb(0%,0%,0%);fill-opacity:1;stroke-width:1.2;stroke-linecap:round;stroke-linejoin:round;stroke:rgb(0%,0%,0%);stroke-opacity:1;stroke-miterlimit:10;" d="M 306.371094 241.777344 C 306.371094 251.597656 298.410156 259.554688 288.59375 259.554688 C 278.773438 259.554688 270.816406 251.597656 270.816406 241.777344 C 270.816406 231.960938 278.773438 224 288.59375 224 C 298.410156 224 306.371094 231.960938 306.371094 241.777344 Z M 306.371094 241.777344 " transform="matrix(1,0,0,-1,-127,705)"/>
<path style="fill-rule:evenodd;fill:rgb(0%,0%,0%);fill-opacity:1;stroke-width:1.2;stroke-linecap:round;stroke-linejoin:round;stroke:rgb(0%,0%,0%);stroke-opacity:1;stroke-miterlimit:10;" d="M 306.371094 289.183594 C 306.371094 299.003906 298.410156 306.964844 288.59375 306.964844 C 278.773438 306.964844 270.816406 299.003906 270.816406 289.183594 C 270.816406 279.367188 278.773438 271.40625 288.59375 271.40625 C 298.410156 271.40625 306.371094 279.367188 306.371094 289.183594 Z M 306.371094 289.183594 " transform="matrix(1,0,0,-1,-127,705)"/>
<path style="fill-rule:evenodd;fill:rgb(0%,0%,0%);fill-opacity:1;stroke-width:1.2;stroke-linecap:round;stroke-linejoin:round;stroke:rgb(0%,0%,0%);stroke-opacity:1;stroke-miterlimit:10;" d="M 353.777344 289.183594 C 353.777344 299.003906 345.816406 306.964844 336 306.964844 C 326.179688 306.964844 318.222656 299.003906 318.222656 289.183594 C 318.222656 279.367188 326.179688 271.40625 336 271.40625 C 345.816406 271.40625 353.777344 279.367188 353.777344 289.183594 Z M 353.777344 289.183594 " transform="matrix(1,0,0,-1,-127,705)"/>
<path style="fill-rule:evenodd;fill:rgb(0%,0%,0%);fill-opacity:1;stroke-width:1.2;stroke-linecap:round;stroke-linejoin:round;stroke:rgb(0%,0%,0%);stroke-opacity:1;stroke-miterlimit:10;" d="M 353.777344 241.777344 C 353.777344 251.597656 345.816406 259.554688 336 259.554688 C 326.179688 259.554688 318.222656 251.597656 318.222656 241.777344 C 318.222656 231.960938 326.179688 224 336 224 C 345.816406 224 353.777344 231.960938 353.777344 241.777344 Z M 353.777344 241.777344 " transform="matrix(1,0,0,-1,-127,705)"/>
<path style="fill-rule:evenodd;fill:rgb(0%,0%,0%);fill-opacity:1;stroke-width:1.2;stroke-linecap:round;stroke-linejoin:round;stroke:rgb(0%,0%,0%);stroke-opacity:1;stroke-miterlimit:10;" d="M 282.667969 283.257812 C 285.628906 265.480469 284.148438 256.59375 285.382812 252.148438 C 286.617188 247.703125 290.566406 247.703125 291.554688 250.667969 C 292.542969 253.628906 290.566406 259.554688 291.0625 266.964844 C 291.554688 274.371094 294.519531 283.257812 282.667969 283.257812 " transform="matrix(1,0,0,-1,-127,705)"/>
<path style="fill-rule:evenodd;fill:rgb(0%,0%,0%);fill-opacity:1;stroke-width:1.2;stroke-linecap:round;stroke-linejoin:round;stroke:rgb(0%,0%,0%);stroke-opacity:1;stroke-miterlimit:10;" d="M 282.667969 283.257812 L 292.667969 279.929688 L 292.667969 286.589844 Z M 282.667969 283.257812 " transform="matrix(1,0,0,-1,-127,705)"/>
<path style="fill-rule:evenodd;fill:rgb(0%,0%,0%);fill-opacity:1;stroke-width:1.2;stroke-linecap:round;stroke-linejoin:round;stroke:rgb(0%,0%,0%);stroke-opacity:1;stroke-miterlimit:10;" d="M 330.074219 277.332031 C 333.035156 259.554688 331.554688 250.664062 332.789062 246.222656 C 334.023438 241.777344 337.976562 241.777344 338.960938 244.738281 C 339.949219 247.703125 337.976562 253.628906 338.46875 261.035156 C 338.960938 268.445312 341.925781 277.332031 330.074219 277.332031 " transform="matrix(1,0,0,-1,-127,705)"/>
<path style="fill-rule:evenodd;fill:rgb(0%,0%,0%);fill-opacity:1;stroke-width:1.2;stroke-linecap:round;stroke-linejoin:round;stroke:rgb(0%,0%,0%);stroke-opacity:1;stroke-miterlimit:10;" d="M 330.074219 277.332031 L 340.074219 274.003906 L 340.074219 280.664062 Z M 330.074219 277.332031 " transform="matrix(1,0,0,-1,-127,705)"/>
<path style="fill-rule:evenodd;fill:rgb(0%,0%,0%);fill-opacity:1;stroke-width:1.2;stroke-linecap:round;stroke-linejoin:round;stroke:rgb(0%,0%,0%);stroke-opacity:1;stroke-miterlimit:10;" d="M 296.496094 278.289062 C 311.164062 263.59375 315.929688 254.207031 320.023438 250.871094 C 324.121094 247.539062 327.546875 250.261719 326.386719 253.734375 C 325.226562 257.203125 319.480469 261.421875 314.867188 268.734375 C 310.253906 276.050781 306.777344 286.460938 296.496094 278.289062 " transform="matrix(1,0,0,-1,-127,705)"/>
<path style="fill-rule:evenodd;fill:rgb(0%,0%,0%);fill-opacity:1;stroke-width:1.2;stroke-linecap:round;stroke-linejoin:round;stroke:rgb(0%,0%,0%);stroke-opacity:1;stroke-miterlimit:10;" d="M 296.496094 278.289062 L 306.394531 281.90625 L 302.25 287.117188 Z M 296.496094 278.289062 " transform="matrix(1,0,0,-1,-127,705)"/>
<path style="fill-rule:evenodd;fill:rgb(0%,0%,0%);fill-opacity:1;stroke-width:1.2;stroke-linecap:round;stroke-linejoin:round;stroke:rgb(0%,0%,0%);stroke-opacity:1;stroke-miterlimit:10;" d="M 306.371094 352.59375 C 306.371094 362.410156 298.410156 370.371094 288.59375 370.371094 C 278.773438 370.371094 270.816406 362.410156 270.816406 352.59375 C 270.816406 342.773438 278.773438 334.8125 288.59375 334.8125 C 298.410156 334.8125 306.371094 342.773438 306.371094 352.59375 Z M 306.371094 352.59375 " transform="matrix(1,0,0,-1,-127,705)"/>
<path style="fill-rule:evenodd;fill:rgb(0%,0%,0%);fill-opacity:1;stroke-width:1.2;stroke-linecap:round;stroke-linejoin:round;stroke:rgb(0%,0%,0%);stroke-opacity:1;stroke-miterlimit:10;" d="M 306.371094 400 C 306.371094 409.820312 298.410156 417.777344 288.59375 417.777344 C 278.773438 417.777344 270.816406 409.820312 270.816406 400 C 270.816406 390.183594 278.773438 382.222656 288.59375 382.222656 C 298.410156 382.222656 306.371094 390.183594 306.371094 400 Z M 306.371094 400 " transform="matrix(1,0,0,-1,-127,705)"/>
<path style="fill-rule:evenodd;fill:rgb(0%,0%,0%);fill-opacity:1;stroke-width:1.2;stroke-linecap:round;stroke-linejoin:round;stroke:rgb(0%,0%,0%);stroke-opacity:1;stroke-miterlimit:10;" d="M 353.777344 400 C 353.777344 409.820312 345.816406 417.777344 336 417.777344 C 326.179688 417.777344 318.222656 409.820312 318.222656 400 C 318.222656 390.183594 326.179688 382.222656 336 382.222656 C 345.816406 382.222656 353.777344 390.183594 353.777344 400 Z M 353.777344 400 " transform="matrix(1,0,0,-1,-127,705)"/>
<path style="fill-rule:evenodd;fill:rgb(0%,0%,0%);fill-opacity:1;stroke-width:1.2;stroke-linecap:round;stroke-linejoin:round;stroke:rgb(0%,0%,0%);stroke-opacity:1;stroke-miterlimit:10;" d="M 353.777344 352.59375 C 353.777344 362.410156 345.816406 370.371094 336 370.371094 C 326.179688 370.371094 318.222656 362.410156 318.222656 352.59375 C 318.222656 342.773438 326.179688 334.8125 336 334.8125 C 345.816406 334.8125 353.777344 342.773438 353.777344 352.59375 Z M 353.777344 352.59375 " transform="matrix(1,0,0,-1,-127,705)"/>
<path style="fill-rule:evenodd;fill:rgb(0%,0%,0%);fill-opacity:1;stroke-width:1.2;stroke-linecap:round;stroke-linejoin:round;stroke:rgb(0%,0%,0%);stroke-opacity:1;stroke-miterlimit:10;" d="M 282.667969 394.074219 C 285.628906 376.296875 284.148438 367.40625 285.382812 362.960938 C 286.617188 358.519531 290.566406 358.519531 291.554688 361.480469 C 292.542969 364.445312 290.566406 370.371094 291.0625 377.777344 C 291.554688 385.183594 294.519531 394.074219 282.667969 394.074219 " transform="matrix(1,0,0,-1,-127,705)"/>
<path style="fill-rule:evenodd;fill:rgb(0%,0%,0%);fill-opacity:1;stroke-width:1.2;stroke-linecap:round;stroke-linejoin:round;stroke:rgb(0%,0%,0%);stroke-opacity:1;stroke-miterlimit:10;" d="M 282.667969 394.074219 L 292.667969 390.742188 L 292.667969 397.402344 Z M 282.667969 394.074219 " transform="matrix(1,0,0,-1,-127,705)"/>
<path style="fill-rule:evenodd;fill:rgb(0%,0%,0%);fill-opacity:1;stroke-width:1.2;stroke-linecap:round;stroke-linejoin:round;stroke:rgb(0%,0%,0%);stroke-opacity:1;stroke-miterlimit:10;" d="M 330.074219 388.148438 C 333.035156 370.371094 331.554688 361.480469 332.789062 357.035156 C 334.023438 352.59375 337.976562 352.59375 338.960938 355.554688 C 339.949219 358.519531 337.976562 364.445312 338.46875 371.851562 C 338.960938 379.257812 341.925781 388.148438 330.074219 388.148438 " transform="matrix(1,0,0,-1,-127,705)"/>
<path style="fill-rule:evenodd;fill:rgb(0%,0%,0%);fill-opacity:1;stroke-width:1.2;stroke-linecap:round;stroke-linejoin:round;stroke:rgb(0%,0%,0%);stroke-opacity:1;stroke-miterlimit:10;" d="M 330.074219 388.148438 L 340.074219 384.816406 L 340.074219 391.476562 Z M 330.074219 388.148438 " transform="matrix(1,0,0,-1,-127,705)"/>
<path style="fill-rule:evenodd;fill:rgb(0%,0%,0%);fill-opacity:1;stroke-width:1.2;stroke-linecap:round;stroke-linejoin:round;stroke:rgb(0%,0%,0%);stroke-opacity:1;stroke-miterlimit:10;" d="M 296.496094 389.101562 C 311.164062 374.410156 315.929688 365.019531 320.023438 361.6875 C 324.121094 358.355469 327.546875 361.078125 326.386719 364.546875 C 325.226562 368.019531 319.480469 372.234375 314.867188 379.550781 C 310.253906 386.863281 306.777344 397.273438 296.496094 389.101562 " transform="matrix(1,0,0,-1,-127,705)"/>
<path style="fill-rule:evenodd;fill:rgb(0%,0%,0%);fill-opacity:1;stroke-width:1.2;stroke-linecap:round;stroke-linejoin:round;stroke:rgb(0%,0%,0%);stroke-opacity:1;stroke-miterlimit:10;" d="M 296.496094 389.101562 L 306.394531 392.71875 L 302.25 397.933594 Z M 296.496094 389.101562 " transform="matrix(1,0,0,-1,-127,705)"/>
<path style="fill-rule:evenodd;fill:rgb(0%,0%,0%);fill-opacity:1;stroke-width:1.2;stroke-linecap:round;stroke-linejoin:round;stroke:rgb(0%,0%,0%);stroke-opacity:1;stroke-miterlimit:10;" d="M 176.296875 347.851562 C 175.210938 345.679688 177.382812 343.503906 187.160156 333.726562 C 196.9375 323.949219 214.320312 306.566406 224.097656 298.960938 C 233.875 291.359375 236.050781 293.53125 228.445312 304.394531 C 220.839844 315.257812 203.457031 334.8125 192.59375 343.503906 C 181.726562 352.195312 177.382812 350.023438 176.296875 347.851562 Z M 176.296875 347.851562 " transform="matrix(1,0,0,-1,-127,705)"/>
<path style="fill-rule:evenodd;fill:rgb(0%,0%,0%);fill-opacity:1;stroke-width:1.2;stroke-linecap:round;stroke-linejoin:round;stroke:rgb(0%,0%,0%);stroke-opacity:1;stroke-miterlimit:10;" d="M 287.109375 341.332031 C 286.023438 339.160156 288.199219 336.988281 297.976562 327.210938 C 307.753906 317.433594 325.136719 300.050781 334.914062 292.445312 C 344.691406 284.839844 346.863281 287.011719 339.257812 297.875 C 331.652344 308.742188 314.269531 328.296875 303.40625 336.988281 C 292.542969 345.679688 288.199219 343.507812 287.109375 341.332031 Z M 287.109375 341.332031 " transform="matrix(1,0,0,-1,-127,705)"/>
<path style="fill-rule:evenodd;fill:rgb(0%,0%,0%);fill-opacity:1;stroke-width:1.2;stroke-linecap:round;stroke-linejoin:round;stroke:rgb(0%,0%,0%);stroke-opacity:1;stroke-miterlimit:10;" d="M 226.269531 394.566406 C 225.183594 395.652344 225.183594 397.828125 226.269531 398.914062 C 227.359375 400 229.53125 400 233.875 398.914062 C 238.222656 397.828125 244.742188 395.652344 249.085938 392.394531 C 253.429688 389.136719 255.605469 384.789062 257.777344 378.269531 C 259.949219 371.753906 262.121094 363.0625 263.210938 353.285156 C 264.296875 343.503906 264.296875 332.640625 264.296875 321.777344 C 264.296875 310.914062 264.296875 300.050781 264.296875 289.183594 C 264.296875 278.320312 264.296875 267.457031 268.640625 258.765625 C 272.988281 250.074219 281.679688 243.554688 284.9375 240.296875 C 288.195312 237.035156 286.023438 237.035156 283.851562 237.035156 C 281.679688 237.035156 279.503906 237.035156 275.160156 239.210938 C 270.8125 241.382812 264.296875 245.726562 261.035156 258.765625 C 257.777344 271.800781 257.777344 293.53125 256.691406 316.34375 C 255.605469 339.160156 253.429688 363.0625 249.085938 376.097656 C 244.742188 389.136719 238.222656 391.308594 233.875 392.394531 C 229.53125 393.480469 227.359375 393.480469 226.269531 394.566406 Z M 226.269531 394.566406 " transform="matrix(1,0,0,-1,-127,705)"/>
<path style="fill-rule:evenodd;fill:rgb(0%,0%,0%);fill-opacity:1;stroke-width:1.2;stroke-linecap:round;stroke-linejoin:round;stroke:rgb(0%,0%,0%);stroke-opacity:1;stroke-miterlimit:10;" d="M 202.074219 504.296875 C 202.074219 514.113281 194.113281 522.074219 184.296875 522.074219 C 174.476562 522.074219 166.519531 514.113281 166.519531 504.296875 C 166.519531 494.476562 174.476562 486.519531 184.296875 486.519531 C 194.113281 486.519531 202.074219 494.476562 202.074219 504.296875 Z M 202.074219 504.296875 " transform="matrix(1,0,0,-1,-127,705)"/>
<path style="fill-rule:evenodd;fill:rgb(0%,0%,0%);fill-opacity:1;stroke-width:1.2;stroke-linecap:round;stroke-linejoin:round;stroke:rgb(0%,0%,0%);stroke-opacity:1;stroke-miterlimit:10;" d="M 202.074219 551.703125 C 202.074219 561.523438 194.113281 569.480469 184.296875 569.480469 C 174.476562 569.480469 166.519531 561.523438 166.519531 551.703125 C 166.519531 541.886719 174.476562 533.925781 184.296875 533.925781 C 194.113281 533.925781 202.074219 541.886719 202.074219 551.703125 Z M 202.074219 551.703125 " transform="matrix(1,0,0,-1,-127,705)"/>
<path style="fill-rule:evenodd;fill:rgb(0%,0%,0%);fill-opacity:1;stroke-width:1.2;stroke-linecap:round;stroke-linejoin:round;stroke:rgb(0%,0%,0%);stroke-opacity:1;stroke-miterlimit:10;" d="M 249.480469 551.703125 C 249.480469 561.523438 241.523438 569.480469 231.703125 569.480469 C 221.886719 569.480469 213.925781 561.523438 213.925781 551.703125 C 213.925781 541.886719 221.886719 533.925781 231.703125 533.925781 C 241.523438 533.925781 249.480469 541.886719 249.480469 551.703125 Z M 249.480469 551.703125 " transform="matrix(1,0,0,-1,-127,705)"/>
<path style="fill-rule:evenodd;fill:rgb(0%,0%,0%);fill-opacity:1;stroke-width:1.2;stroke-linecap:round;stroke-linejoin:round;stroke:rgb(0%,0%,0%);stroke-opacity:1;stroke-miterlimit:10;" d="M 249.480469 504.296875 C 249.480469 514.113281 241.523438 522.074219 231.703125 522.074219 C 221.886719 522.074219 213.925781 514.113281 213.925781 504.296875 C 213.925781 494.476562 221.886719 486.519531 231.703125 486.519531 C 241.523438 486.519531 249.480469 494.476562 249.480469 504.296875 Z M 249.480469 504.296875 " transform="matrix(1,0,0,-1,-127,705)"/>
<path style="fill-rule:evenodd;fill:rgb(0%,0%,0%);fill-opacity:1;stroke-width:1.2;stroke-linecap:round;stroke-linejoin:round;stroke:rgb(0%,0%,0%);stroke-opacity:1;stroke-miterlimit:10;" d="M 178.371094 545.777344 C 181.332031 528 179.851562 519.109375 181.085938 514.667969 C 182.320312 510.222656 186.273438 510.222656 187.257812 513.183594 C 188.246094 516.148438 186.273438 522.074219 186.765625 529.480469 C 187.257812 536.890625 190.222656 545.777344 178.371094 545.777344 " transform="matrix(1,0,0,-1,-127,705)"/>
<path style="fill-rule:evenodd;fill:rgb(0%,0%,0%);fill-opacity:1;stroke-width:1.2;stroke-linecap:round;stroke-linejoin:round;stroke:rgb(0%,0%,0%);stroke-opacity:1;stroke-miterlimit:10;" d="M 178.371094 545.777344 L 188.371094 542.449219 L 188.371094 549.109375 Z M 178.371094 545.777344 " transform="matrix(1,0,0,-1,-127,705)"/>
<path style="fill-rule:evenodd;fill:rgb(0%,0%,0%);fill-opacity:1;stroke-width:1.2;stroke-linecap:round;stroke-linejoin:round;stroke:rgb(0%,0%,0%);stroke-opacity:1;stroke-miterlimit:10;" d="M 225.777344 539.851562 C 228.742188 522.074219 227.257812 513.183594 228.492188 508.742188 C 229.726562 504.296875 233.679688 504.296875 234.667969 507.257812 C 235.652344 510.222656 233.679688 516.148438 234.171875 523.554688 C 234.667969 530.960938 237.628906 539.851562 225.777344 539.851562 " transform="matrix(1,0,0,-1,-127,705)"/>
<path style="fill-rule:evenodd;fill:rgb(0%,0%,0%);fill-opacity:1;stroke-width:1.2;stroke-linecap:round;stroke-linejoin:round;stroke:rgb(0%,0%,0%);stroke-opacity:1;stroke-miterlimit:10;" d="M 225.777344 539.851562 L 235.777344 536.523438 L 235.777344 543.179688 Z M 225.777344 539.851562 " transform="matrix(1,0,0,-1,-127,705)"/>
<path style="fill-rule:evenodd;fill:rgb(0%,0%,0%);fill-opacity:1;stroke-width:1.2;stroke-linecap:round;stroke-linejoin:round;stroke:rgb(0%,0%,0%);stroke-opacity:1;stroke-miterlimit:10;" d="M 192.199219 540.804688 C 206.867188 526.113281 211.632812 516.722656 215.726562 513.390625 C 219.824219 510.058594 223.25 512.78125 222.089844 516.253906 C 220.929688 519.722656 215.183594 523.9375 210.570312 531.253906 C 205.960938 538.566406 202.480469 548.980469 192.199219 540.804688 " transform="matrix(1,0,0,-1,-127,705)"/>
<path style="fill-rule:evenodd;fill:rgb(0%,0%,0%);fill-opacity:1;stroke-width:1.2;stroke-linecap:round;stroke-linejoin:round;stroke:rgb(0%,0%,0%);stroke-opacity:1;stroke-miterlimit:10;" d="M 192.199219 540.804688 L 202.101562 544.421875 L 197.957031 549.636719 Z M 192.199219 540.804688 " transform="matrix(1,0,0,-1,-127,705)"/>
<path style="fill-rule:evenodd;fill:rgb(0%,0%,0%);fill-opacity:1;stroke-width:1.2;stroke-linecap:round;stroke-linejoin:round;stroke:rgb(0%,0%,0%);stroke-opacity:1;stroke-miterlimit:10;" d="M 195.554688 608.59375 C 195.554688 618.410156 187.597656 626.371094 177.777344 626.371094 C 167.957031 626.371094 160 618.410156 160 608.59375 C 160 598.773438 167.957031 590.8125 177.777344 590.8125 C 187.597656 590.8125 195.554688 598.773438 195.554688 608.59375 Z M 195.554688 608.59375 " transform="matrix(1,0,0,-1,-127,705)"/>
<path style="fill-rule:evenodd;fill:rgb(0%,0%,0%);fill-opacity:1;stroke-width:1.2;stroke-linecap:round;stroke-linejoin:round;stroke:rgb(0%,0%,0%);stroke-opacity:1;stroke-miterlimit:10;" d="M 195.554688 656 C 195.554688 665.820312 187.597656 673.777344 177.777344 673.777344 C 167.957031 673.777344 160 665.820312 160 656 C 160 646.183594 167.957031 638.222656 177.777344 638.222656 C 187.597656 638.222656 195.554688 646.183594 195.554688 656 Z M 195.554688 656 " transform="matrix(1,0,0,-1,-127,705)"/>
<path style="fill-rule:evenodd;fill:rgb(0%,0%,0%);fill-opacity:1;stroke-width:1.2;stroke-linecap:round;stroke-linejoin:round;stroke:rgb(0%,0%,0%);stroke-opacity:1;stroke-miterlimit:10;" d="M 242.964844 656 C 242.964844 665.820312 235.003906 673.777344 225.183594 673.777344 C 215.367188 673.777344 207.40625 665.820312 207.40625 656 C 207.40625 646.183594 215.367188 638.222656 225.183594 638.222656 C 235.003906 638.222656 242.964844 646.183594 242.964844 656 Z M 242.964844 656 " transform="matrix(1,0,0,-1,-127,705)"/>
<path style="fill-rule:evenodd;fill:rgb(0%,0%,0%);fill-opacity:1;stroke-width:1.2;stroke-linecap:round;stroke-linejoin:round;stroke:rgb(0%,0%,0%);stroke-opacity:1;stroke-miterlimit:10;" d="M 242.964844 608.59375 C 242.964844 618.410156 235.003906 626.371094 225.183594 626.371094 C 215.367188 626.371094 207.40625 618.410156 207.40625 608.59375 C 207.40625 598.773438 215.367188 590.8125 225.183594 590.8125 C 235.003906 590.8125 242.964844 598.773438 242.964844 608.59375 Z M 242.964844 608.59375 " transform="matrix(1,0,0,-1,-127,705)"/>
<path style="fill-rule:evenodd;fill:rgb(0%,0%,0%);fill-opacity:1;stroke-width:1.2;stroke-linecap:round;stroke-linejoin:round;stroke:rgb(0%,0%,0%);stroke-opacity:1;stroke-miterlimit:10;" d="M 171.851562 650.074219 C 174.8125 632.296875 173.332031 623.40625 174.566406 618.960938 C 175.800781 614.519531 179.753906 614.519531 180.742188 617.480469 C 181.726562 620.445312 179.753906 626.371094 180.246094 633.777344 C 180.742188 641.183594 183.703125 650.074219 171.851562 650.074219 " transform="matrix(1,0,0,-1,-127,705)"/>
<path style="fill-rule:evenodd;fill:rgb(0%,0%,0%);fill-opacity:1;stroke-width:1.2;stroke-linecap:round;stroke-linejoin:round;stroke:rgb(0%,0%,0%);stroke-opacity:1;stroke-miterlimit:10;" d="M 171.851562 650.074219 L 181.851562 646.742188 L 181.851562 653.402344 Z M 171.851562 650.074219 " transform="matrix(1,0,0,-1,-127,705)"/>
<path style="fill-rule:evenodd;fill:rgb(0%,0%,0%);fill-opacity:1;stroke-width:1.2;stroke-linecap:round;stroke-linejoin:round;stroke:rgb(0%,0%,0%);stroke-opacity:1;stroke-miterlimit:10;" d="M 219.257812 644.148438 C 222.222656 626.371094 220.742188 617.480469 221.976562 613.035156 C 223.210938 608.59375 227.160156 608.59375 228.148438 611.554688 C 229.136719 614.519531 227.160156 620.445312 227.65625 627.851562 C 228.148438 635.257812 231.109375 644.148438 219.257812 644.148438 " transform="matrix(1,0,0,-1,-127,705)"/>
<path style="fill-rule:evenodd;fill:rgb(0%,0%,0%);fill-opacity:1;stroke-width:1.2;stroke-linecap:round;stroke-linejoin:round;stroke:rgb(0%,0%,0%);stroke-opacity:1;stroke-miterlimit:10;" d="M 219.257812 644.148438 L 229.257812 640.816406 L 229.257812 647.476562 Z M 219.257812 644.148438 " transform="matrix(1,0,0,-1,-127,705)"/>
<path style="fill-rule:evenodd;fill:rgb(0%,0%,0%);fill-opacity:1;stroke-width:1.2;stroke-linecap:round;stroke-linejoin:round;stroke:rgb(0%,0%,0%);stroke-opacity:1;stroke-miterlimit:10;" d="M 185.679688 645.101562 C 200.347656 630.410156 205.113281 621.019531 209.207031 617.6875 C 213.304688 614.355469 216.730469 617.078125 215.570312 620.546875 C 214.410156 624.019531 208.664062 628.234375 204.054688 635.550781 C 199.441406 642.863281 195.960938 653.273438 185.679688 645.101562 " transform="matrix(1,0,0,-1,-127,705)"/>
<path style="fill-rule:evenodd;fill:rgb(0%,0%,0%);fill-opacity:1;stroke-width:1.2;stroke-linecap:round;stroke-linejoin:round;stroke:rgb(0%,0%,0%);stroke-opacity:1;stroke-miterlimit:10;" d="M 185.679688 645.101562 L 195.582031 648.71875 L 191.4375 653.933594 Z M 185.679688 645.101562 " transform="matrix(1,0,0,-1,-127,705)"/>
<path style="fill-rule:evenodd;fill:rgb(0%,0%,0%);fill-opacity:1;stroke-width:1.2;stroke-linecap:round;stroke-linejoin:round;stroke:rgb(0%,0%,0%);stroke-opacity:1;stroke-miterlimit:10;" d="M 306.371094 497.777344 C 306.371094 507.597656 298.410156 515.554688 288.59375 515.554688 C 278.773438 515.554688 270.816406 507.597656 270.816406 497.777344 C 270.816406 487.960938 278.773438 480 288.59375 480 C 298.410156 480 306.371094 487.960938 306.371094 497.777344 Z M 306.371094 497.777344 " transform="matrix(1,0,0,-1,-127,705)"/>
<path style="fill-rule:evenodd;fill:rgb(0%,0%,0%);fill-opacity:1;stroke-width:1.2;stroke-linecap:round;stroke-linejoin:round;stroke:rgb(0%,0%,0%);stroke-opacity:1;stroke-miterlimit:10;" d="M 306.371094 545.183594 C 306.371094 555.003906 298.410156 562.964844 288.59375 562.964844 C 278.773438 562.964844 270.816406 555.003906 270.816406 545.183594 C 270.816406 535.367188 278.773438 527.40625 288.59375 527.40625 C 298.410156 527.40625 306.371094 535.367188 306.371094 545.183594 Z M 306.371094 545.183594 " transform="matrix(1,0,0,-1,-127,705)"/>
<path style="fill-rule:evenodd;fill:rgb(0%,0%,0%);fill-opacity:1;stroke-width:1.2;stroke-linecap:round;stroke-linejoin:round;stroke:rgb(0%,0%,0%);stroke-opacity:1;stroke-miterlimit:10;" d="M 353.777344 545.183594 C 353.777344 555.003906 345.816406 562.964844 336 562.964844 C 326.179688 562.964844 318.222656 555.003906 318.222656 545.183594 C 318.222656 535.367188 326.179688 527.40625 336 527.40625 C 345.816406 527.40625 353.777344 535.367188 353.777344 545.183594 Z M 353.777344 545.183594 " transform="matrix(1,0,0,-1,-127,705)"/>
<path style="fill-rule:evenodd;fill:rgb(0%,0%,0%);fill-opacity:1;stroke-width:1.2;stroke-linecap:round;stroke-linejoin:round;stroke:rgb(0%,0%,0%);stroke-opacity:1;stroke-miterlimit:10;" d="M 353.777344 497.777344 C 353.777344 507.597656 345.816406 515.554688 336 515.554688 C 326.179688 515.554688 318.222656 507.597656 318.222656 497.777344 C 318.222656 487.960938 326.179688 480 336 480 C 345.816406 480 353.777344 487.960938 353.777344 497.777344 Z M 353.777344 497.777344 " transform="matrix(1,0,0,-1,-127,705)"/>
<path style="fill-rule:evenodd;fill:rgb(0%,0%,0%);fill-opacity:1;stroke-width:1.2;stroke-linecap:round;stroke-linejoin:round;stroke:rgb(0%,0%,0%);stroke-opacity:1;stroke-miterlimit:10;" d="M 282.667969 539.257812 C 285.628906 521.480469 284.148438 512.59375 285.382812 508.148438 C 286.617188 503.703125 290.566406 503.703125 291.554688 506.667969 C 292.542969 509.628906 290.566406 515.554688 291.0625 522.964844 C 291.554688 530.371094 294.519531 539.257812 282.667969 539.257812 " transform="matrix(1,0,0,-1,-127,705)"/>
<path style="fill-rule:evenodd;fill:rgb(0%,0%,0%);fill-opacity:1;stroke-width:1.2;stroke-linecap:round;stroke-linejoin:round;stroke:rgb(0%,0%,0%);stroke-opacity:1;stroke-miterlimit:10;" d="M 282.667969 539.257812 L 292.667969 535.929688 L 292.667969 542.589844 Z M 282.667969 539.257812 " transform="matrix(1,0,0,-1,-127,705)"/>
<path style="fill-rule:evenodd;fill:rgb(0%,0%,0%);fill-opacity:1;stroke-width:1.2;stroke-linecap:round;stroke-linejoin:round;stroke:rgb(0%,0%,0%);stroke-opacity:1;stroke-miterlimit:10;" d="M 330.074219 533.332031 C 333.035156 515.554688 331.554688 506.664062 332.789062 502.222656 C 334.023438 497.777344 337.976562 497.777344 338.960938 500.738281 C 339.949219 503.703125 337.976562 509.628906 338.46875 517.035156 C 338.960938 524.445312 341.925781 533.332031 330.074219 533.332031 " transform="matrix(1,0,0,-1,-127,705)"/>
<path style="fill-rule:evenodd;fill:rgb(0%,0%,0%);fill-opacity:1;stroke-width:1.2;stroke-linecap:round;stroke-linejoin:round;stroke:rgb(0%,0%,0%);stroke-opacity:1;stroke-miterlimit:10;" d="M 330.074219 533.332031 L 340.074219 530.003906 L 340.074219 536.664062 Z M 330.074219 533.332031 " transform="matrix(1,0,0,-1,-127,705)"/>
<path style="fill-rule:evenodd;fill:rgb(0%,0%,0%);fill-opacity:1;stroke-width:1.2;stroke-linecap:round;stroke-linejoin:round;stroke:rgb(0%,0%,0%);stroke-opacity:1;stroke-miterlimit:10;" d="M 296.496094 534.289062 C 311.164062 519.59375 315.929688 510.207031 320.023438 506.871094 C 324.121094 503.539062 327.546875 506.261719 326.386719 509.734375 C 325.226562 513.203125 319.480469 517.421875 314.867188 524.734375 C 310.253906 532.050781 306.777344 542.460938 296.496094 534.289062 " transform="matrix(1,0,0,-1,-127,705)"/>
<path style="fill-rule:evenodd;fill:rgb(0%,0%,0%);fill-opacity:1;stroke-width:1.2;stroke-linecap:round;stroke-linejoin:round;stroke:rgb(0%,0%,0%);stroke-opacity:1;stroke-miterlimit:10;" d="M 296.496094 534.289062 L 306.394531 537.90625 L 302.25 543.117188 Z M 296.496094 534.289062 " transform="matrix(1,0,0,-1,-127,705)"/>
<path style="fill-rule:evenodd;fill:rgb(0%,0%,0%);fill-opacity:1;stroke-width:1.2;stroke-linecap:round;stroke-linejoin:round;stroke:rgb(0%,0%,0%);stroke-opacity:1;stroke-miterlimit:10;" d="M 306.371094 608.59375 C 306.371094 618.410156 298.410156 626.371094 288.59375 626.371094 C 278.773438 626.371094 270.816406 618.410156 270.816406 608.59375 C 270.816406 598.773438 278.773438 590.8125 288.59375 590.8125 C 298.410156 590.8125 306.371094 598.773438 306.371094 608.59375 Z M 306.371094 608.59375 " transform="matrix(1,0,0,-1,-127,705)"/>
<path style="fill-rule:evenodd;fill:rgb(0%,0%,0%);fill-opacity:1;stroke-width:1.2;stroke-linecap:round;stroke-linejoin:round;stroke:rgb(0%,0%,0%);stroke-opacity:1;stroke-miterlimit:10;" d="M 306.371094 656 C 306.371094 665.820312 298.410156 673.777344 288.59375 673.777344 C 278.773438 673.777344 270.816406 665.820312 270.816406 656 C 270.816406 646.183594 278.773438 638.222656 288.59375 638.222656 C 298.410156 638.222656 306.371094 646.183594 306.371094 656 Z M 306.371094 656 " transform="matrix(1,0,0,-1,-127,705)"/>
<path style="fill-rule:evenodd;fill:rgb(0%,0%,0%);fill-opacity:1;stroke-width:1.2;stroke-linecap:round;stroke-linejoin:round;stroke:rgb(0%,0%,0%);stroke-opacity:1;stroke-miterlimit:10;" d="M 353.777344 656 C 353.777344 665.820312 345.816406 673.777344 336 673.777344 C 326.179688 673.777344 318.222656 665.820312 318.222656 656 C 318.222656 646.183594 326.179688 638.222656 336 638.222656 C 345.816406 638.222656 353.777344 646.183594 353.777344 656 Z M 353.777344 656 " transform="matrix(1,0,0,-1,-127,705)"/>
<path style="fill-rule:evenodd;fill:rgb(0%,0%,0%);fill-opacity:1;stroke-width:1.2;stroke-linecap:round;stroke-linejoin:round;stroke:rgb(0%,0%,0%);stroke-opacity:1;stroke-miterlimit:10;" d="M 353.777344 608.59375 C 353.777344 618.410156 345.816406 626.371094 336 626.371094 C 326.179688 626.371094 318.222656 618.410156 318.222656 608.59375 C 318.222656 598.773438 326.179688 590.8125 336 590.8125 C 345.816406 590.8125 353.777344 598.773438 353.777344 608.59375 Z M 353.777344 608.59375 " transform="matrix(1,0,0,-1,-127,705)"/>
<path style="fill-rule:evenodd;fill:rgb(0%,0%,0%);fill-opacity:1;stroke-width:1.2;stroke-linecap:round;stroke-linejoin:round;stroke:rgb(0%,0%,0%);stroke-opacity:1;stroke-miterlimit:10;" d="M 282.667969 650.074219 C 285.628906 632.296875 284.148438 623.40625 285.382812 618.960938 C 286.617188 614.519531 290.566406 614.519531 291.554688 617.480469 C 292.542969 620.445312 290.566406 626.371094 291.0625 633.777344 C 291.554688 641.183594 294.519531 650.074219 282.667969 650.074219 " transform="matrix(1,0,0,-1,-127,705)"/>
<path style="fill-rule:evenodd;fill:rgb(0%,0%,0%);fill-opacity:1;stroke-width:1.2;stroke-linecap:round;stroke-linejoin:round;stroke:rgb(0%,0%,0%);stroke-opacity:1;stroke-miterlimit:10;" d="M 282.667969 650.074219 L 292.667969 646.742188 L 292.667969 653.402344 Z M 282.667969 650.074219 " transform="matrix(1,0,0,-1,-127,705)"/>
<path style="fill-rule:evenodd;fill:rgb(0%,0%,0%);fill-opacity:1;stroke-width:1.2;stroke-linecap:round;stroke-linejoin:round;stroke:rgb(0%,0%,0%);stroke-opacity:1;stroke-miterlimit:10;" d="M 330.074219 644.148438 C 333.035156 626.371094 331.554688 617.480469 332.789062 613.035156 C 334.023438 608.59375 337.976562 608.59375 338.960938 611.554688 C 339.949219 614.519531 337.976562 620.445312 338.46875 627.851562 C 338.960938 635.257812 341.925781 644.148438 330.074219 644.148438 " transform="matrix(1,0,0,-1,-127,705)"/>
<path style="fill-rule:evenodd;fill:rgb(0%,0%,0%);fill-opacity:1;stroke-width:1.2;stroke-linecap:round;stroke-linejoin:round;stroke:rgb(0%,0%,0%);stroke-opacity:1;stroke-miterlimit:10;" d="M 330.074219 644.148438 L 340.074219 640.816406 L 340.074219 647.476562 Z M 330.074219 644.148438 " transform="matrix(1,0,0,-1,-127,705)"/>
<path style="fill-rule:evenodd;fill:rgb(0%,0%,0%);fill-opacity:1;stroke-width:1.2;stroke-linecap:round;stroke-linejoin:round;stroke:rgb(0%,0%,0%);stroke-opacity:1;stroke-miterlimit:10;" d="M 296.496094 645.101562 C 311.164062 630.410156 315.929688 621.019531 320.023438 617.6875 C 324.121094 614.355469 327.546875 617.078125 326.386719 620.546875 C 325.226562 624.019531 319.480469 628.234375 314.867188 635.550781 C 310.253906 642.863281 306.777344 653.273438 296.496094 645.101562 " transform="matrix(1,0,0,-1,-127,705)"/>
<path style="fill-rule:evenodd;fill:rgb(0%,0%,0%);fill-opacity:1;stroke-width:1.2;stroke-linecap:round;stroke-linejoin:round;stroke:rgb(0%,0%,0%);stroke-opacity:1;stroke-miterlimit:10;" d="M 296.496094 645.101562 L 306.394531 648.71875 L 302.25 653.933594 Z M 296.496094 645.101562 " transform="matrix(1,0,0,-1,-127,705)"/>
<path style="fill-rule:evenodd;fill:rgb(0%,0%,0%);fill-opacity:1;stroke-width:1.2;stroke-linecap:round;stroke-linejoin:round;stroke:rgb(0%,0%,0%);stroke-opacity:1;stroke-miterlimit:10;" d="M 176.296875 603.851562 C 175.210938 601.679688 177.382812 599.503906 187.160156 589.726562 C 196.9375 579.949219 214.320312 562.566406 224.097656 554.960938 C 233.875 547.359375 236.050781 549.53125 228.445312 560.394531 C 220.839844 571.257812 203.457031 590.8125 192.59375 599.503906 C 181.726562 608.195312 177.382812 606.023438 176.296875 603.851562 Z M 176.296875 603.851562 " transform="matrix(1,0,0,-1,-127,705)"/>
<path style="fill-rule:evenodd;fill:rgb(0%,0%,0%);fill-opacity:1;stroke-width:1.2;stroke-linecap:round;stroke-linejoin:round;stroke:rgb(0%,0%,0%);stroke-opacity:1;stroke-miterlimit:10;" d="M 287.109375 597.332031 C 286.023438 595.160156 288.199219 592.988281 297.976562 583.210938 C 307.753906 573.433594 325.136719 556.050781 334.914062 548.445312 C 344.691406 540.839844 346.863281 543.011719 339.257812 553.875 C 331.652344 564.742188 314.269531 584.296875 303.40625 592.988281 C 292.542969 601.679688 288.199219 599.507812 287.109375 597.332031 Z M 287.109375 597.332031 " transform="matrix(1,0,0,-1,-127,705)"/>
<path style="fill-rule:evenodd;fill:rgb(0%,0%,0%);fill-opacity:1;stroke-width:1.2;stroke-linecap:round;stroke-linejoin:round;stroke:rgb(0%,0%,0%);stroke-opacity:1;stroke-miterlimit:10;" d="M 226.269531 650.566406 C 225.183594 651.652344 225.183594 653.828125 226.269531 654.914062 C 227.359375 656 229.53125 656 233.875 654.914062 C 238.222656 653.828125 244.742188 651.652344 249.085938 648.394531 C 253.429688 645.136719 255.605469 640.789062 257.777344 634.269531 C 259.949219 627.753906 262.121094 619.0625 263.210938 609.285156 C 264.296875 599.503906 264.296875 588.640625 264.296875 577.777344 C 264.296875 566.914062 264.296875 556.050781 264.296875 545.183594 C 264.296875 534.320312 264.296875 523.457031 268.640625 514.765625 C 272.988281 506.074219 281.679688 499.554688 284.9375 496.296875 C 288.195312 493.035156 286.023438 493.035156 283.851562 493.035156 C 281.679688 493.035156 279.503906 493.035156 275.160156 495.210938 C 270.8125 497.382812 264.296875 501.726562 261.035156 514.765625 C 257.777344 527.800781 257.777344 549.53125 256.691406 572.34375 C 255.605469 595.160156 253.429688 619.0625 249.085938 632.097656 C 244.742188 645.136719 238.222656 647.308594 233.875 648.394531 C 229.53125 649.480469 227.359375 649.480469 226.269531 650.566406 Z M 226.269531 650.566406 " transform="matrix(1,0,0,-1,-127,705)"/>
<path style="fill-rule:evenodd;fill:rgb(0%,0%,0%);fill-opacity:1;stroke-width:1.2;stroke-linecap:round;stroke-linejoin:round;stroke:rgb(0%,0%,0%);stroke-opacity:1;stroke-miterlimit:10;" d="M 458.074219 504.296875 C 458.074219 514.113281 450.113281 522.074219 440.296875 522.074219 C 430.476562 522.074219 422.519531 514.113281 422.519531 504.296875 C 422.519531 494.476562 430.476562 486.519531 440.296875 486.519531 C 450.113281 486.519531 458.074219 494.476562 458.074219 504.296875 Z M 458.074219 504.296875 " transform="matrix(1,0,0,-1,-127,705)"/>
<path style="fill-rule:evenodd;fill:rgb(0%,0%,0%);fill-opacity:1;stroke-width:1.2;stroke-linecap:round;stroke-linejoin:round;stroke:rgb(0%,0%,0%);stroke-opacity:1;stroke-miterlimit:10;" d="M 458.074219 551.703125 C 458.074219 561.523438 450.113281 569.480469 440.296875 569.480469 C 430.476562 569.480469 422.519531 561.523438 422.519531 551.703125 C 422.519531 541.886719 430.476562 533.925781 440.296875 533.925781 C 450.113281 533.925781 458.074219 541.886719 458.074219 551.703125 Z M 458.074219 551.703125 " transform="matrix(1,0,0,-1,-127,705)"/>
<path style="fill-rule:evenodd;fill:rgb(0%,0%,0%);fill-opacity:1;stroke-width:1.2;stroke-linecap:round;stroke-linejoin:round;stroke:rgb(0%,0%,0%);stroke-opacity:1;stroke-miterlimit:10;" d="M 505.480469 551.703125 C 505.480469 561.523438 497.523438 569.480469 487.703125 569.480469 C 477.886719 569.480469 469.925781 561.523438 469.925781 551.703125 C 469.925781 541.886719 477.886719 533.925781 487.703125 533.925781 C 497.523438 533.925781 505.480469 541.886719 505.480469 551.703125 Z M 505.480469 551.703125 " transform="matrix(1,0,0,-1,-127,705)"/>
<path style="fill-rule:evenodd;fill:rgb(0%,0%,0%);fill-opacity:1;stroke-width:1.2;stroke-linecap:round;stroke-linejoin:round;stroke:rgb(0%,0%,0%);stroke-opacity:1;stroke-miterlimit:10;" d="M 505.480469 504.296875 C 505.480469 514.113281 497.523438 522.074219 487.703125 522.074219 C 477.886719 522.074219 469.925781 514.113281 469.925781 504.296875 C 469.925781 494.476562 477.886719 486.519531 487.703125 486.519531 C 497.523438 486.519531 505.480469 494.476562 505.480469 504.296875 Z M 505.480469 504.296875 " transform="matrix(1,0,0,-1,-127,705)"/>
<path style="fill-rule:evenodd;fill:rgb(0%,0%,0%);fill-opacity:1;stroke-width:1.2;stroke-linecap:round;stroke-linejoin:round;stroke:rgb(0%,0%,0%);stroke-opacity:1;stroke-miterlimit:10;" d="M 434.371094 545.777344 C 437.332031 528 435.851562 519.109375 437.085938 514.667969 C 438.320312 510.222656 442.273438 510.222656 443.257812 513.183594 C 444.246094 516.148438 442.273438 522.074219 442.765625 529.480469 C 443.257812 536.890625 446.222656 545.777344 434.371094 545.777344 " transform="matrix(1,0,0,-1,-127,705)"/>
<path style="fill-rule:evenodd;fill:rgb(0%,0%,0%);fill-opacity:1;stroke-width:1.2;stroke-linecap:round;stroke-linejoin:round;stroke:rgb(0%,0%,0%);stroke-opacity:1;stroke-miterlimit:10;" d="M 434.371094 545.777344 L 444.371094 542.449219 L 444.371094 549.109375 Z M 434.371094 545.777344 " transform="matrix(1,0,0,-1,-127,705)"/>
<path style="fill-rule:evenodd;fill:rgb(0%,0%,0%);fill-opacity:1;stroke-width:1.2;stroke-linecap:round;stroke-linejoin:round;stroke:rgb(0%,0%,0%);stroke-opacity:1;stroke-miterlimit:10;" d="M 481.777344 539.851562 C 484.742188 522.074219 483.257812 513.183594 484.492188 508.742188 C 485.726562 504.296875 489.679688 504.296875 490.667969 507.257812 C 491.652344 510.222656 489.679688 516.148438 490.171875 523.554688 C 490.667969 530.960938 493.628906 539.851562 481.777344 539.851562 " transform="matrix(1,0,0,-1,-127,705)"/>
<path style="fill-rule:evenodd;fill:rgb(0%,0%,0%);fill-opacity:1;stroke-width:1.2;stroke-linecap:round;stroke-linejoin:round;stroke:rgb(0%,0%,0%);stroke-opacity:1;stroke-miterlimit:10;" d="M 481.777344 539.851562 L 491.777344 536.523438 L 491.777344 543.179688 Z M 481.777344 539.851562 " transform="matrix(1,0,0,-1,-127,705)"/>
<path style="fill-rule:evenodd;fill:rgb(0%,0%,0%);fill-opacity:1;stroke-width:1.2;stroke-linecap:round;stroke-linejoin:round;stroke:rgb(0%,0%,0%);stroke-opacity:1;stroke-miterlimit:10;" d="M 448.199219 540.804688 C 462.867188 526.113281 467.632812 516.722656 471.726562 513.390625 C 475.824219 510.058594 479.25 512.78125 478.089844 516.253906 C 476.929688 519.722656 471.183594 523.9375 466.570312 531.253906 C 461.960938 538.566406 458.480469 548.980469 448.199219 540.804688 " transform="matrix(1,0,0,-1,-127,705)"/>
<path style="fill-rule:evenodd;fill:rgb(0%,0%,0%);fill-opacity:1;stroke-width:1.2;stroke-linecap:round;stroke-linejoin:round;stroke:rgb(0%,0%,0%);stroke-opacity:1;stroke-miterlimit:10;" d="M 448.199219 540.804688 L 458.101562 544.421875 L 453.957031 549.636719 Z M 448.199219 540.804688 " transform="matrix(1,0,0,-1,-127,705)"/>
<path style="fill-rule:evenodd;fill:rgb(0%,0%,0%);fill-opacity:1;stroke-width:1.2;stroke-linecap:round;stroke-linejoin:round;stroke:rgb(0%,0%,0%);stroke-opacity:1;stroke-miterlimit:10;" d="M 451.554688 608.59375 C 451.554688 618.410156 443.597656 626.371094 433.777344 626.371094 C 423.957031 626.371094 416 618.410156 416 608.59375 C 416 598.773438 423.957031 590.8125 433.777344 590.8125 C 443.597656 590.8125 451.554688 598.773438 451.554688 608.59375 Z M 451.554688 608.59375 " transform="matrix(1,0,0,-1,-127,705)"/>
<path style="fill-rule:evenodd;fill:rgb(0%,0%,0%);fill-opacity:1;stroke-width:1.2;stroke-linecap:round;stroke-linejoin:round;stroke:rgb(0%,0%,0%);stroke-opacity:1;stroke-miterlimit:10;" d="M 451.554688 656 C 451.554688 665.820312 443.597656 673.777344 433.777344 673.777344 C 423.957031 673.777344 416 665.820312 416 656 C 416 646.183594 423.957031 638.222656 433.777344 638.222656 C 443.597656 638.222656 451.554688 646.183594 451.554688 656 Z M 451.554688 656 " transform="matrix(1,0,0,-1,-127,705)"/>
<path style="fill-rule:evenodd;fill:rgb(0%,0%,0%);fill-opacity:1;stroke-width:1.2;stroke-linecap:round;stroke-linejoin:round;stroke:rgb(0%,0%,0%);stroke-opacity:1;stroke-miterlimit:10;" d="M 498.964844 656 C 498.964844 665.820312 491.003906 673.777344 481.183594 673.777344 C 471.367188 673.777344 463.40625 665.820312 463.40625 656 C 463.40625 646.183594 471.367188 638.222656 481.183594 638.222656 C 491.003906 638.222656 498.964844 646.183594 498.964844 656 Z M 498.964844 656 " transform="matrix(1,0,0,-1,-127,705)"/>
<path style="fill-rule:evenodd;fill:rgb(0%,0%,0%);fill-opacity:1;stroke-width:1.2;stroke-linecap:round;stroke-linejoin:round;stroke:rgb(0%,0%,0%);stroke-opacity:1;stroke-miterlimit:10;" d="M 498.964844 608.59375 C 498.964844 618.410156 491.003906 626.371094 481.183594 626.371094 C 471.367188 626.371094 463.40625 618.410156 463.40625 608.59375 C 463.40625 598.773438 471.367188 590.8125 481.183594 590.8125 C 491.003906 590.8125 498.964844 598.773438 498.964844 608.59375 Z M 498.964844 608.59375 " transform="matrix(1,0,0,-1,-127,705)"/>
<path style="fill-rule:evenodd;fill:rgb(0%,0%,0%);fill-opacity:1;stroke-width:1.2;stroke-linecap:round;stroke-linejoin:round;stroke:rgb(0%,0%,0%);stroke-opacity:1;stroke-miterlimit:10;" d="M 427.851562 650.074219 C 430.8125 632.296875 429.332031 623.40625 430.566406 618.960938 C 431.800781 614.519531 435.753906 614.519531 436.742188 617.480469 C 437.726562 620.445312 435.753906 626.371094 436.246094 633.777344 C 436.742188 641.183594 439.703125 650.074219 427.851562 650.074219 " transform="matrix(1,0,0,-1,-127,705)"/>
<path style="fill-rule:evenodd;fill:rgb(0%,0%,0%);fill-opacity:1;stroke-width:1.2;stroke-linecap:round;stroke-linejoin:round;stroke:rgb(0%,0%,0%);stroke-opacity:1;stroke-miterlimit:10;" d="M 427.851562 650.074219 L 437.851562 646.742188 L 437.851562 653.402344 Z M 427.851562 650.074219 " transform="matrix(1,0,0,-1,-127,705)"/>
<path style="fill-rule:evenodd;fill:rgb(0%,0%,0%);fill-opacity:1;stroke-width:1.2;stroke-linecap:round;stroke-linejoin:round;stroke:rgb(0%,0%,0%);stroke-opacity:1;stroke-miterlimit:10;" d="M 475.257812 644.148438 C 478.222656 626.371094 476.742188 617.480469 477.976562 613.035156 C 479.210938 608.59375 483.160156 608.59375 484.148438 611.554688 C 485.136719 614.519531 483.160156 620.445312 483.65625 627.851562 C 484.148438 635.257812 487.109375 644.148438 475.257812 644.148438 " transform="matrix(1,0,0,-1,-127,705)"/>
<path style="fill-rule:evenodd;fill:rgb(0%,0%,0%);fill-opacity:1;stroke-width:1.2;stroke-linecap:round;stroke-linejoin:round;stroke:rgb(0%,0%,0%);stroke-opacity:1;stroke-miterlimit:10;" d="M 475.257812 644.148438 L 485.257812 640.816406 L 485.257812 647.476562 Z M 475.257812 644.148438 " transform="matrix(1,0,0,-1,-127,705)"/>
<path style="fill-rule:evenodd;fill:rgb(0%,0%,0%);fill-opacity:1;stroke-width:1.2;stroke-linecap:round;stroke-linejoin:round;stroke:rgb(0%,0%,0%);stroke-opacity:1;stroke-miterlimit:10;" d="M 441.679688 645.101562 C 456.347656 630.410156 461.113281 621.019531 465.207031 617.6875 C 469.304688 614.355469 472.730469 617.078125 471.570312 620.546875 C 470.410156 624.019531 464.664062 628.234375 460.054688 635.550781 C 455.441406 642.863281 451.960938 653.273438 441.679688 645.101562 " transform="matrix(1,0,0,-1,-127,705)"/>
<path style="fill-rule:evenodd;fill:rgb(0%,0%,0%);fill-opacity:1;stroke-width:1.2;stroke-linecap:round;stroke-linejoin:round;stroke:rgb(0%,0%,0%);stroke-opacity:1;stroke-miterlimit:10;" d="M 441.679688 645.101562 L 451.582031 648.71875 L 447.4375 653.933594 Z M 441.679688 645.101562 " transform="matrix(1,0,0,-1,-127,705)"/>
<path style="fill-rule:evenodd;fill:rgb(0%,0%,0%);fill-opacity:1;stroke-width:1.2;stroke-linecap:round;stroke-linejoin:round;stroke:rgb(0%,0%,0%);stroke-opacity:1;stroke-miterlimit:10;" d="M 562.371094 497.777344 C 562.371094 507.597656 554.410156 515.554688 544.59375 515.554688 C 534.773438 515.554688 526.816406 507.597656 526.816406 497.777344 C 526.816406 487.960938 534.773438 480 544.59375 480 C 554.410156 480 562.371094 487.960938 562.371094 497.777344 Z M 562.371094 497.777344 " transform="matrix(1,0,0,-1,-127,705)"/>
<path style="fill-rule:evenodd;fill:rgb(0%,0%,0%);fill-opacity:1;stroke-width:1.2;stroke-linecap:round;stroke-linejoin:round;stroke:rgb(0%,0%,0%);stroke-opacity:1;stroke-miterlimit:10;" d="M 562.371094 545.183594 C 562.371094 555.003906 554.410156 562.964844 544.59375 562.964844 C 534.773438 562.964844 526.816406 555.003906 526.816406 545.183594 C 526.816406 535.367188 534.773438 527.40625 544.59375 527.40625 C 554.410156 527.40625 562.371094 535.367188 562.371094 545.183594 Z M 562.371094 545.183594 " transform="matrix(1,0,0,-1,-127,705)"/>
<path style="fill-rule:evenodd;fill:rgb(0%,0%,0%);fill-opacity:1;stroke-width:1.2;stroke-linecap:round;stroke-linejoin:round;stroke:rgb(0%,0%,0%);stroke-opacity:1;stroke-miterlimit:10;" d="M 609.777344 545.183594 C 609.777344 555.003906 601.816406 562.964844 592 562.964844 C 582.179688 562.964844 574.222656 555.003906 574.222656 545.183594 C 574.222656 535.367188 582.179688 527.40625 592 527.40625 C 601.816406 527.40625 609.777344 535.367188 609.777344 545.183594 Z M 609.777344 545.183594 " transform="matrix(1,0,0,-1,-127,705)"/>
<path style="fill-rule:evenodd;fill:rgb(0%,0%,0%);fill-opacity:1;stroke-width:1.2;stroke-linecap:round;stroke-linejoin:round;stroke:rgb(0%,0%,0%);stroke-opacity:1;stroke-miterlimit:10;" d="M 609.777344 497.777344 C 609.777344 507.597656 601.816406 515.554688 592 515.554688 C 582.179688 515.554688 574.222656 507.597656 574.222656 497.777344 C 574.222656 487.960938 582.179688 480 592 480 C 601.816406 480 609.777344 487.960938 609.777344 497.777344 Z M 609.777344 497.777344 " transform="matrix(1,0,0,-1,-127,705)"/>
<path style="fill-rule:evenodd;fill:rgb(0%,0%,0%);fill-opacity:1;stroke-width:1.2;stroke-linecap:round;stroke-linejoin:round;stroke:rgb(0%,0%,0%);stroke-opacity:1;stroke-miterlimit:10;" d="M 538.667969 539.257812 C 541.628906 521.480469 540.148438 512.59375 541.382812 508.148438 C 542.617188 503.703125 546.566406 503.703125 547.554688 506.667969 C 548.542969 509.628906 546.566406 515.554688 547.0625 522.964844 C 547.554688 530.371094 550.519531 539.257812 538.667969 539.257812 " transform="matrix(1,0,0,-1,-127,705)"/>
<path style="fill-rule:evenodd;fill:rgb(0%,0%,0%);fill-opacity:1;stroke-width:1.2;stroke-linecap:round;stroke-linejoin:round;stroke:rgb(0%,0%,0%);stroke-opacity:1;stroke-miterlimit:10;" d="M 538.667969 539.257812 L 548.667969 535.929688 L 548.667969 542.589844 Z M 538.667969 539.257812 " transform="matrix(1,0,0,-1,-127,705)"/>
<path style="fill-rule:evenodd;fill:rgb(0%,0%,0%);fill-opacity:1;stroke-width:1.2;stroke-linecap:round;stroke-linejoin:round;stroke:rgb(0%,0%,0%);stroke-opacity:1;stroke-miterlimit:10;" d="M 586.074219 533.332031 C 589.035156 515.554688 587.554688 506.664062 588.789062 502.222656 C 590.023438 497.777344 593.976562 497.777344 594.960938 500.738281 C 595.949219 503.703125 593.976562 509.628906 594.46875 517.035156 C 594.960938 524.445312 597.925781 533.332031 586.074219 533.332031 " transform="matrix(1,0,0,-1,-127,705)"/>
<path style="fill-rule:evenodd;fill:rgb(0%,0%,0%);fill-opacity:1;stroke-width:1.2;stroke-linecap:round;stroke-linejoin:round;stroke:rgb(0%,0%,0%);stroke-opacity:1;stroke-miterlimit:10;" d="M 586.074219 533.332031 L 596.074219 530.003906 L 596.074219 536.664062 Z M 586.074219 533.332031 " transform="matrix(1,0,0,-1,-127,705)"/>
<path style="fill-rule:evenodd;fill:rgb(0%,0%,0%);fill-opacity:1;stroke-width:1.2;stroke-linecap:round;stroke-linejoin:round;stroke:rgb(0%,0%,0%);stroke-opacity:1;stroke-miterlimit:10;" d="M 552.496094 534.289062 C 567.164062 519.59375 571.929688 510.207031 576.023438 506.871094 C 580.121094 503.539062 583.546875 506.261719 582.386719 509.734375 C 581.226562 513.203125 575.480469 517.421875 570.867188 524.734375 C 566.253906 532.050781 562.777344 542.460938 552.496094 534.289062 " transform="matrix(1,0,0,-1,-127,705)"/>
<path style="fill-rule:evenodd;fill:rgb(0%,0%,0%);fill-opacity:1;stroke-width:1.2;stroke-linecap:round;stroke-linejoin:round;stroke:rgb(0%,0%,0%);stroke-opacity:1;stroke-miterlimit:10;" d="M 552.496094 534.289062 L 562.394531 537.90625 L 558.25 543.117188 Z M 552.496094 534.289062 " transform="matrix(1,0,0,-1,-127,705)"/>
<path style="fill-rule:evenodd;fill:rgb(0%,0%,0%);fill-opacity:1;stroke-width:1.2;stroke-linecap:round;stroke-linejoin:round;stroke:rgb(0%,0%,0%);stroke-opacity:1;stroke-miterlimit:10;" d="M 562.371094 608.59375 C 562.371094 618.410156 554.410156 626.371094 544.59375 626.371094 C 534.773438 626.371094 526.816406 618.410156 526.816406 608.59375 C 526.816406 598.773438 534.773438 590.8125 544.59375 590.8125 C 554.410156 590.8125 562.371094 598.773438 562.371094 608.59375 Z M 562.371094 608.59375 " transform="matrix(1,0,0,-1,-127,705)"/>
<path style="fill-rule:evenodd;fill:rgb(0%,0%,0%);fill-opacity:1;stroke-width:1.2;stroke-linecap:round;stroke-linejoin:round;stroke:rgb(0%,0%,0%);stroke-opacity:1;stroke-miterlimit:10;" d="M 562.371094 656 C 562.371094 665.820312 554.410156 673.777344 544.59375 673.777344 C 534.773438 673.777344 526.816406 665.820312 526.816406 656 C 526.816406 646.183594 534.773438 638.222656 544.59375 638.222656 C 554.410156 638.222656 562.371094 646.183594 562.371094 656 Z M 562.371094 656 " transform="matrix(1,0,0,-1,-127,705)"/>
<path style="fill-rule:evenodd;fill:rgb(0%,0%,0%);fill-opacity:1;stroke-width:1.2;stroke-linecap:round;stroke-linejoin:round;stroke:rgb(0%,0%,0%);stroke-opacity:1;stroke-miterlimit:10;" d="M 609.777344 656 C 609.777344 665.820312 601.816406 673.777344 592 673.777344 C 582.179688 673.777344 574.222656 665.820312 574.222656 656 C 574.222656 646.183594 582.179688 638.222656 592 638.222656 C 601.816406 638.222656 609.777344 646.183594 609.777344 656 Z M 609.777344 656 " transform="matrix(1,0,0,-1,-127,705)"/>
<path style="fill-rule:evenodd;fill:rgb(0%,0%,0%);fill-opacity:1;stroke-width:1.2;stroke-linecap:round;stroke-linejoin:round;stroke:rgb(0%,0%,0%);stroke-opacity:1;stroke-miterlimit:10;" d="M 609.777344 608.59375 C 609.777344 618.410156 601.816406 626.371094 592 626.371094 C 582.179688 626.371094 574.222656 618.410156 574.222656 608.59375 C 574.222656 598.773438 582.179688 590.8125 592 590.8125 C 601.816406 590.8125 609.777344 598.773438 609.777344 608.59375 Z M 609.777344 608.59375 " transform="matrix(1,0,0,-1,-127,705)"/>
<path style="fill-rule:evenodd;fill:rgb(0%,0%,0%);fill-opacity:1;stroke-width:1.2;stroke-linecap:round;stroke-linejoin:round;stroke:rgb(0%,0%,0%);stroke-opacity:1;stroke-miterlimit:10;" d="M 538.667969 650.074219 C 541.628906 632.296875 540.148438 623.40625 541.382812 618.960938 C 542.617188 614.519531 546.566406 614.519531 547.554688 617.480469 C 548.542969 620.445312 546.566406 626.371094 547.0625 633.777344 C 547.554688 641.183594 550.519531 650.074219 538.667969 650.074219 " transform="matrix(1,0,0,-1,-127,705)"/>
<path style="fill-rule:evenodd;fill:rgb(0%,0%,0%);fill-opacity:1;stroke-width:1.2;stroke-linecap:round;stroke-linejoin:round;stroke:rgb(0%,0%,0%);stroke-opacity:1;stroke-miterlimit:10;" d="M 538.667969 650.074219 L 548.667969 646.742188 L 548.667969 653.402344 Z M 538.667969 650.074219 " transform="matrix(1,0,0,-1,-127,705)"/>
<path style="fill-rule:evenodd;fill:rgb(0%,0%,0%);fill-opacity:1;stroke-width:1.2;stroke-linecap:round;stroke-linejoin:round;stroke:rgb(0%,0%,0%);stroke-opacity:1;stroke-miterlimit:10;" d="M 586.074219 644.148438 C 589.035156 626.371094 587.554688 617.480469 588.789062 613.035156 C 590.023438 608.59375 593.976562 608.59375 594.960938 611.554688 C 595.949219 614.519531 593.976562 620.445312 594.46875 627.851562 C 594.960938 635.257812 597.925781 644.148438 586.074219 644.148438 " transform="matrix(1,0,0,-1,-127,705)"/>
<path style="fill-rule:evenodd;fill:rgb(0%,0%,0%);fill-opacity:1;stroke-width:1.2;stroke-linecap:round;stroke-linejoin:round;stroke:rgb(0%,0%,0%);stroke-opacity:1;stroke-miterlimit:10;" d="M 586.074219 644.148438 L 596.074219 640.816406 L 596.074219 647.476562 Z M 586.074219 644.148438 " transform="matrix(1,0,0,-1,-127,705)"/>
<path style="fill-rule:evenodd;fill:rgb(0%,0%,0%);fill-opacity:1;stroke-width:1.2;stroke-linecap:round;stroke-linejoin:round;stroke:rgb(0%,0%,0%);stroke-opacity:1;stroke-miterlimit:10;" d="M 552.496094 645.101562 C 567.164062 630.410156 571.929688 621.019531 576.023438 617.6875 C 580.121094 614.355469 583.546875 617.078125 582.386719 620.546875 C 581.226562 624.019531 575.480469 628.234375 570.867188 635.550781 C 566.253906 642.863281 562.777344 653.273438 552.496094 645.101562 " transform="matrix(1,0,0,-1,-127,705)"/>
<path style="fill-rule:evenodd;fill:rgb(0%,0%,0%);fill-opacity:1;stroke-width:1.2;stroke-linecap:round;stroke-linejoin:round;stroke:rgb(0%,0%,0%);stroke-opacity:1;stroke-miterlimit:10;" d="M 552.496094 645.101562 L 562.394531 648.71875 L 558.25 653.933594 Z M 552.496094 645.101562 " transform="matrix(1,0,0,-1,-127,705)"/>
<path style="fill-rule:evenodd;fill:rgb(0%,0%,0%);fill-opacity:1;stroke-width:1.2;stroke-linecap:round;stroke-linejoin:round;stroke:rgb(0%,0%,0%);stroke-opacity:1;stroke-miterlimit:10;" d="M 432.296875 603.851562 C 431.210938 601.679688 433.382812 599.503906 443.160156 589.726562 C 452.9375 579.949219 470.320312 562.566406 480.097656 554.960938 C 489.875 547.359375 492.050781 549.53125 484.445312 560.394531 C 476.839844 571.257812 459.457031 590.8125 448.59375 599.503906 C 437.726562 608.195312 433.382812 606.023438 432.296875 603.851562 Z M 432.296875 603.851562 " transform="matrix(1,0,0,-1,-127,705)"/>
<path style="fill-rule:evenodd;fill:rgb(0%,0%,0%);fill-opacity:1;stroke-width:1.2;stroke-linecap:round;stroke-linejoin:round;stroke:rgb(0%,0%,0%);stroke-opacity:1;stroke-miterlimit:10;" d="M 543.109375 597.332031 C 542.023438 595.160156 544.199219 592.988281 553.976562 583.210938 C 563.753906 573.433594 581.136719 556.050781 590.914062 548.445312 C 600.691406 540.839844 602.863281 543.011719 595.257812 553.875 C 587.652344 564.742188 570.269531 584.296875 559.40625 592.988281 C 548.542969 601.679688 544.199219 599.507812 543.109375 597.332031 Z M 543.109375 597.332031 " transform="matrix(1,0,0,-1,-127,705)"/>
<path style="fill-rule:evenodd;fill:rgb(0%,0%,0%);fill-opacity:1;stroke-width:1.2;stroke-linecap:round;stroke-linejoin:round;stroke:rgb(0%,0%,0%);stroke-opacity:1;stroke-miterlimit:10;" d="M 482.269531 650.566406 C 481.183594 651.652344 481.183594 653.828125 482.269531 654.914062 C 483.359375 656 485.53125 656 489.875 654.914062 C 494.222656 653.828125 500.742188 651.652344 505.085938 648.394531 C 509.429688 645.136719 511.605469 640.789062 513.777344 634.269531 C 515.949219 627.753906 518.121094 619.0625 519.210938 609.285156 C 520.296875 599.503906 520.296875 588.640625 520.296875 577.777344 C 520.296875 566.914062 520.296875 556.050781 520.296875 545.183594 C 520.296875 534.320312 520.296875 523.457031 524.640625 514.765625 C 528.988281 506.074219 537.679688 499.554688 540.9375 496.296875 C 544.195312 493.035156 542.023438 493.035156 539.851562 493.035156 C 537.679688 493.035156 535.503906 493.035156 531.160156 495.210938 C 526.8125 497.382812 520.296875 501.726562 517.035156 514.765625 C 513.777344 527.800781 513.777344 549.53125 512.691406 572.34375 C 511.605469 595.160156 509.429688 619.0625 505.085938 632.097656 C 500.742188 645.136719 494.222656 647.308594 489.875 648.394531 C 485.53125 649.480469 483.359375 649.480469 482.269531 650.566406 Z M 482.269531 650.566406 " transform="matrix(1,0,0,-1,-127,705)"/>
<path style="fill-rule:evenodd;fill:rgb(0%,0%,0%);fill-opacity:1;stroke-width:1.2;stroke-linecap:round;stroke-linejoin:round;stroke:rgb(0%,0%,0%);stroke-opacity:1;stroke-miterlimit:10;" d="M 458.074219 248.296875 C 458.074219 258.113281 450.113281 266.074219 440.296875 266.074219 C 430.476562 266.074219 422.519531 258.113281 422.519531 248.296875 C 422.519531 238.476562 430.476562 230.519531 440.296875 230.519531 C 450.113281 230.519531 458.074219 238.476562 458.074219 248.296875 Z M 458.074219 248.296875 " transform="matrix(1,0,0,-1,-127,705)"/>
<path style="fill-rule:evenodd;fill:rgb(0%,0%,0%);fill-opacity:1;stroke-width:1.2;stroke-linecap:round;stroke-linejoin:round;stroke:rgb(0%,0%,0%);stroke-opacity:1;stroke-miterlimit:10;" d="M 458.074219 295.703125 C 458.074219 305.523438 450.113281 313.480469 440.296875 313.480469 C 430.476562 313.480469 422.519531 305.523438 422.519531 295.703125 C 422.519531 285.886719 430.476562 277.925781 440.296875 277.925781 C 450.113281 277.925781 458.074219 285.886719 458.074219 295.703125 Z M 458.074219 295.703125 " transform="matrix(1,0,0,-1,-127,705)"/>
<path style="fill-rule:evenodd;fill:rgb(0%,0%,0%);fill-opacity:1;stroke-width:1.2;stroke-linecap:round;stroke-linejoin:round;stroke:rgb(0%,0%,0%);stroke-opacity:1;stroke-miterlimit:10;" d="M 505.480469 295.703125 C 505.480469 305.523438 497.523438 313.480469 487.703125 313.480469 C 477.886719 313.480469 469.925781 305.523438 469.925781 295.703125 C 469.925781 285.886719 477.886719 277.925781 487.703125 277.925781 C 497.523438 277.925781 505.480469 285.886719 505.480469 295.703125 Z M 505.480469 295.703125 " transform="matrix(1,0,0,-1,-127,705)"/>
<path style="fill-rule:evenodd;fill:rgb(0%,0%,0%);fill-opacity:1;stroke-width:1.2;stroke-linecap:round;stroke-linejoin:round;stroke:rgb(0%,0%,0%);stroke-opacity:1;stroke-miterlimit:10;" d="M 505.480469 248.296875 C 505.480469 258.113281 497.523438 266.074219 487.703125 266.074219 C 477.886719 266.074219 469.925781 258.113281 469.925781 248.296875 C 469.925781 238.476562 477.886719 230.519531 487.703125 230.519531 C 497.523438 230.519531 505.480469 238.476562 505.480469 248.296875 Z M 505.480469 248.296875 " transform="matrix(1,0,0,-1,-127,705)"/>
<path style="fill-rule:evenodd;fill:rgb(0%,0%,0%);fill-opacity:1;stroke-width:1.2;stroke-linecap:round;stroke-linejoin:round;stroke:rgb(0%,0%,0%);stroke-opacity:1;stroke-miterlimit:10;" d="M 434.371094 289.777344 C 437.332031 272 435.851562 263.109375 437.085938 258.667969 C 438.320312 254.222656 442.273438 254.222656 443.257812 257.183594 C 444.246094 260.148438 442.273438 266.074219 442.765625 273.480469 C 443.257812 280.890625 446.222656 289.777344 434.371094 289.777344 " transform="matrix(1,0,0,-1,-127,705)"/>
<path style="fill-rule:evenodd;fill:rgb(0%,0%,0%);fill-opacity:1;stroke-width:1.2;stroke-linecap:round;stroke-linejoin:round;stroke:rgb(0%,0%,0%);stroke-opacity:1;stroke-miterlimit:10;" d="M 434.371094 289.777344 L 444.371094 286.449219 L 444.371094 293.109375 Z M 434.371094 289.777344 " transform="matrix(1,0,0,-1,-127,705)"/>
<path style="fill-rule:evenodd;fill:rgb(0%,0%,0%);fill-opacity:1;stroke-width:1.2;stroke-linecap:round;stroke-linejoin:round;stroke:rgb(0%,0%,0%);stroke-opacity:1;stroke-miterlimit:10;" d="M 481.777344 283.851562 C 484.742188 266.074219 483.257812 257.183594 484.492188 252.742188 C 485.726562 248.296875 489.679688 248.296875 490.667969 251.257812 C 491.652344 254.222656 489.679688 260.148438 490.171875 267.554688 C 490.667969 274.960938 493.628906 283.851562 481.777344 283.851562 " transform="matrix(1,0,0,-1,-127,705)"/>
<path style="fill-rule:evenodd;fill:rgb(0%,0%,0%);fill-opacity:1;stroke-width:1.2;stroke-linecap:round;stroke-linejoin:round;stroke:rgb(0%,0%,0%);stroke-opacity:1;stroke-miterlimit:10;" d="M 481.777344 283.851562 L 491.777344 280.523438 L 491.777344 287.179688 Z M 481.777344 283.851562 " transform="matrix(1,0,0,-1,-127,705)"/>
<path style="fill-rule:evenodd;fill:rgb(0%,0%,0%);fill-opacity:1;stroke-width:1.2;stroke-linecap:round;stroke-linejoin:round;stroke:rgb(0%,0%,0%);stroke-opacity:1;stroke-miterlimit:10;" d="M 448.199219 284.804688 C 462.867188 270.113281 467.632812 260.722656 471.726562 257.390625 C 475.824219 254.058594 479.25 256.78125 478.089844 260.253906 C 476.929688 263.722656 471.183594 267.9375 466.570312 275.253906 C 461.960938 282.566406 458.480469 292.980469 448.199219 284.804688 " transform="matrix(1,0,0,-1,-127,705)"/>
<path style="fill-rule:evenodd;fill:rgb(0%,0%,0%);fill-opacity:1;stroke-width:1.2;stroke-linecap:round;stroke-linejoin:round;stroke:rgb(0%,0%,0%);stroke-opacity:1;stroke-miterlimit:10;" d="M 448.199219 284.804688 L 458.101562 288.421875 L 453.957031 293.636719 Z M 448.199219 284.804688 " transform="matrix(1,0,0,-1,-127,705)"/>
<path style="fill-rule:evenodd;fill:rgb(0%,0%,0%);fill-opacity:1;stroke-width:1.2;stroke-linecap:round;stroke-linejoin:round;stroke:rgb(0%,0%,0%);stroke-opacity:1;stroke-miterlimit:10;" d="M 451.554688 352.59375 C 451.554688 362.410156 443.597656 370.371094 433.777344 370.371094 C 423.957031 370.371094 416 362.410156 416 352.59375 C 416 342.773438 423.957031 334.8125 433.777344 334.8125 C 443.597656 334.8125 451.554688 342.773438 451.554688 352.59375 Z M 451.554688 352.59375 " transform="matrix(1,0,0,-1,-127,705)"/>
<path style="fill-rule:evenodd;fill:rgb(0%,0%,0%);fill-opacity:1;stroke-width:1.2;stroke-linecap:round;stroke-linejoin:round;stroke:rgb(0%,0%,0%);stroke-opacity:1;stroke-miterlimit:10;" d="M 451.554688 400 C 451.554688 409.820312 443.597656 417.777344 433.777344 417.777344 C 423.957031 417.777344 416 409.820312 416 400 C 416 390.183594 423.957031 382.222656 433.777344 382.222656 C 443.597656 382.222656 451.554688 390.183594 451.554688 400 Z M 451.554688 400 " transform="matrix(1,0,0,-1,-127,705)"/>
<path style="fill-rule:evenodd;fill:rgb(0%,0%,0%);fill-opacity:1;stroke-width:1.2;stroke-linecap:round;stroke-linejoin:round;stroke:rgb(0%,0%,0%);stroke-opacity:1;stroke-miterlimit:10;" d="M 498.964844 400 C 498.964844 409.820312 491.003906 417.777344 481.183594 417.777344 C 471.367188 417.777344 463.40625 409.820312 463.40625 400 C 463.40625 390.183594 471.367188 382.222656 481.183594 382.222656 C 491.003906 382.222656 498.964844 390.183594 498.964844 400 Z M 498.964844 400 " transform="matrix(1,0,0,-1,-127,705)"/>
<path style="fill-rule:evenodd;fill:rgb(0%,0%,0%);fill-opacity:1;stroke-width:1.2;stroke-linecap:round;stroke-linejoin:round;stroke:rgb(0%,0%,0%);stroke-opacity:1;stroke-miterlimit:10;" d="M 498.964844 352.59375 C 498.964844 362.410156 491.003906 370.371094 481.183594 370.371094 C 471.367188 370.371094 463.40625 362.410156 463.40625 352.59375 C 463.40625 342.773438 471.367188 334.8125 481.183594 334.8125 C 491.003906 334.8125 498.964844 342.773438 498.964844 352.59375 Z M 498.964844 352.59375 " transform="matrix(1,0,0,-1,-127,705)"/>
<path style="fill-rule:evenodd;fill:rgb(0%,0%,0%);fill-opacity:1;stroke-width:1.2;stroke-linecap:round;stroke-linejoin:round;stroke:rgb(0%,0%,0%);stroke-opacity:1;stroke-miterlimit:10;" d="M 427.851562 394.074219 C 430.8125 376.296875 429.332031 367.40625 430.566406 362.960938 C 431.800781 358.519531 435.753906 358.519531 436.742188 361.480469 C 437.726562 364.445312 435.753906 370.371094 436.246094 377.777344 C 436.742188 385.183594 439.703125 394.074219 427.851562 394.074219 " transform="matrix(1,0,0,-1,-127,705)"/>
<path style="fill-rule:evenodd;fill:rgb(0%,0%,0%);fill-opacity:1;stroke-width:1.2;stroke-linecap:round;stroke-linejoin:round;stroke:rgb(0%,0%,0%);stroke-opacity:1;stroke-miterlimit:10;" d="M 427.851562 394.074219 L 437.851562 390.742188 L 437.851562 397.402344 Z M 427.851562 394.074219 " transform="matrix(1,0,0,-1,-127,705)"/>
<path style="fill-rule:evenodd;fill:rgb(0%,0%,0%);fill-opacity:1;stroke-width:1.2;stroke-linecap:round;stroke-linejoin:round;stroke:rgb(0%,0%,0%);stroke-opacity:1;stroke-miterlimit:10;" d="M 475.257812 388.148438 C 478.222656 370.371094 476.742188 361.480469 477.976562 357.035156 C 479.210938 352.59375 483.160156 352.59375 484.148438 355.554688 C 485.136719 358.519531 483.160156 364.445312 483.65625 371.851562 C 484.148438 379.257812 487.109375 388.148438 475.257812 388.148438 " transform="matrix(1,0,0,-1,-127,705)"/>
<path style="fill-rule:evenodd;fill:rgb(0%,0%,0%);fill-opacity:1;stroke-width:1.2;stroke-linecap:round;stroke-linejoin:round;stroke:rgb(0%,0%,0%);stroke-opacity:1;stroke-miterlimit:10;" d="M 475.257812 388.148438 L 485.257812 384.816406 L 485.257812 391.476562 Z M 475.257812 388.148438 " transform="matrix(1,0,0,-1,-127,705)"/>
<path style="fill-rule:evenodd;fill:rgb(0%,0%,0%);fill-opacity:1;stroke-width:1.2;stroke-linecap:round;stroke-linejoin:round;stroke:rgb(0%,0%,0%);stroke-opacity:1;stroke-miterlimit:10;" d="M 441.679688 389.101562 C 456.347656 374.410156 461.113281 365.019531 465.207031 361.6875 C 469.304688 358.355469 472.730469 361.078125 471.570312 364.546875 C 470.410156 368.019531 464.664062 372.234375 460.054688 379.550781 C 455.441406 386.863281 451.960938 397.273438 441.679688 389.101562 " transform="matrix(1,0,0,-1,-127,705)"/>
<path style="fill-rule:evenodd;fill:rgb(0%,0%,0%);fill-opacity:1;stroke-width:1.2;stroke-linecap:round;stroke-linejoin:round;stroke:rgb(0%,0%,0%);stroke-opacity:1;stroke-miterlimit:10;" d="M 441.679688 389.101562 L 451.582031 392.71875 L 447.4375 397.933594 Z M 441.679688 389.101562 " transform="matrix(1,0,0,-1,-127,705)"/>
<path style="fill-rule:evenodd;fill:rgb(0%,0%,0%);fill-opacity:1;stroke-width:1.2;stroke-linecap:round;stroke-linejoin:round;stroke:rgb(0%,0%,0%);stroke-opacity:1;stroke-miterlimit:10;" d="M 562.371094 241.777344 C 562.371094 251.597656 554.410156 259.554688 544.59375 259.554688 C 534.773438 259.554688 526.816406 251.597656 526.816406 241.777344 C 526.816406 231.960938 534.773438 224 544.59375 224 C 554.410156 224 562.371094 231.960938 562.371094 241.777344 Z M 562.371094 241.777344 " transform="matrix(1,0,0,-1,-127,705)"/>
<path style="fill-rule:evenodd;fill:rgb(0%,0%,0%);fill-opacity:1;stroke-width:1.2;stroke-linecap:round;stroke-linejoin:round;stroke:rgb(0%,0%,0%);stroke-opacity:1;stroke-miterlimit:10;" d="M 562.371094 289.183594 C 562.371094 299.003906 554.410156 306.964844 544.59375 306.964844 C 534.773438 306.964844 526.816406 299.003906 526.816406 289.183594 C 526.816406 279.367188 534.773438 271.40625 544.59375 271.40625 C 554.410156 271.40625 562.371094 279.367188 562.371094 289.183594 Z M 562.371094 289.183594 " transform="matrix(1,0,0,-1,-127,705)"/>
<path style="fill-rule:evenodd;fill:rgb(0%,0%,0%);fill-opacity:1;stroke-width:1.2;stroke-linecap:round;stroke-linejoin:round;stroke:rgb(0%,0%,0%);stroke-opacity:1;stroke-miterlimit:10;" d="M 609.777344 289.183594 C 609.777344 299.003906 601.816406 306.964844 592 306.964844 C 582.179688 306.964844 574.222656 299.003906 574.222656 289.183594 C 574.222656 279.367188 582.179688 271.40625 592 271.40625 C 601.816406 271.40625 609.777344 279.367188 609.777344 289.183594 Z M 609.777344 289.183594 " transform="matrix(1,0,0,-1,-127,705)"/>
<path style="fill-rule:evenodd;fill:rgb(0%,0%,0%);fill-opacity:1;stroke-width:1.2;stroke-linecap:round;stroke-linejoin:round;stroke:rgb(0%,0%,0%);stroke-opacity:1;stroke-miterlimit:10;" d="M 609.777344 241.777344 C 609.777344 251.597656 601.816406 259.554688 592 259.554688 C 582.179688 259.554688 574.222656 251.597656 574.222656 241.777344 C 574.222656 231.960938 582.179688 224 592 224 C 601.816406 224 609.777344 231.960938 609.777344 241.777344 Z M 609.777344 241.777344 " transform="matrix(1,0,0,-1,-127,705)"/>
<path style="fill-rule:evenodd;fill:rgb(0%,0%,0%);fill-opacity:1;stroke-width:1.2;stroke-linecap:round;stroke-linejoin:round;stroke:rgb(0%,0%,0%);stroke-opacity:1;stroke-miterlimit:10;" d="M 538.667969 283.257812 C 541.628906 265.480469 540.148438 256.59375 541.382812 252.148438 C 542.617188 247.703125 546.566406 247.703125 547.554688 250.667969 C 548.542969 253.628906 546.566406 259.554688 547.0625 266.964844 C 547.554688 274.371094 550.519531 283.257812 538.667969 283.257812 " transform="matrix(1,0,0,-1,-127,705)"/>
<path style="fill-rule:evenodd;fill:rgb(0%,0%,0%);fill-opacity:1;stroke-width:1.2;stroke-linecap:round;stroke-linejoin:round;stroke:rgb(0%,0%,0%);stroke-opacity:1;stroke-miterlimit:10;" d="M 538.667969 283.257812 L 548.667969 279.929688 L 548.667969 286.589844 Z M 538.667969 283.257812 " transform="matrix(1,0,0,-1,-127,705)"/>
<path style="fill-rule:evenodd;fill:rgb(0%,0%,0%);fill-opacity:1;stroke-width:1.2;stroke-linecap:round;stroke-linejoin:round;stroke:rgb(0%,0%,0%);stroke-opacity:1;stroke-miterlimit:10;" d="M 586.074219 277.332031 C 589.035156 259.554688 587.554688 250.664062 588.789062 246.222656 C 590.023438 241.777344 593.976562 241.777344 594.960938 244.738281 C 595.949219 247.703125 593.976562 253.628906 594.46875 261.035156 C 594.960938 268.445312 597.925781 277.332031 586.074219 277.332031 " transform="matrix(1,0,0,-1,-127,705)"/>
<path style="fill-rule:evenodd;fill:rgb(0%,0%,0%);fill-opacity:1;stroke-width:1.2;stroke-linecap:round;stroke-linejoin:round;stroke:rgb(0%,0%,0%);stroke-opacity:1;stroke-miterlimit:10;" d="M 586.074219 277.332031 L 596.074219 274.003906 L 596.074219 280.664062 Z M 586.074219 277.332031 " transform="matrix(1,0,0,-1,-127,705)"/>
<path style="fill-rule:evenodd;fill:rgb(0%,0%,0%);fill-opacity:1;stroke-width:1.2;stroke-linecap:round;stroke-linejoin:round;stroke:rgb(0%,0%,0%);stroke-opacity:1;stroke-miterlimit:10;" d="M 552.496094 278.289062 C 567.164062 263.59375 571.929688 254.207031 576.023438 250.871094 C 580.121094 247.539062 583.546875 250.261719 582.386719 253.734375 C 581.226562 257.203125 575.480469 261.421875 570.867188 268.734375 C 566.253906 276.050781 562.777344 286.460938 552.496094 278.289062 " transform="matrix(1,0,0,-1,-127,705)"/>
<path style="fill-rule:evenodd;fill:rgb(0%,0%,0%);fill-opacity:1;stroke-width:1.2;stroke-linecap:round;stroke-linejoin:round;stroke:rgb(0%,0%,0%);stroke-opacity:1;stroke-miterlimit:10;" d="M 552.496094 278.289062 L 562.394531 281.90625 L 558.25 287.117188 Z M 552.496094 278.289062 " transform="matrix(1,0,0,-1,-127,705)"/>
<path style="fill-rule:evenodd;fill:rgb(0%,0%,0%);fill-opacity:1;stroke-width:1.2;stroke-linecap:round;stroke-linejoin:round;stroke:rgb(0%,0%,0%);stroke-opacity:1;stroke-miterlimit:10;" d="M 562.371094 352.59375 C 562.371094 362.410156 554.410156 370.371094 544.59375 370.371094 C 534.773438 370.371094 526.816406 362.410156 526.816406 352.59375 C 526.816406 342.773438 534.773438 334.8125 544.59375 334.8125 C 554.410156 334.8125 562.371094 342.773438 562.371094 352.59375 Z M 562.371094 352.59375 " transform="matrix(1,0,0,-1,-127,705)"/>
<path style="fill-rule:evenodd;fill:rgb(0%,0%,0%);fill-opacity:1;stroke-width:1.2;stroke-linecap:round;stroke-linejoin:round;stroke:rgb(0%,0%,0%);stroke-opacity:1;stroke-miterlimit:10;" d="M 562.371094 400 C 562.371094 409.820312 554.410156 417.777344 544.59375 417.777344 C 534.773438 417.777344 526.816406 409.820312 526.816406 400 C 526.816406 390.183594 534.773438 382.222656 544.59375 382.222656 C 554.410156 382.222656 562.371094 390.183594 562.371094 400 Z M 562.371094 400 " transform="matrix(1,0,0,-1,-127,705)"/>
<path style="fill-rule:evenodd;fill:rgb(0%,0%,0%);fill-opacity:1;stroke-width:1.2;stroke-linecap:round;stroke-linejoin:round;stroke:rgb(0%,0%,0%);stroke-opacity:1;stroke-miterlimit:10;" d="M 609.777344 400 C 609.777344 409.820312 601.816406 417.777344 592 417.777344 C 582.179688 417.777344 574.222656 409.820312 574.222656 400 C 574.222656 390.183594 582.179688 382.222656 592 382.222656 C 601.816406 382.222656 609.777344 390.183594 609.777344 400 Z M 609.777344 400 " transform="matrix(1,0,0,-1,-127,705)"/>
<path style="fill-rule:evenodd;fill:rgb(0%,0%,0%);fill-opacity:1;stroke-width:1.2;stroke-linecap:round;stroke-linejoin:round;stroke:rgb(0%,0%,0%);stroke-opacity:1;stroke-miterlimit:10;" d="M 609.777344 352.59375 C 609.777344 362.410156 601.816406 370.371094 592 370.371094 C 582.179688 370.371094 574.222656 362.410156 574.222656 352.59375 C 574.222656 342.773438 582.179688 334.8125 592 334.8125 C 601.816406 334.8125 609.777344 342.773438 609.777344 352.59375 Z M 609.777344 352.59375 " transform="matrix(1,0,0,-1,-127,705)"/>
<path style="fill-rule:evenodd;fill:rgb(0%,0%,0%);fill-opacity:1;stroke-width:1.2;stroke-linecap:round;stroke-linejoin:round;stroke:rgb(0%,0%,0%);stroke-opacity:1;stroke-miterlimit:10;" d="M 538.667969 394.074219 C 541.628906 376.296875 540.148438 367.40625 541.382812 362.960938 C 542.617188 358.519531 546.566406 358.519531 547.554688 361.480469 C 548.542969 364.445312 546.566406 370.371094 547.0625 377.777344 C 547.554688 385.183594 550.519531 394.074219 538.667969 394.074219 " transform="matrix(1,0,0,-1,-127,705)"/>
<path style="fill-rule:evenodd;fill:rgb(0%,0%,0%);fill-opacity:1;stroke-width:1.2;stroke-linecap:round;stroke-linejoin:round;stroke:rgb(0%,0%,0%);stroke-opacity:1;stroke-miterlimit:10;" d="M 538.667969 394.074219 L 548.667969 390.742188 L 548.667969 397.402344 Z M 538.667969 394.074219 " transform="matrix(1,0,0,-1,-127,705)"/>
<path style="fill-rule:evenodd;fill:rgb(0%,0%,0%);fill-opacity:1;stroke-width:1.2;stroke-linecap:round;stroke-linejoin:round;stroke:rgb(0%,0%,0%);stroke-opacity:1;stroke-miterlimit:10;" d="M 586.074219 388.148438 C 589.035156 370.371094 587.554688 361.480469 588.789062 357.035156 C 590.023438 352.59375 593.976562 352.59375 594.960938 355.554688 C 595.949219 358.519531 593.976562 364.445312 594.46875 371.851562 C 594.960938 379.257812 597.925781 388.148438 586.074219 388.148438 " transform="matrix(1,0,0,-1,-127,705)"/>
<path style="fill-rule:evenodd;fill:rgb(0%,0%,0%);fill-opacity:1;stroke-width:1.2;stroke-linecap:round;stroke-linejoin:round;stroke:rgb(0%,0%,0%);stroke-opacity:1;stroke-miterlimit:10;" d="M 586.074219 388.148438 L 596.074219 384.816406 L 596.074219 391.476562 Z M 586.074219 388.148438 " transform="matrix(1,0,0,-1,-127,705)"/>
<path style="fill-rule:evenodd;fill:rgb(0%,0%,0%);fill-opacity:1;stroke-width:1.2;stroke-linecap:round;stroke-linejoin:round;stroke:rgb(0%,0%,0%);stroke-opacity:1;stroke-miterlimit:10;" d="M 552.496094 389.101562 C 567.164062 374.410156 571.929688 365.019531 576.023438 361.6875 C 580.121094 358.355469 583.546875 361.078125 582.386719 364.546875 C 581.226562 368.019531 575.480469 372.234375 570.867188 379.550781 C 566.253906 386.863281 562.777344 397.273438 552.496094 389.101562 " transform="matrix(1,0,0,-1,-127,705)"/>
<path style="fill-rule:evenodd;fill:rgb(0%,0%,0%);fill-opacity:1;stroke-width:1.2;stroke-linecap:round;stroke-linejoin:round;stroke:rgb(0%,0%,0%);stroke-opacity:1;stroke-miterlimit:10;" d="M 552.496094 389.101562 L 562.394531 392.71875 L 558.25 397.933594 Z M 552.496094 389.101562 " transform="matrix(1,0,0,-1,-127,705)"/>
<path style="fill-rule:evenodd;fill:rgb(0%,0%,0%);fill-opacity:1;stroke-width:1.2;stroke-linecap:round;stroke-linejoin:round;stroke:rgb(0%,0%,0%);stroke-opacity:1;stroke-miterlimit:10;" d="M 432.296875 347.851562 C 431.210938 345.679688 433.382812 343.503906 443.160156 333.726562 C 452.9375 323.949219 470.320312 306.566406 480.097656 298.960938 C 489.875 291.359375 492.050781 293.53125 484.445312 304.394531 C 476.839844 315.257812 459.457031 334.8125 448.59375 343.503906 C 437.726562 352.195312 433.382812 350.023438 432.296875 347.851562 Z M 432.296875 347.851562 " transform="matrix(1,0,0,-1,-127,705)"/>
<path style="fill-rule:evenodd;fill:rgb(0%,0%,0%);fill-opacity:1;stroke-width:1.2;stroke-linecap:round;stroke-linejoin:round;stroke:rgb(0%,0%,0%);stroke-opacity:1;stroke-miterlimit:10;" d="M 543.109375 341.332031 C 542.023438 339.160156 544.199219 336.988281 553.976562 327.210938 C 563.753906 317.433594 581.136719 300.050781 590.914062 292.445312 C 600.691406 284.839844 602.863281 287.011719 595.257812 297.875 C 587.652344 308.742188 570.269531 328.296875 559.40625 336.988281 C 548.542969 345.679688 544.199219 343.507812 543.109375 341.332031 Z M 543.109375 341.332031 " transform="matrix(1,0,0,-1,-127,705)"/>
<path style="fill-rule:evenodd;fill:rgb(0%,0%,0%);fill-opacity:1;stroke-width:1.2;stroke-linecap:round;stroke-linejoin:round;stroke:rgb(0%,0%,0%);stroke-opacity:1;stroke-miterlimit:10;" d="M 482.269531 394.566406 C 481.183594 395.652344 481.183594 397.828125 482.269531 398.914062 C 483.359375 400 485.53125 400 489.875 398.914062 C 494.222656 397.828125 500.742188 395.652344 505.085938 392.394531 C 509.429688 389.136719 511.605469 384.789062 513.777344 378.269531 C 515.949219 371.753906 518.121094 363.0625 519.210938 353.285156 C 520.296875 343.503906 520.296875 332.640625 520.296875 321.777344 C 520.296875 310.914062 520.296875 300.050781 520.296875 289.183594 C 520.296875 278.320312 520.296875 267.457031 524.640625 258.765625 C 528.988281 250.074219 537.679688 243.554688 540.9375 240.296875 C 544.195312 237.035156 542.023438 237.035156 539.851562 237.035156 C 537.679688 237.035156 535.503906 237.035156 531.160156 239.210938 C 526.8125 241.382812 520.296875 245.726562 517.035156 258.765625 C 513.777344 271.800781 513.777344 293.53125 512.691406 316.34375 C 511.605469 339.160156 509.429688 363.0625 505.085938 376.097656 C 500.742188 389.136719 494.222656 391.308594 489.875 392.394531 C 485.53125 393.480469 483.359375 393.480469 482.269531 394.566406 Z M 482.269531 394.566406 " transform="matrix(1,0,0,-1,-127,705)"/>
<path style="fill-rule:evenodd;fill:rgb(0%,0%,0%);fill-opacity:1;stroke-width:1.2;stroke-linecap:round;stroke-linejoin:round;stroke:rgb(0%,0%,0%);stroke-opacity:1;stroke-miterlimit:10;" d="M 333.574219 394.097656 C 334.953125 392.078125 337.785156 393.902344 339.730469 398.578125 C 341.675781 403.25 342.734375 410.773438 343.527344 419.304688 C 344.320312 427.839844 344.84375 437.382812 330.945312 444.507812 C 317.046875 451.632812 288.726562 456.339844 265.035156 459.949219 C 241.347656 463.5625 222.289062 466.078125 212.058594 470.957031 C 201.824219 475.839844 200.414062 483.085938 197.90625 488.273438 C 195.398438 493.457031 191.792969 496.582031 188.230469 497.421875 C 184.667969 498.265625 181.148438 496.820312 179.753906 494.972656 C 178.359375 493.125 179.089844 490.867188 184.164062 485.34375 C 189.234375 479.820312 198.648438 471.03125 213.082031 464.28125 C 227.511719 457.53125 246.960938 452.820312 264.898438 449.054688 C 282.835938 445.292969 299.261719 442.480469 310.976562 439.691406 C 322.695312 436.902344 329.703125 434.140625 332.476562 428.835938 C 335.253906 423.535156 333.796875 415.6875 333.03125 408.832031 C 332.269531 401.980469 332.195312 396.117188 333.574219 394.097656 Z M 333.574219 394.097656 " transform="matrix(1,0,0,-1,-127,705)"/>
<path style="fill-rule:evenodd;fill:rgb(0%,0%,0%);fill-opacity:1;stroke-width:1.2;stroke-linecap:round;stroke-linejoin:round;stroke:rgb(0%,0%,0%);stroke-opacity:1;stroke-miterlimit:10;" d="M 589.574219 394.097656 C 590.953125 392.078125 593.785156 393.902344 595.730469 398.578125 C 597.675781 403.25 598.734375 410.773438 599.527344 419.304688 C 600.320312 427.839844 600.84375 437.382812 586.945312 444.507812 C 573.046875 451.632812 544.726562 456.339844 521.035156 459.949219 C 497.347656 463.5625 478.289062 466.078125 468.058594 470.957031 C 457.824219 475.839844 456.414062 483.085938 453.90625 488.273438 C 451.398438 493.457031 447.792969 496.582031 444.230469 497.421875 C 440.667969 498.265625 437.148438 496.820312 435.753906 494.972656 C 434.359375 493.125 435.089844 490.867188 440.164062 485.34375 C 445.234375 479.820312 454.648438 471.03125 469.082031 464.28125 C 483.511719 457.53125 502.960938 452.820312 520.898438 449.054688 C 538.835938 445.292969 555.261719 442.480469 566.976562 439.691406 C 578.695312 436.902344 585.703125 434.140625 588.476562 428.835938 C 591.253906 423.535156 589.796875 415.6875 589.03125 408.832031 C 588.269531 401.980469 588.195312 396.117188 589.574219 394.097656 Z M 589.574219 394.097656 " transform="matrix(1,0,0,-1,-127,705)"/>
<path style="fill-rule:evenodd;fill:rgb(0%,0%,0%);fill-opacity:1;stroke-width:1.2;stroke-linecap:round;stroke-linejoin:round;stroke:rgb(0%,0%,0%);stroke-opacity:1;stroke-miterlimit:10;" d="M 335.980469 651.984375 C 333.664062 654.738281 332.597656 658.777344 334.019531 660.625 C 335.441406 662.476562 339.351562 662.136719 349.128906 661.644531 C 358.90625 661.15625 374.546875 660.507812 383.53125 658.613281 C 392.519531 656.714844 394.84375 653.566406 395.785156 631.917969 C 396.726562 610.269531 396.277344 570.121094 395.363281 520.277344 C 394.449219 470.433594 393.0625 410.894531 392.996094 371.066406 C 392.925781 331.238281 394.175781 311.125 397.410156 296.59375 C 400.644531 282.0625 405.863281 273.109375 410.25 267.429688 C 414.640625 261.75 418.199219 259.339844 421.949219 258 C 425.695312 256.660156 429.632812 256.390625 433.941406 254.8125 C 438.246094 253.238281 442.925781 250.355469 444.949219 247.070312 C 446.976562 243.78125 446.351562 240.085938 442.1875 238.484375 C 438.027344 236.882812 430.328125 237.375 422.496094 238.882812 C 414.667969 240.394531 406.703125 242.921875 399.980469 246.199219 C 393.261719 249.472656 387.78125 253.492188 384.726562 264.082031 C 381.675781 274.675781 381.050781 291.832031 381.308594 343.941406 C 381.5625 396.050781 382.703125 483.105469 383.054688 540.949219 C 383.40625 598.789062 382.96875 627.414062 376.566406 640.105469 C 370.164062 652.792969 357.796875 649.539062 349.828125 648.652344 C 341.863281 647.761719 338.296875 649.230469 335.980469 651.984375 Z M 335.980469 651.984375 " transform="matrix(1,0,0,-1,-127,705)"/>
</g>
</svg>
