<?xml version="1.0" encoding="UTF-8"?>
<svg xmlns="http://www.w3.org/2000/svg" xmlns:xlink="http://www.w3.org/1999/xlink" width="514pt" height="514pt" viewBox="0 0 514 514" version="1.1">
<g id="surface69481">
<path style="fill-rule:evenodd;fill:rgb(82.7%,82.7%,82.7%);fill-opacity:0.3;stroke-width:1.2;stroke-linecap:butt;stroke-linejoin:round;stroke:rgb(0%,0%,0%);stroke-opacity:1;stroke-miterlimit:10;" d="M 128 704 L 128 192 L 640 192 L 640 704 Z M 128 704 " transform="matrix(1,0,0,-1,-127,705)"/>
<path style="fill-rule:evenodd;fill:rgb(0%,0%,0%);fill-opacity:1;stroke-width:1.2;stroke-linecap:round;stroke-linejoin:round;stroke:rgb(0%,0%,0%);stroke-opacity:1;stroke-miterlimit:10;" d="M 247.273438 267.636719 C 247.273438 291.734375 227.734375 311.273438 203.636719 311.273438 C 179.535156 311.273438 160 291.734375 160 267.636719 C 160 243.535156 179.535156 224 203.636719 224 C 227.734375 224 247.273438 243.535156 247.273438 267.636719 Z M 247.273438 267.636719 " transform="matrix(1,0,0,-1,-127,705)"/>
<path style="fill-rule:evenodd;fill:rgb(0%,0%,0%);fill-opacity:1;stroke-width:1.2;stroke-linecap:round;stroke-linejoin:round;stroke:rgb(0%,0%,0%);stroke-opacity:1;stroke-miterlimit:10;" d="M 247.273438 384 C 247.273438 408.097656 227.734375 427.636719 203.636719 427.636719 C 179.535156 427.636719 160 408.097656 160 384 C 160 359.898438 179.535156 340.363281 203.636719 340.363281 C 227.734375 340.363281 247.273438 359.898438 247.273438 384 Z M 247.273438 384 " transform="matrix(1,0,0,-1,-127,705)"/>
<path style="fill-rule:evenodd;fill:rgb(0%,0%,0%);fill-opacity:1;stroke-width:1.2;stroke-linecap:round;stroke-linejoin:round;stroke:rgb(0%,0%,0%);stroke-opacity:1;stroke-miterlimit:10;" d="M 363.636719 384 C 363.636719 408.097656 344.097656 427.636719 320 427.636719 C 295.898438 427.636719 276.363281 408.097656 276.363281 384 C 276.363281 359.898438 295.898438 340.363281 320 340.363281 C 344.097656 340.363281 363.636719 359.898438 363.636719 384 Z M 363.636719 384 " transform="matrix(1,0,0,-1,-127,705)"/>
<path style="fill-rule:evenodd;fill:rgb(0%,0%,0%);fill-opacity:1;stroke-width:1.2;stroke-linecap:round;stroke-linejoin:round;stroke:rgb(0%,0%,0%);stroke-opacity:1;stroke-miterlimit:10;" d="M 363.636719 267.636719 C 363.636719 291.734375 344.097656 311.273438 320 311.273438 C 295.898438 311.273438 276.363281 291.734375 276.363281 267.636719 C 276.363281 243.535156 295.898438 224 320 224 C 344.097656 224 363.636719 243.535156 363.636719 267.636719 Z M 363.636719 267.636719 " transform="matrix(1,0,0,-1,-127,705)"/>
<path style="fill-rule:evenodd;fill:rgb(0%,0%,0%);fill-opacity:1;stroke-width:1.2;stroke-linecap:round;stroke-linejoin:round;stroke:rgb(0%,0%,0%);stroke-opacity:1;stroke-miterlimit:10;" d="M 189.089844 369.453125 C 196.363281 325.816406 192.726562 304 195.757812 293.089844 C 198.789062 282.183594 208.484375 282.183594 210.910156 289.453125 C 213.332031 296.726562 208.484375 311.273438 209.695312 329.453125 C 210.910156 347.636719 218.183594 369.453125 189.089844 369.453125 " transform="matrix(1,0,0,-1,-127,705)"/>
<path style="fill-rule:evenodd;fill:rgb(0%,0%,0%);fill-opacity:1;stroke-width:1.2;stroke-linecap:round;stroke-linejoin:round;stroke:rgb(0%,0%,0%);stroke-opacity:1;stroke-miterlimit:10;" d="M 189.089844 369.453125 L 199.089844 366.125 L 199.089844 372.785156 Z M 189.089844 369.453125 " transform="matrix(1,0,0,-1,-127,705)"/>
<path style="fill-rule:evenodd;fill:rgb(0%,0%,0%);fill-opacity:1;stroke-width:1.2;stroke-linecap:round;stroke-linejoin:round;stroke:rgb(0%,0%,0%);stroke-opacity:1;stroke-miterlimit:10;" d="M 305.453125 354.910156 C 312.726562 311.273438 309.089844 289.453125 312.121094 278.542969 C 315.152344 267.636719 324.847656 267.636719 327.273438 274.910156 C 329.695312 282.179688 324.847656 296.726562 326.058594 314.910156 C 327.273438 333.089844 334.546875 354.910156 305.453125 354.910156 " transform="matrix(1,0,0,-1,-127,705)"/>
<path style="fill-rule:evenodd;fill:rgb(0%,0%,0%);fill-opacity:1;stroke-width:1.2;stroke-linecap:round;stroke-linejoin:round;stroke:rgb(0%,0%,0%);stroke-opacity:1;stroke-miterlimit:10;" d="M 305.453125 354.910156 L 315.453125 351.578125 L 315.453125 358.238281 Z M 305.453125 354.910156 " transform="matrix(1,0,0,-1,-127,705)"/>
<path style="fill-rule:evenodd;fill:rgb(0%,0%,0%);fill-opacity:1;stroke-width:1.2;stroke-linecap:round;stroke-linejoin:round;stroke:rgb(0%,0%,0%);stroke-opacity:1;stroke-miterlimit:10;" d="M 223.035156 357.253906 C 259.039062 321.1875 270.734375 298.140625 280.785156 289.957031 C 290.835938 281.777344 299.25 288.464844 296.402344 296.984375 C 293.554688 305.5 279.453125 315.851562 268.128906 333.804688 C 256.808594 351.757812 248.269531 377.3125 223.035156 357.253906 " transform="matrix(1,0,0,-1,-127,705)"/>
<path style="fill-rule:evenodd;fill:rgb(0%,0%,0%);fill-opacity:1;stroke-width:1.2;stroke-linecap:round;stroke-linejoin:round;stroke:rgb(0%,0%,0%);stroke-opacity:1;stroke-miterlimit:10;" d="M 223.035156 357.253906 L 232.933594 360.867188 L 228.789062 366.082031 Z M 223.035156 357.253906 " transform="matrix(1,0,0,-1,-127,705)"/>
<path style="fill-rule:evenodd;fill:rgb(0%,0%,0%);fill-opacity:1;stroke-width:1.2;stroke-linecap:round;stroke-linejoin:round;stroke:rgb(0%,0%,0%);stroke-opacity:1;stroke-miterlimit:10;" d="M 231.273438 523.636719 C 231.273438 547.734375 211.734375 567.273438 187.636719 567.273438 C 163.535156 567.273438 144 547.734375 144 523.636719 C 144 499.535156 163.535156 480 187.636719 480 C 211.734375 480 231.273438 499.535156 231.273438 523.636719 Z M 231.273438 523.636719 " transform="matrix(1,0,0,-1,-127,705)"/>
<path style="fill-rule:evenodd;fill:rgb(0%,0%,0%);fill-opacity:1;stroke-width:1.2;stroke-linecap:round;stroke-linejoin:round;stroke:rgb(0%,0%,0%);stroke-opacity:1;stroke-miterlimit:10;" d="M 231.273438 640 C 231.273438 664.097656 211.734375 683.636719 187.636719 683.636719 C 163.535156 683.636719 144 664.097656 144 640 C 144 615.898438 163.535156 596.363281 187.636719 596.363281 C 211.734375 596.363281 231.273438 615.898438 231.273438 640 Z M 231.273438 640 " transform="matrix(1,0,0,-1,-127,705)"/>
<path style="fill-rule:evenodd;fill:rgb(0%,0%,0%);fill-opacity:1;stroke-width:1.2;stroke-linecap:round;stroke-linejoin:round;stroke:rgb(0%,0%,0%);stroke-opacity:1;stroke-miterlimit:10;" d="M 347.636719 640 C 347.636719 664.097656 328.097656 683.636719 304 683.636719 C 279.898438 683.636719 260.363281 664.097656 260.363281 640 C 260.363281 615.898438 279.898438 596.363281 304 596.363281 C 328.097656 596.363281 347.636719 615.898438 347.636719 640 Z M 347.636719 640 " transform="matrix(1,0,0,-1,-127,705)"/>
<path style="fill-rule:evenodd;fill:rgb(0%,0%,0%);fill-opacity:1;stroke-width:1.2;stroke-linecap:round;stroke-linejoin:round;stroke:rgb(0%,0%,0%);stroke-opacity:1;stroke-miterlimit:10;" d="M 347.636719 523.636719 C 347.636719 547.734375 328.097656 567.273438 304 567.273438 C 279.898438 567.273438 260.363281 547.734375 260.363281 523.636719 C 260.363281 499.535156 279.898438 480 304 480 C 328.097656 480 347.636719 499.535156 347.636719 523.636719 Z M 347.636719 523.636719 " transform="matrix(1,0,0,-1,-127,705)"/>
<path style="fill-rule:evenodd;fill:rgb(0%,0%,0%);fill-opacity:1;stroke-width:1.2;stroke-linecap:round;stroke-linejoin:round;stroke:rgb(0%,0%,0%);stroke-opacity:1;stroke-miterlimit:10;" d="M 173.089844 625.453125 C 180.363281 581.816406 176.726562 560 179.757812 549.089844 C 182.789062 538.183594 192.484375 538.183594 194.910156 545.453125 C 197.332031 552.726562 192.484375 567.273438 193.695312 585.453125 C 194.910156 603.636719 202.183594 625.453125 173.089844 625.453125 " transform="matrix(1,0,0,-1,-127,705)"/>
<path style="fill-rule:evenodd;fill:rgb(0%,0%,0%);fill-opacity:1;stroke-width:1.2;stroke-linecap:round;stroke-linejoin:round;stroke:rgb(0%,0%,0%);stroke-opacity:1;stroke-miterlimit:10;" d="M 173.089844 625.453125 L 183.089844 622.125 L 183.089844 628.785156 Z M 173.089844 625.453125 " transform="matrix(1,0,0,-1,-127,705)"/>
<path style="fill-rule:evenodd;fill:rgb(0%,0%,0%);fill-opacity:1;stroke-width:1.2;stroke-linecap:round;stroke-linejoin:round;stroke:rgb(0%,0%,0%);stroke-opacity:1;stroke-miterlimit:10;" d="M 289.453125 610.910156 C 296.726562 567.273438 293.089844 545.453125 296.121094 534.542969 C 299.152344 523.636719 308.847656 523.636719 311.273438 530.910156 C 313.695312 538.179688 308.847656 552.726562 310.058594 570.910156 C 311.273438 589.089844 318.546875 610.910156 289.453125 610.910156 " transform="matrix(1,0,0,-1,-127,705)"/>
<path style="fill-rule:evenodd;fill:rgb(0%,0%,0%);fill-opacity:1;stroke-width:1.2;stroke-linecap:round;stroke-linejoin:round;stroke:rgb(0%,0%,0%);stroke-opacity:1;stroke-miterlimit:10;" d="M 289.453125 610.910156 L 299.453125 607.578125 L 299.453125 614.238281 Z M 289.453125 610.910156 " transform="matrix(1,0,0,-1,-127,705)"/>
<path style="fill-rule:evenodd;fill:rgb(0%,0%,0%);fill-opacity:1;stroke-width:1.2;stroke-linecap:round;stroke-linejoin:round;stroke:rgb(0%,0%,0%);stroke-opacity:1;stroke-miterlimit:10;" d="M 207.035156 613.253906 C 243.039062 577.1875 254.734375 554.140625 264.785156 545.957031 C 274.835938 537.777344 283.25 544.464844 280.402344 552.984375 C 277.554688 561.5 263.453125 571.851562 252.128906 589.804688 C 240.808594 607.757812 232.269531 633.3125 207.035156 613.253906 " transform="matrix(1,0,0,-1,-127,705)"/>
<path style="fill-rule:evenodd;fill:rgb(0%,0%,0%);fill-opacity:1;stroke-width:1.2;stroke-linecap:round;stroke-linejoin:round;stroke:rgb(0%,0%,0%);stroke-opacity:1;stroke-miterlimit:10;" d="M 207.035156 613.253906 L 216.933594 616.867188 L 212.789062 622.082031 Z M 207.035156 613.253906 " transform="matrix(1,0,0,-1,-127,705)"/>
<path style="fill-rule:evenodd;fill:rgb(0%,0%,0%);fill-opacity:1;stroke-width:1.2;stroke-linecap:round;stroke-linejoin:round;stroke:rgb(0%,0%,0%);stroke-opacity:1;stroke-miterlimit:10;" d="M 503.273438 251.636719 C 503.273438 275.734375 483.734375 295.273438 459.636719 295.273438 C 435.535156 295.273438 416 275.734375 416 251.636719 C 416 227.535156 435.535156 208 459.636719 208 C 483.734375 208 503.273438 227.535156 503.273438 251.636719 Z M 503.273438 251.636719 " transform="matrix(1,0,0,-1,-127,705)"/>
<path style="fill-rule:evenodd;fill:rgb(0%,0%,0%);fill-opacity:1;stroke-width:1.2;stroke-linecap:round;stroke-linejoin:round;stroke:rgb(0%,0%,0%);stroke-opacity:1;stroke-miterlimit:10;" d="M 503.273438 368 C 503.273438 392.097656 483.734375 411.636719 459.636719 411.636719 C 435.535156 411.636719 416 392.097656 416 368 C 416 343.898438 435.535156 324.363281 459.636719 324.363281 C 483.734375 324.363281 503.273438 343.898438 503.273438 368 Z M 503.273438 368 " transform="matrix(1,0,0,-1,-127,705)"/>
<path style="fill-rule:evenodd;fill:rgb(0%,0%,0%);fill-opacity:1;stroke-width:1.2;stroke-linecap:round;stroke-linejoin:round;stroke:rgb(0%,0%,0%);stroke-opacity:1;stroke-miterlimit:10;" d="M 619.636719 368 C 619.636719 392.097656 600.097656 411.636719 576 411.636719 C 551.898438 411.636719 532.363281 392.097656 532.363281 368 C 532.363281 343.898438 551.898438 324.363281 576 324.363281 C 600.097656 324.363281 619.636719 343.898438 619.636719 368 Z M 619.636719 368 " transform="matrix(1,0,0,-1,-127,705)"/>
<path style="fill-rule:evenodd;fill:rgb(0%,0%,0%);fill-opacity:1;stroke-width:1.2;stroke-linecap:round;stroke-linejoin:round;stroke:rgb(0%,0%,0%);stroke-opacity:1;stroke-miterlimit:10;" d="M 619.636719 251.636719 C 619.636719 275.734375 600.097656 295.273438 576 295.273438 C 551.898438 295.273438 532.363281 275.734375 532.363281 251.636719 C 532.363281 227.535156 551.898438 208 576 208 C 600.097656 208 619.636719 227.535156 619.636719 251.636719 Z M 619.636719 251.636719 " transform="matrix(1,0,0,-1,-127,705)"/>
<path style="fill-rule:evenodd;fill:rgb(0%,0%,0%);fill-opacity:1;stroke-width:1.2;stroke-linecap:round;stroke-linejoin:round;stroke:rgb(0%,0%,0%);stroke-opacity:1;stroke-miterlimit:10;" d="M 445.089844 353.453125 C 452.363281 309.816406 448.726562 288 451.757812 277.089844 C 454.789062 266.183594 464.484375 266.183594 466.910156 273.453125 C 469.332031 280.726562 464.484375 295.273438 465.695312 313.453125 C 466.910156 331.636719 474.183594 353.453125 445.089844 353.453125 " transform="matrix(1,0,0,-1,-127,705)"/>
<path style="fill-rule:evenodd;fill:rgb(0%,0%,0%);fill-opacity:1;stroke-width:1.2;stroke-linecap:round;stroke-linejoin:round;stroke:rgb(0%,0%,0%);stroke-opacity:1;stroke-miterlimit:10;" d="M 445.089844 353.453125 L 455.089844 350.125 L 455.089844 356.785156 Z M 445.089844 353.453125 " transform="matrix(1,0,0,-1,-127,705)"/>
<path style="fill-rule:evenodd;fill:rgb(0%,0%,0%);fill-opacity:1;stroke-width:1.2;stroke-linecap:round;stroke-linejoin:round;stroke:rgb(0%,0%,0%);stroke-opacity:1;stroke-miterlimit:10;" d="M 561.453125 338.910156 C 568.726562 295.273438 565.089844 273.453125 568.121094 262.542969 C 571.152344 251.636719 580.847656 251.636719 583.273438 258.910156 C 585.695312 266.179688 580.847656 280.726562 582.058594 298.910156 C 583.273438 317.089844 590.546875 338.910156 561.453125 338.910156 " transform="matrix(1,0,0,-1,-127,705)"/>
<path style="fill-rule:evenodd;fill:rgb(0%,0%,0%);fill-opacity:1;stroke-width:1.2;stroke-linecap:round;stroke-linejoin:round;stroke:rgb(0%,0%,0%);stroke-opacity:1;stroke-miterlimit:10;" d="M 561.453125 338.910156 L 571.453125 335.578125 L 571.453125 342.238281 Z M 561.453125 338.910156 " transform="matrix(1,0,0,-1,-127,705)"/>
<path style="fill-rule:evenodd;fill:rgb(0%,0%,0%);fill-opacity:1;stroke-width:1.2;stroke-linecap:round;stroke-linejoin:round;stroke:rgb(0%,0%,0%);stroke-opacity:1;stroke-miterlimit:10;" d="M 479.035156 341.253906 C 515.039062 305.1875 526.734375 282.140625 536.785156 273.957031 C 546.835938 265.777344 555.25 272.464844 552.402344 280.984375 C 549.554688 289.5 535.453125 299.851562 524.128906 317.804688 C 512.808594 335.757812 504.269531 361.3125 479.035156 341.253906 " transform="matrix(1,0,0,-1,-127,705)"/>
<path style="fill-rule:evenodd;fill:rgb(0%,0%,0%);fill-opacity:1;stroke-width:1.2;stroke-linecap:round;stroke-linejoin:round;stroke:rgb(0%,0%,0%);stroke-opacity:1;stroke-miterlimit:10;" d="M 479.035156 341.253906 L 488.933594 344.867188 L 484.789062 350.082031 Z M 479.035156 341.253906 " transform="matrix(1,0,0,-1,-127,705)"/>
<path style="fill-rule:evenodd;fill:rgb(0%,0%,0%);fill-opacity:1;stroke-width:1.2;stroke-linecap:round;stroke-linejoin:round;stroke:rgb(0%,0%,0%);stroke-opacity:1;stroke-miterlimit:10;" d="M 503.273438 523.636719 C 503.273438 547.734375 483.734375 567.273438 459.636719 567.273438 C 435.535156 567.273438 416 547.734375 416 523.636719 C 416 499.535156 435.535156 480 459.636719 480 C 483.734375 480 503.273438 499.535156 503.273438 523.636719 Z M 503.273438 523.636719 " transform="matrix(1,0,0,-1,-127,705)"/>
<path style="fill-rule:evenodd;fill:rgb(0%,0%,0%);fill-opacity:1;stroke-width:1.2;stroke-linecap:round;stroke-linejoin:round;stroke:rgb(0%,0%,0%);stroke-opacity:1;stroke-miterlimit:10;" d="M 503.273438 640 C 503.273438 664.097656 483.734375 683.636719 459.636719 683.636719 C 435.535156 683.636719 416 664.097656 416 640 C 416 615.898438 435.535156 596.363281 459.636719 596.363281 C 483.734375 596.363281 503.273438 615.898438 503.273438 640 Z M 503.273438 640 " transform="matrix(1,0,0,-1,-127,705)"/>
<path style="fill-rule:evenodd;fill:rgb(0%,0%,0%);fill-opacity:1;stroke-width:1.2;stroke-linecap:round;stroke-linejoin:round;stroke:rgb(0%,0%,0%);stroke-opacity:1;stroke-miterlimit:10;" d="M 619.636719 640 C 619.636719 664.097656 600.097656 683.636719 576 683.636719 C 551.898438 683.636719 532.363281 664.097656 532.363281 640 C 532.363281 615.898438 551.898438 596.363281 576 596.363281 C 600.097656 596.363281 619.636719 615.898438 619.636719 640 Z M 619.636719 640 " transform="matrix(1,0,0,-1,-127,705)"/>
<path style="fill-rule:evenodd;fill:rgb(0%,0%,0%);fill-opacity:1;stroke-width:1.2;stroke-linecap:round;stroke-linejoin:round;stroke:rgb(0%,0%,0%);stroke-opacity:1;stroke-miterlimit:10;" d="M 619.636719 523.636719 C 619.636719 547.734375 600.097656 567.273438 576 567.273438 C 551.898438 567.273438 532.363281 547.734375 532.363281 523.636719 C 532.363281 499.535156 551.898438 480 576 480 C 600.097656 480 619.636719 499.535156 619.636719 523.636719 Z M 619.636719 523.636719 " transform="matrix(1,0,0,-1,-127,705)"/>
<path style="fill-rule:evenodd;fill:rgb(0%,0%,0%);fill-opacity:1;stroke-width:1.2;stroke-linecap:round;stroke-linejoin:round;stroke:rgb(0%,0%,0%);stroke-opacity:1;stroke-miterlimit:10;" d="M 445.089844 625.453125 C 452.363281 581.816406 448.726562 560 451.757812 549.089844 C 454.789062 538.183594 464.484375 538.183594 466.910156 545.453125 C 469.332031 552.726562 464.484375 567.273438 465.695312 585.453125 C 466.910156 603.636719 474.183594 625.453125 445.089844 625.453125 " transform="matrix(1,0,0,-1,-127,705)"/>
<path style="fill-rule:evenodd;fill:rgb(0%,0%,0%);fill-opacity:1;stroke-width:1.2;stroke-linecap:round;stroke-linejoin:round;stroke:rgb(0%,0%,0%);stroke-opacity:1;stroke-miterlimit:10;" d="M 445.089844 625.453125 L 455.089844 622.125 L 455.089844 628.785156 Z M 445.089844 625.453125 " transform="matrix(1,0,0,-1,-127,705)"/>
<path style="fill-rule:evenodd;fill:rgb(0%,0%,0%);fill-opacity:1;stroke-width:1.2;stroke-linecap:round;stroke-linejoin:round;stroke:rgb(0%,0%,0%);stroke-opacity:1;stroke-miterlimit:10;" d="M 561.453125 610.910156 C 568.726562 567.273438 565.089844 545.453125 568.121094 534.542969 C 571.152344 523.636719 580.847656 523.636719 583.273438 530.910156 C 585.695312 538.179688 580.847656 552.726562 582.058594 570.910156 C 583.273438 589.089844 590.546875 610.910156 561.453125 610.910156 " transform="matrix(1,0,0,-1,-127,705)"/>
<path style="fill-rule:evenodd;fill:rgb(0%,0%,0%);fill-opacity:1;stroke-width:1.2;stroke-linecap:round;stroke-linejoin:round;stroke:rgb(0%,0%,0%);stroke-opacity:1;stroke-miterlimit:10;" d="M 561.453125 610.910156 L 571.453125 607.578125 L 571.453125 614.238281 Z M 561.453125 610.910156 " transform="matrix(1,0,0,-1,-127,705)"/>
<path style="fill-rule:evenodd;fill:rgb(0%,0%,0%);fill-opacity:1;stroke-width:1.2;stroke-linecap:round;stroke-linejoin:round;stroke:rgb(0%,0%,0%);stroke-opacity:1;stroke-miterlimit:10;" d="M 479.035156 613.253906 C 515.039062 577.1875 526.734375 554.140625 536.785156 545.957031 C 546.835938 537.777344 555.25 544.464844 552.402344 552.984375 C 549.554688 561.5 535.453125 571.851562 524.128906 589.804688 C 512.808594 607.757812 504.269531 633.3125 479.035156 613.253906 " transform="matrix(1,0,0,-1,-127,705)"/>
<path style="fill-rule:evenodd;fill:rgb(0%,0%,0%);fill-opacity:1;stroke-width:1.2;stroke-linecap:round;stroke-linejoin:round;stroke:rgb(0%,0%,0%);stroke-opacity:1;stroke-miterlimit:10;" d="M 479.035156 613.253906 L 488.933594 616.867188 L 484.789062 622.082031 Z M 479.035156 613.253906 " transform="matrix(1,0,0,-1,-127,705)"/>
<path style="fill-rule:evenodd;fill:rgb(0%,0%,0%);fill-opacity:1;stroke-width:1.2;stroke-linecap:round;stroke-linejoin:round;stroke:rgb(0%,0%,0%);stroke-opacity:1;stroke-miterlimit:10;" d="M 184 512 C 181.332031 506.667969 186.667969 501.332031 210.667969 477.332031 C 234.667969 453.332031 277.332031 410.667969 301.332031 392 C 325.332031 373.332031 330.667969 378.667969 312 405.332031 C 293.332031 432 250.667969 480 224 501.332031 C 197.332031 522.667969 186.667969 517.332031 184 512 Z M 184 512 " transform="matrix(1,0,0,-1,-127,705)"/>
<path style="fill-rule:evenodd;fill:rgb(0%,0%,0%);fill-opacity:1;stroke-width:1.2;stroke-linecap:round;stroke-linejoin:round;stroke:rgb(0%,0%,0%);stroke-opacity:1;stroke-miterlimit:10;" d="M 456 496 C 453.332031 490.667969 458.667969 485.332031 482.667969 461.332031 C 506.667969 437.332031 549.332031 394.667969 573.332031 376 C 597.332031 357.332031 602.667969 362.667969 584 389.332031 C 565.332031 416 522.667969 464 496 485.332031 C 469.332031 506.667969 458.667969 501.332031 456 496 Z M 456 496 " transform="matrix(1,0,0,-1,-127,705)"/>
<path style="fill-rule:evenodd;fill:rgb(0%,0%,0%);fill-opacity:1;stroke-width:1.2;stroke-linecap:round;stroke-linejoin:round;stroke:rgb(0%,0%,0%);stroke-opacity:1;stroke-miterlimit:10;" d="M 306.667969 626.667969 C 304 629.332031 304 634.667969 306.667969 637.332031 C 309.332031 640 314.667969 640 325.332031 637.332031 C 336 634.667969 352 629.332031 362.667969 621.332031 C 373.332031 613.332031 378.667969 602.667969 384 586.667969 C 389.332031 570.667969 394.667969 549.332031 397.332031 525.332031 C 400 501.332031 400 474.667969 400 448 C 400 421.332031 400 394.667969 400 368 C 400 341.332031 400 314.667969 410.667969 293.332031 C 421.332031 272 442.667969 256 450.667969 248 C 458.667969 240 453.332031 240 448 240 C 442.667969 240 437.332031 240 426.667969 245.332031 C 416 250.667969 400 261.332031 392 293.332031 C 384 325.332031 384 378.667969 381.332031 434.667969 C 378.667969 490.667969 373.332031 549.332031 362.667969 581.332031 C 352 613.332031 336 618.667969 325.332031 621.332031 C 314.667969 624 309.332031 624 306.667969 626.667969 Z M 306.667969 626.667969 " transform="matrix(1,0,0,-1,-127,705)"/>
</g>
</svg>
