<?xml version="1.0" encoding="UTF-8"?>
<svg xmlns="http://www.w3.org/2000/svg" xmlns:xlink="http://www.w3.org/1999/xlink" width="125pt" height="314pt" viewBox="0 0 125 314" version="1.1">
<g id="surface63289">
<path style="fill:none;stroke-width:0.4;stroke-linecap:round;stroke-linejoin:round;stroke:rgb(0%,0%,0%);stroke-opacity:1;stroke-miterlimit:10;" d="M 224 752 L 256 704 L 208 656 L 192 624 L 208 592 L 224 576 L 208 560 L 192 528 L 240 480 " transform="matrix(1,0,0,-1,-151,755)"/>
<path style=" stroke:none;fill-rule:evenodd;fill:rgb(0%,0%,0%);fill-opacity:1;" d="M 90.800781 275 C 90.800781 272.601562 87.199219 272.601562 87.199219 275 C 87.199219 277.398438 90.800781 277.398438 90.800781 275 Z M 90.800781 275 "/>
<path style=" stroke:none;fill-rule:evenodd;fill:rgb(0%,0%,0%);fill-opacity:1;" d="M 74.800781 259 C 74.800781 256.601562 71.199219 256.601562 71.199219 259 C 71.199219 261.398438 74.800781 261.398438 74.800781 259 Z M 74.800781 259 "/>
<path style=" stroke:none;fill-rule:evenodd;fill:rgb(0%,0%,0%);fill-opacity:1;" d="M 42.800781 227 C 42.800781 224.601562 39.199219 224.601562 39.199219 227 C 39.199219 229.398438 42.800781 229.398438 42.800781 227 Z M 42.800781 227 "/>
<path style=" stroke:none;fill-rule:evenodd;fill:rgb(0%,0%,0%);fill-opacity:1;" d="M 58.800781 195 C 58.800781 192.601562 55.199219 192.601562 55.199219 195 C 55.199219 197.398438 58.800781 197.398438 58.800781 195 Z M 58.800781 195 "/>
<path style=" stroke:none;fill-rule:evenodd;fill:rgb(0%,0%,0%);fill-opacity:1;" d="M 74.800781 179 C 74.800781 176.601562 71.199219 176.601562 71.199219 179 C 71.199219 181.398438 74.800781 181.398438 74.800781 179 Z M 74.800781 179 "/>
<path style=" stroke:none;fill-rule:evenodd;fill:rgb(0%,0%,0%);fill-opacity:1;" d="M 58.800781 163 C 58.800781 160.601562 55.199219 160.601562 55.199219 163 C 55.199219 165.398438 58.800781 165.398438 58.800781 163 Z M 58.800781 163 "/>
<path style=" stroke:none;fill-rule:evenodd;fill:rgb(0%,0%,0%);fill-opacity:1;" d="M 42.800781 131 C 42.800781 128.601562 39.199219 128.601562 39.199219 131 C 39.199219 133.398438 42.800781 133.398438 42.800781 131 Z M 42.800781 131 "/>
<path style=" stroke:none;fill-rule:evenodd;fill:rgb(0%,0%,0%);fill-opacity:1;" d="M 58.800781 99 C 58.800781 96.601562 55.199219 96.601562 55.199219 99 C 55.199219 101.398438 58.800781 101.398438 58.800781 99 Z M 58.800781 99 "/>
<path style=" stroke:none;fill-rule:evenodd;fill:rgb(0%,0%,0%);fill-opacity:1;" d="M 106.800781 51 C 106.800781 48.601562 103.199219 48.601562 103.199219 51 C 103.199219 53.398438 106.800781 53.398438 106.800781 51 Z M 106.800781 51 "/>
<path style=" stroke:none;fill-rule:evenodd;fill:rgb(0%,0%,0%);fill-opacity:1;" d="M 74.800781 3 C 74.800781 0.601562 71.199219 0.601562 71.199219 3 C 71.199219 5.398438 74.800781 5.398438 74.800781 3 Z M 74.800781 3 "/>
<path style=" stroke:none;fill-rule:evenodd;fill:rgb(0%,0%,0%);fill-opacity:1;" d="M 91.070312 27.40625 C 91.070312 25.007812 87.472656 25.007812 87.472656 27.40625 C 87.472656 29.808594 91.070312 29.808594 91.070312 27.40625 Z M 91.070312 27.40625 "/>
<path style=" stroke:none;fill-rule:evenodd;fill:rgb(0%,0%,0%);fill-opacity:1;" d="M 71.074219 29.589844 C 71.074219 27.191406 67.472656 27.191406 67.472656 29.589844 C 67.472656 31.992188 71.074219 31.992188 71.074219 29.589844 Z M 71.074219 29.589844 "/>
<path style=" stroke:none;fill-rule:evenodd;fill:rgb(0%,0%,0%);fill-opacity:1;" d="M 47.535156 29.917969 C 47.535156 27.515625 43.9375 27.515625 43.9375 29.917969 C 43.9375 32.316406 47.535156 32.316406 47.535156 29.917969 Z M 47.535156 29.917969 "/>
<path style=" stroke:none;fill-rule:evenodd;fill:rgb(0%,0%,0%);fill-opacity:1;" d="M 29.636719 28.796875 C 29.636719 26.398438 26.035156 26.398438 26.035156 28.796875 C 26.035156 31.199219 29.636719 31.199219 29.636719 28.796875 Z M 29.636719 28.796875 "/>
<path style=" stroke:none;fill-rule:evenodd;fill:rgb(0%,0%,0%);fill-opacity:1;" d="M 21.242188 125.054688 C 21.242188 122.65625 17.640625 122.65625 17.640625 125.054688 C 17.640625 127.457031 21.242188 127.457031 21.242188 125.054688 Z M 21.242188 125.054688 "/>
<path style=" stroke:none;fill-rule:evenodd;fill:rgb(0%,0%,0%);fill-opacity:1;" d="M 26.273438 161.714844 C 26.273438 159.3125 22.675781 159.3125 22.675781 161.714844 C 22.675781 164.113281 26.273438 164.113281 26.273438 161.714844 Z M 26.273438 161.714844 "/>
<path style=" stroke:none;fill-rule:evenodd;fill:rgb(0%,0%,0%);fill-opacity:1;" d="M 7.027344 161.683594 C 7.027344 159.28125 3.425781 159.28125 3.425781 161.683594 C 3.425781 164.082031 7.027344 164.082031 7.027344 161.683594 Z M 7.027344 161.683594 "/>
<path style=" stroke:none;fill-rule:evenodd;fill:rgb(0%,0%,0%);fill-opacity:1;" d="M 25.191406 192.917969 C 25.191406 190.519531 21.589844 190.519531 21.589844 192.917969 C 21.589844 195.320312 25.191406 195.320312 25.191406 192.917969 Z M 25.191406 192.917969 "/>
<path style=" stroke:none;fill-rule:evenodd;fill:rgb(0%,0%,0%);fill-opacity:1;" d="M 26.707031 260.542969 C 26.707031 258.144531 23.105469 258.144531 23.105469 260.542969 C 23.105469 262.945312 26.707031 262.945312 26.707031 260.542969 Z M 26.707031 260.542969 "/>
<path style=" stroke:none;fill-rule:evenodd;fill:rgb(0%,0%,0%);fill-opacity:1;" d="M 5.167969 260.542969 C 5.167969 258.144531 1.566406 258.144531 1.566406 260.542969 C 1.566406 262.945312 5.167969 262.945312 5.167969 260.542969 Z M 5.167969 260.542969 "/>
<path style=" stroke:none;fill-rule:evenodd;fill:rgb(0%,0%,0%);fill-opacity:1;" d="M 42.335938 286.796875 C 42.335938 284.398438 38.734375 284.398438 38.734375 286.796875 C 38.734375 289.199219 42.335938 289.199219 42.335938 286.796875 Z M 42.335938 286.796875 "/>
<path style=" stroke:none;fill-rule:evenodd;fill:rgb(0%,0%,0%);fill-opacity:1;" d="M 66.902344 311.15625 C 66.902344 308.753906 63.300781 308.753906 63.300781 311.15625 C 63.300781 313.554688 66.902344 313.554688 66.902344 311.15625 Z M 66.902344 311.15625 "/>
<path style=" stroke:none;fill-rule:evenodd;fill:rgb(0%,0%,0%);fill-opacity:1;" d="M 84.230469 311.15625 C 84.230469 308.753906 80.632812 308.753906 80.632812 311.15625 C 80.632812 313.554688 84.230469 313.554688 84.230469 311.15625 Z M 84.230469 311.15625 "/>
<path style=" stroke:none;fill-rule:evenodd;fill:rgb(0%,0%,0%);fill-opacity:1;" d="M 102.363281 310.355469 C 102.363281 307.957031 98.765625 307.957031 98.765625 310.355469 C 98.765625 312.753906 102.363281 312.753906 102.363281 310.355469 Z M 102.363281 310.355469 "/>
<path style=" stroke:none;fill-rule:evenodd;fill:rgb(0%,0%,0%);fill-opacity:1;" d="M 124.671875 309.347656 C 124.671875 306.945312 121.074219 306.945312 121.074219 309.347656 C 121.074219 311.746094 124.671875 311.746094 124.671875 309.347656 Z M 124.671875 309.347656 "/>
<path style="fill:none;stroke-width:0.4;stroke-linecap:round;stroke-linejoin:round;stroke:rgb(0%,0%,0%);stroke-opacity:1;stroke-miterlimit:10;" d="M 224 752 L 178.835938 726.203125 " transform="matrix(1,0,0,-1,-151,755)"/>
<path style="fill:none;stroke-width:0.4;stroke-linecap:round;stroke-linejoin:round;stroke:rgb(0%,0%,0%);stroke-opacity:1;stroke-miterlimit:10;" d="M 196.734375 725.082031 L 224 752 " transform="matrix(1,0,0,-1,-151,755)"/>
<path style="fill:none;stroke-width:0.4;stroke-linecap:round;stroke-linejoin:round;stroke:rgb(0%,0%,0%);stroke-opacity:1;stroke-miterlimit:10;" d="M 220.273438 725.410156 L 224 752 " transform="matrix(1,0,0,-1,-151,755)"/>
<path style="fill:none;stroke-width:0.4;stroke-linecap:round;stroke-linejoin:round;stroke:rgb(0%,0%,0%);stroke-opacity:1;stroke-miterlimit:10;" d="M 208 656 L 170.441406 629.945312 " transform="matrix(1,0,0,-1,-151,755)"/>
<path style="fill:none;stroke-width:0.4;stroke-linecap:round;stroke-linejoin:round;stroke:rgb(0%,0%,0%);stroke-opacity:1;stroke-miterlimit:10;" d="M 192 624 L 156.226562 593.316406 " transform="matrix(1,0,0,-1,-151,755)"/>
<path style="fill:none;stroke-width:0.4;stroke-linecap:round;stroke-linejoin:round;stroke:rgb(0%,0%,0%);stroke-opacity:1;stroke-miterlimit:10;" d="M 175.472656 593.285156 L 192 624 " transform="matrix(1,0,0,-1,-151,755)"/>
<path style="fill:none;stroke-width:0.4;stroke-linecap:round;stroke-linejoin:round;stroke:rgb(0%,0%,0%);stroke-opacity:1;stroke-miterlimit:10;" d="M 174.390625 562.082031 L 208 592 " transform="matrix(1,0,0,-1,-151,755)"/>
<path style="fill:none;stroke-width:0.4;stroke-linecap:round;stroke-linejoin:round;stroke:rgb(0%,0%,0%);stroke-opacity:1;stroke-miterlimit:10;" d="M 154.367188 494.457031 L 192 528 " transform="matrix(1,0,0,-1,-151,755)"/>
<path style="fill:none;stroke-width:0.4;stroke-linecap:round;stroke-linejoin:round;stroke:rgb(0%,0%,0%);stroke-opacity:1;stroke-miterlimit:10;" d="M 175.90625 494.457031 L 192 528 " transform="matrix(1,0,0,-1,-151,755)"/>
<path style="fill:none;stroke-width:0.4;stroke-linecap:round;stroke-linejoin:round;stroke:rgb(0%,0%,0%);stroke-opacity:1;stroke-miterlimit:10;" d="M 191.535156 468.203125 L 224 496 " transform="matrix(1,0,0,-1,-151,755)"/>
<path style="fill:none;stroke-width:0.4;stroke-linecap:round;stroke-linejoin:round;stroke:rgb(0%,0%,0%);stroke-opacity:1;stroke-miterlimit:10;" d="M 216.101562 443.84375 L 240 480 " transform="matrix(1,0,0,-1,-151,755)"/>
<path style="fill:none;stroke-width:0.4;stroke-linecap:round;stroke-linejoin:round;stroke:rgb(0%,0%,0%);stroke-opacity:1;stroke-miterlimit:10;" d="M 233.429688 443.84375 L 240 480 " transform="matrix(1,0,0,-1,-151,755)"/>
<path style="fill:none;stroke-width:0.4;stroke-linecap:round;stroke-linejoin:round;stroke:rgb(0%,0%,0%);stroke-opacity:1;stroke-miterlimit:10;" d="M 251.5625 444.644531 L 240 480 " transform="matrix(1,0,0,-1,-151,755)"/>
<path style="fill:none;stroke-width:0.4;stroke-linecap:round;stroke-linejoin:round;stroke:rgb(0%,0%,0%);stroke-opacity:1;stroke-miterlimit:10;" d="M 273.871094 445.652344 L 240 480 " transform="matrix(1,0,0,-1,-151,755)"/>
</g>
</svg>
